<?xml version="1.0" encoding="utf-8"?>
<!-- Generator: Adobe Illustrator 16.0.0, SVG Export Plug-In . SVG Version: 6.00 Build 0)  -->
<!DOCTYPE svg PUBLIC "-//W3C//DTD SVG 1.1//EN" "http://www.w3.org/Graphics/SVG/1.1/DTD/svg11.dtd">
<svg version="1.1" id="图层_1" xmlns="http://www.w3.org/2000/svg" xmlns:xlink="http://www.w3.org/1999/xlink" x="0px" y="0px"
	 width="100px" height="100px" viewBox="0 0 100 100" enable-background="new 0 0 100 100" xml:space="preserve">
<g>
	<linearGradient id="06_node_layer_3_switch_SVGID_1_" gradientUnits="userSpaceOnUse" x1="13.9697" y1="69.0342" x2="77.8994" y2="69.0342">
		<stop  offset="0" style="stop-color:#314F5C"/>
		<stop  offset="0.5172" style="stop-color:#57798B"/>
		<stop  offset="1" style="stop-color:#314F5C"/>
	</linearGradient>
	<polygon fill="url(#06_node_layer_3_switch_SVGID_1_)" points="13.97,40.296 13.97,97.772 77.899,97.772 77.899,40.296 	"/>
	<polygon fill="#00B4FF" points="13.97,40.296 22.136,33.415 86.03,33.415 77.899,40.296 	"/>
	<polygon fill="#173E49" points="13.97,40.296 22.136,33.415 86.03,33.415 77.899,40.296 	"/>
	<polygon fill="#005A80" points="77.899,40.296 86.03,33.415 86.03,90.379 77.899,97.259 	"/>
	<polygon fill="#204A59" points="77.899,40.347 86.03,33.415 86.03,90.79 77.899,97.72 	"/>
	<polygon fill="#FFFFFF" points="27.338,46.093 27.338,51.892 40.135,51.892 47.103,65.082 54.067,51.892 66.864,51.892 
		66.864,46.093 74.998,53.459 66.864,60.854 66.864,55.572 57.567,55.572 50.001,70.335 57.567,85.123 66.864,85.123 66.864,79.842 
		74.998,87.237 66.864,94.604 66.864,89.319 54.067,89.319 47.103,75.616 40.135,89.319 27.338,89.319 27.338,94.604 19.204,87.237 
		27.338,79.842 27.338,85.123 36.067,85.123 44.2,70.335 36.067,55.572 27.338,55.572 27.338,60.854 19.204,53.459 	"/>
	<polygon fill="#EDEDED" points="27.338,46.093 27.338,51.892 40.135,51.892 47.103,65.082 54.067,51.892 66.864,51.892 
		66.864,46.093 74.998,53.459 66.864,60.854 66.864,55.572 57.567,55.572 50.001,70.335 57.567,85.123 66.864,85.123 66.864,79.842 
		74.998,87.237 66.864,94.604 66.864,89.319 54.067,89.319 47.103,75.616 40.135,89.319 27.338,89.319 27.338,94.604 19.204,87.237 
		27.338,79.842 27.338,85.123 36.067,85.123 44.2,70.335 36.067,55.572 27.338,55.572 27.338,60.854 19.204,53.459 	"/>
	<linearGradient id="SVGID_2_" gradientUnits="userSpaceOnUse" x1="14.4258" y1="23.8848" x2="77.6104" y2="23.8848">
		<stop  offset="0" style="stop-color:#314F5C"/>
		<stop  offset="0.5172" style="stop-color:#57798B"/>
		<stop  offset="1" style="stop-color:#314F5C"/>
	</linearGradient>
	<polygon fill="url(#SVGID_2_)" points="14.426,8.806 14.426,38.964 77.61,38.964 77.61,8.806 	"/>
	<polygon fill="#608293" points="14.478,8.866 22.511,2.228 85.696,2.228 77.662,8.866 	"/>
	<polygon fill="#204A59" points="77.662,8.866 85.696,2.228 85.696,32.386 77.662,39.022 	"/>
	<polygon fill="#EDEDED" points="18.51,12.969 18.51,19.11 32.872,19.11 32.872,12.969 	"/>
	<polygon fill="#EDEDED" points="58.122,12.969 58.122,19.11 71.338,19.11 71.338,12.969 	"/>
	<polygon fill="#EDEDED" points="18.51,28.31 18.51,34.423 32.872,34.423 32.872,28.31 	"/>
	<polygon fill="#EDEDED" points="58.122,28.31 58.122,34.423 71.338,34.423 71.338,28.31 	"/>
	<path fill="none" stroke="#EDEDED" d="M30.141,15.75h32.248 M30.141,31.625h32.248 M28.262,31.625l34.126-15.876 M28.262,15.75
		l34.126,15.875"/>
</g>
</svg>
