<?xml version="1.0" encoding="utf-8"?>
<!-- Generator: Adobe Illustrator 16.0.0, SVG Export Plug-In . SVG Version: 6.00 Build 0)  -->
<!DOCTYPE svg PUBLIC "-//W3C//DTD SVG 1.1//EN" "http://www.w3.org/Graphics/SVG/1.1/DTD/svg11.dtd">
<svg version="1.1" id="图层_1" xmlns="http://www.w3.org/2000/svg" xmlns:xlink="http://www.w3.org/1999/xlink" x="0px" y="0px"
	 width="100px" height="100px" viewBox="0 0 100 100" enable-background="new 0 0 100 100" xml:space="preserve">
<linearGradient id="11_node_storage_SVGID_1_" gradientUnits="userSpaceOnUse" x1="0.02" y1="32.9346" x2="76.4141" y2="32.9346" gradientTransform="matrix(1 0 0 -1 -0.02 99.0947)">
	<stop  offset="0" style="stop-color:#314F5C"/>
	<stop  offset="0.5172" style="stop-color:#57798B"/>
	<stop  offset="1" style="stop-color:#314F5C"/>
</linearGradient>
<polygon fill="url(#11_node_storage_SVGID_1_)" points="0,52.475 0,79.846 76.394,79.846 76.394,52.475 "/>
<polygon fill="#204A59" points="76.395,52.475 99.974,20.154 99.974,47.578 76.395,79.846 "/>
<polygon fill="#608293" points="76.408,52.475 99.986,20.154 23.632,20.154 0.014,52.475 "/>
<g enable-background="new    ">
	<path fill="#FFFFFF" d="M5.715,68.37l2.496-0.237c0.144,0.883,0.444,1.533,0.899,1.949c0.456,0.418,1.074,0.629,1.853,0.635
		c0.825,0.006,1.449-0.174,1.87-0.539s0.633-0.795,0.636-1.287c0.002-0.316-0.083-0.586-0.258-0.811
		c-0.175-0.223-0.481-0.418-0.918-0.586c-0.299-0.111-0.981-0.311-2.047-0.598c-1.372-0.369-2.333-0.817-2.882-1.344
		c-0.774-0.742-1.158-1.643-1.15-2.701c0.005-0.682,0.192-1.317,0.563-1.908c0.37-0.59,0.902-1.039,1.594-1.344
		c0.692-0.307,1.525-0.455,2.501-0.447c1.593,0.011,2.79,0.387,3.59,1.129s1.215,1.728,1.248,2.957l-2.563,0.101
		c-0.105-0.688-0.337-1.185-0.695-1.488s-0.898-0.458-1.62-0.464c-0.745-0.005-1.329,0.152-1.752,0.473
		c-0.273,0.205-0.41,0.48-0.413,0.827c-0.002,0.316,0.123,0.588,0.375,0.815c0.321,0.287,1.104,0.592,2.349,0.91
		c1.245,0.32,2.165,0.646,2.76,0.982s1.059,0.793,1.393,1.37c0.333,0.577,0.498,1.289,0.492,2.135
		c-0.005,0.767-0.213,1.483-0.621,2.149c-0.409,0.667-0.984,1.16-1.725,1.48c-0.741,0.32-1.663,0.477-2.765,0.469
		c-1.605-0.012-2.834-0.411-3.689-1.199C6.378,71.012,5.873,69.867,5.715,68.37z"/>
	<path fill="#FFFFFF" d="M22.428,63.148l-0.015,2.045l-1.663-0.012l-0.027,3.906c-0.005,0.791,0.007,1.252,0.039,1.383
		c0.031,0.131,0.102,0.239,0.214,0.326c0.112,0.086,0.249,0.129,0.41,0.13c0.225,0.001,0.552-0.078,0.98-0.239l0.194,1.991
		c-0.568,0.251-1.209,0.375-1.925,0.37c-0.438-0.004-0.833-0.084-1.185-0.242c-0.351-0.157-0.608-0.359-0.771-0.607
		c-0.163-0.248-0.274-0.582-0.334-1.002c-0.05-0.299-0.072-0.9-0.065-1.807l0.029-4.227l-1.117-0.008l0.015-2.045l1.117,0.008
		l0.013-1.926l2.452-1.479l-0.024,3.422L22.428,63.148z"/>
	<path fill="#FFFFFF" d="M23.52,67.865c0.006-0.852,0.211-1.674,0.615-2.469c0.404-0.793,0.972-1.398,1.706-1.813
		c0.733-0.415,1.55-0.619,2.45-0.613c1.391,0.01,2.527,0.494,3.41,1.453c0.882,0.958,1.318,2.165,1.309,3.619
		c-0.01,1.467-0.468,2.678-1.373,3.637c-0.904,0.957-2.037,1.432-3.399,1.422c-0.843-0.006-1.646-0.213-2.408-0.619
		s-1.339-1-1.732-1.778S23.512,68.979,23.52,67.865z M26.013,68.021c-0.007,0.962,0.205,1.699,0.634,2.214
		c0.429,0.514,0.961,0.773,1.597,0.777c0.635,0.004,1.168-0.247,1.603-0.756c0.434-0.508,0.654-1.248,0.661-2.223
		c0.006-0.949-0.203-1.68-0.63-2.194c-0.427-0.514-0.957-0.773-1.592-0.778c-0.635-0.004-1.171,0.248-1.607,0.756
		C26.241,66.324,26.02,67.059,26.013,68.021z"/>
	<path fill="#FFFFFF" d="M37.208,72.946l-2.433-0.017l0.068-9.693l2.26,0.016l-0.01,1.379c0.391-0.648,0.742-1.075,1.051-1.28
		c0.31-0.204,0.662-0.306,1.055-0.302c0.554,0.004,1.087,0.168,1.598,0.494l-0.769,2.23c-0.408-0.282-0.788-0.425-1.14-0.428
		c-0.341-0.002-0.63,0.095-0.867,0.291c-0.238,0.196-0.427,0.553-0.566,1.068c-0.139,0.516-0.215,1.599-0.226,3.248L37.208,72.946z"
		/>
	<path fill="#FFFFFF" d="M43.644,66.256l-2.205-0.436c0.255-0.936,0.687-1.626,1.296-2.072c0.609-0.445,1.511-0.664,2.706-0.656
		c1.085,0.008,1.892,0.148,2.421,0.424c0.529,0.274,0.9,0.621,1.114,1.039s0.316,1.184,0.309,2.298l-0.047,2.993
		c-0.006,0.852,0.029,1.48,0.104,1.885c0.076,0.406,0.218,0.841,0.429,1.305l-2.407-0.018c-0.063-0.17-0.139-0.424-0.228-0.759
		c-0.04-0.152-0.068-0.253-0.085-0.302c-0.418,0.423-0.865,0.739-1.34,0.949c-0.475,0.209-0.98,0.313-1.517,0.309
		c-0.947-0.007-1.691-0.283-2.233-0.828c-0.542-0.545-0.81-1.232-0.804-2.06c0.004-0.548,0.131-1.034,0.383-1.462
		c0.251-0.428,0.601-0.754,1.05-0.979s1.095-0.42,1.939-0.584c1.139-0.217,1.929-0.422,2.368-0.613l0.002-0.256
		c0.003-0.492-0.109-0.845-0.339-1.057c-0.229-0.211-0.664-0.318-1.305-0.323c-0.433-0.003-0.771,0.084-1.015,0.262
		C43.996,65.493,43.797,65.807,43.644,66.256z M46.885,68.359c-0.312,0.107-0.807,0.235-1.483,0.383
		c-0.676,0.146-1.119,0.293-1.328,0.438c-0.319,0.234-0.479,0.535-0.482,0.9c-0.002,0.359,0.123,0.67,0.375,0.934
		s0.575,0.396,0.967,0.399c0.438,0.003,0.858-0.146,1.258-0.448c0.296-0.229,0.491-0.51,0.586-0.844
		c0.065-0.219,0.1-0.636,0.104-1.25L46.885,68.359z"/>
	<path fill="#FFFFFF" d="M51.411,73.686l2.776,0.375c0.044,0.342,0.148,0.576,0.315,0.705c0.229,0.185,0.593,0.278,1.089,0.281
		c0.636,0.005,1.112-0.092,1.431-0.29c0.215-0.133,0.378-0.348,0.489-0.646c0.076-0.212,0.117-0.604,0.121-1.176l0.01-1.415
		c-0.734,1.042-1.655,1.559-2.764,1.551c-1.235-0.009-2.21-0.566-2.924-1.673c-0.56-0.874-0.835-1.959-0.826-3.255
		c0.012-1.625,0.392-2.864,1.139-3.716c0.748-0.854,1.673-1.275,2.775-1.268c1.138,0.008,2.071,0.541,2.803,1.599l0.01-1.36
		l2.276,0.017l-0.061,8.698c-0.008,1.144-0.104,1.998-0.287,2.563c-0.183,0.564-0.437,1.006-0.762,1.327
		c-0.325,0.319-0.759,0.569-1.3,0.748c-0.54,0.179-1.224,0.265-2.049,0.259c-1.559-0.01-2.662-0.299-3.311-0.867
		c-0.648-0.567-0.969-1.283-0.963-2.146C51.4,73.91,51.404,73.807,51.411,73.686z M53.624,68.015
		c-0.008,1.028,0.177,1.783,0.551,2.263c0.375,0.48,0.839,0.723,1.394,0.727c0.594,0.004,1.099-0.236,1.512-0.725
		c0.413-0.486,0.622-1.211,0.629-2.172c0.008-1.004-0.184-1.75-0.572-2.24c-0.389-0.489-0.884-0.736-1.483-0.74
		c-0.583-0.004-1.065,0.231-1.447,0.706C53.825,66.309,53.631,67.035,53.624,68.015z"/>
	<path fill="#FFFFFF" d="M67.817,70.077l2.421,0.446c-0.318,0.936-0.815,1.645-1.491,2.13s-1.519,0.724-2.528,0.718
		c-1.599-0.012-2.778-0.571-3.539-1.678c-0.6-0.887-0.895-2.002-0.885-3.348c0.011-1.605,0.418-2.861,1.221-3.766
		c0.803-0.903,1.813-1.352,3.031-1.342c1.368,0.01,2.444,0.492,3.228,1.451c0.785,0.957,1.152,2.419,1.104,4.384l-6.096-0.043
		c0.013,0.761,0.204,1.354,0.576,1.779s0.839,0.64,1.398,0.644c0.381,0.003,0.702-0.104,0.964-0.321
		C67.482,70.915,67.681,70.563,67.817,70.077z M67.974,67.486c-0.012-0.742-0.189-1.309-0.533-1.697s-0.764-0.584-1.26-0.588
		c-0.531-0.004-0.972,0.197-1.32,0.602c-0.35,0.406-0.523,0.959-0.522,1.658L67.974,67.486z"/>
</g>
<ellipse fill="#173E49" cx="35.353" cy="28.57" rx="7.301" ry="4.381"/>
<linearGradient id="11_node_storage_SVGID_2_" gradientUnits="userSpaceOnUse" x1="28.0718" y1="73.7363" x2="42.6738" y2="73.7363" gradientTransform="matrix(1 0 0 -1 -0.02 99.0947)">
	<stop  offset="0" style="stop-color:#314F5C"/>
	<stop  offset="0.5172" style="stop-color:#57798B"/>
	<stop  offset="1" style="stop-color:#314F5C"/>
</linearGradient>
<ellipse fill="url(#11_node_storage_SVGID_2_)" cx="35.353" cy="25.358" rx="7.301" ry="4.381"/>
<ellipse fill="#173E49" cx="27.759" cy="37.916" rx="7.302" ry="4.381"/>
<linearGradient id="11_node_storage_SVGID_3_" gradientUnits="userSpaceOnUse" x1="20.4771" y1="64.3916" x2="35.0811" y2="64.3916" gradientTransform="matrix(1 0 0 -1 -0.02 99.0947)">
	<stop  offset="0" style="stop-color:#314F5C"/>
	<stop  offset="0.5172" style="stop-color:#57798B"/>
	<stop  offset="1" style="stop-color:#314F5C"/>
</linearGradient>
<ellipse fill="url(#11_node_storage_SVGID_3_)" cx="27.759" cy="34.703" rx="7.302" ry="4.381"/>
<ellipse fill="#173E49" cx="19.874" cy="47.262" rx="7.301" ry="4.381"/>
<linearGradient id="11_node_storage_SVGID_4_" gradientUnits="userSpaceOnUse" x1="12.5933" y1="55.0449" x2="27.1948" y2="55.0449" gradientTransform="matrix(1 0 0 -1 -0.02 99.0947)">
	<stop  offset="0" style="stop-color:#314F5C"/>
	<stop  offset="0.5172" style="stop-color:#57798B"/>
	<stop  offset="1" style="stop-color:#314F5C"/>
</linearGradient>
<ellipse fill="url(#11_node_storage_SVGID_4_)" cx="19.874" cy="44.049" rx="7.301" ry="4.381"/>
<polygon fill="#314F5C" points="51.999,27.11 55.796,27.11 52.29,34.412 48.494,34.121 "/>
<polygon fill="#314F5C" points="58.277,27.11 62.075,27.11 58.57,34.412 54.773,34.121 "/>
<polygon fill="#314F5C" points="64.559,27.11 68.354,27.11 64.85,34.412 61.052,34.121 "/>
<polygon fill="#314F5C" points="70.837,27.11 74.634,27.11 71.128,34.412 67.331,34.121 "/>
<polygon fill="#314F5C" points="77.115,27.11 80.912,27.11 77.408,34.412 73.609,34.121 "/>
<polygon fill="#314F5C" points="43.811,38.283 47.91,38.283 44.126,45.51 40.025,45.221 "/>
<polygon fill="#314F5C" points="50.173,38.308 54.007,38.308 50.468,45.51 46.634,45.222 "/>
<polygon fill="#314F5C" points="56.525,38.209 60.322,38.209 56.818,45.51 53.021,45.217 "/>
<polygon fill="#314F5C" points="62.878,38.209 66.675,38.209 63.171,45.51 59.374,45.217 "/>
<polygon fill="#314F5C" points="69.229,38.209 73.027,38.209 69.521,45.51 65.727,45.217 "/>
</svg>
