<?xml version="1.0" encoding="utf-8"?>
<!-- Generator: Adobe Illustrator 16.0.0, SVG Export Plug-In . SVG Version: 6.00 Build 0)  -->
<!DOCTYPE svg PUBLIC "-//W3C//DTD SVG 1.1//EN" "http://www.w3.org/Graphics/SVG/1.1/DTD/svg11.dtd">
<svg version="1.1" id="图层_1" xmlns="http://www.w3.org/2000/svg" xmlns:xlink="http://www.w3.org/1999/xlink" x="0px" y="0px"
	 width="100px" height="100px" viewBox="0 0 100 100" enable-background="new 0 0 100 100" xml:space="preserve">
<g>
	<linearGradient id="12_node_cisco_storage_route_SVGID_1_" gradientUnits="userSpaceOnUse" x1="0.1465" y1="67.1689" x2="99.8203" y2="67.1689">
		<stop  offset="0" style="stop-color:#314F5C"/>
		<stop  offset="0.5172" style="stop-color:#547482"/>
		<stop  offset="1" style="stop-color:#314F5C"/>
	</linearGradient>
	<polygon fill="url(#12_node_cisco_storage_route_SVGID_1_)" points="99.82,67.169 99.755,68.059 99.559,68.913 99.262,69.768 98.832,70.591 98.27,71.414 
		97.578,72.234 96.818,73.021 95.895,73.781 94.906,74.537 93.814,75.26 92.598,75.982 91.309,76.676 89.923,77.333 88.438,77.99 
		86.887,78.616 85.239,79.208 83.489,79.768 81.674,80.294 79.795,80.787 77.848,81.281 75.835,81.708 73.723,82.137 71.578,82.496 
		69.367,82.857 67.125,83.154 64.813,83.419 62.438,83.648 60.029,83.846 57.557,83.979 55.081,84.076 52.541,84.175 49.967,84.175 
		47.426,84.175 44.887,84.076 42.411,83.979 39.938,83.846 37.528,83.648 35.153,83.419 32.844,83.154 30.6,82.857 28.389,82.496 
		26.244,82.137 24.133,81.708 22.121,81.281 20.173,80.787 18.292,80.294 16.479,79.768 14.73,79.208 13.079,78.616 11.529,77.99 
		10.044,77.333 8.658,76.676 7.339,75.982 6.15,75.26 5.063,74.537 4.073,73.781 3.148,73.021 2.391,72.234 1.697,71.414 
		1.137,70.591 0.707,69.768 0.41,68.913 0.212,68.059 0.146,67.169 0.212,66.281 0.41,65.426 0.707,64.57 1.137,63.747 
		1.697,62.925 2.391,62.104 3.148,61.314 4.073,60.559 5.063,59.802 6.15,59.078 7.339,58.354 8.658,57.662 10.044,57.005 
		11.529,56.348 13.079,55.723 14.73,55.131 16.479,54.57 18.292,54.045 20.173,53.551 22.121,53.059 24.133,52.63 26.244,52.203 
		28.389,51.841 30.6,51.479 32.844,51.184 35.153,50.919 37.528,50.688 39.938,50.492 42.411,50.359 44.887,50.229 47.426,50.163 
		49.967,50.163 52.541,50.163 55.081,50.229 57.557,50.359 60.029,50.492 62.438,50.688 64.813,50.919 67.125,51.184 69.367,51.479 
		71.578,51.841 73.723,52.203 75.835,52.63 77.848,53.059 79.795,53.551 81.674,54.045 83.489,54.57 85.239,55.131 86.887,55.723 
		88.438,56.348 89.923,57.005 91.309,57.662 92.598,58.354 93.814,59.078 94.906,59.802 95.895,60.559 96.818,61.314 97.578,62.104 
		98.27,62.925 98.832,63.747 99.262,64.57 99.559,65.426 99.755,66.281 	"/>
	<linearGradient id="12_node_cisco_storage_route_SVGID_2_" gradientUnits="userSpaceOnUse" x1="0.1465" y1="55.4746" x2="99.8535" y2="55.4746">
		<stop  offset="0" style="stop-color:#314F5C"/>
		<stop  offset="0.5172" style="stop-color:#547482"/>
		<stop  offset="1" style="stop-color:#314F5C"/>
	</linearGradient>
	<polygon fill="url(#12_node_cisco_storage_route_SVGID_2_)" points="0.146,43.32 0.146,67.63 99.82,67.63 99.854,43.32 	"/>
	<polygon fill="#608293" points="99.82,42.861 99.755,43.75 99.559,44.604 99.262,45.459 98.832,46.281 98.27,47.104 97.578,47.926 
		96.818,48.716 95.895,49.473 94.906,50.229 93.814,50.984 92.598,51.676 91.309,52.367 89.923,53.023 88.438,53.684 86.887,54.309 
		85.239,54.898 83.489,55.459 81.674,55.984 79.795,56.512 77.848,56.973 75.835,57.398 73.723,57.827 71.578,58.189 69.367,58.551 
		67.125,58.848 64.813,59.111 62.438,59.341 60.029,59.538 57.557,59.67 55.081,59.802 52.541,59.867 49.967,59.867 47.426,59.867 
		44.887,59.802 42.411,59.67 39.938,59.538 37.528,59.341 35.153,59.111 32.844,58.848 30.6,58.551 28.389,58.189 26.244,57.827 
		24.133,57.398 22.121,56.973 20.173,56.512 18.292,55.984 16.479,55.459 14.73,54.898 13.079,54.309 11.529,53.684 10.044,53.023 
		8.658,52.367 7.339,51.676 6.15,50.984 5.063,50.229 4.073,49.473 3.148,48.716 2.391,47.926 1.697,47.104 1.137,46.281 
		0.707,45.459 0.41,44.604 0.212,43.75 0.146,42.861 0.212,41.973 0.41,41.117 0.707,40.261 1.137,39.439 1.697,38.617 
		2.391,37.795 3.148,37.006 4.073,36.25 5.063,35.492 6.15,34.736 7.339,34.045 8.658,33.355 10.044,32.695 11.529,32.039 
		13.079,31.415 14.73,30.822 16.479,30.264 18.292,29.736 20.173,29.243 22.121,28.749 24.133,28.322 26.244,27.895 28.389,27.532 
		30.6,27.171 32.844,26.875 35.153,26.611 37.528,26.381 39.938,26.184 42.411,26.052 44.887,25.92 47.426,25.854 49.967,25.854 
		52.541,25.854 55.081,25.92 57.557,26.052 60.029,26.184 62.438,26.381 64.813,26.611 67.125,26.875 69.367,27.171 71.578,27.532 
		73.723,27.895 75.835,28.322 77.848,28.749 79.795,29.243 81.674,29.736 83.489,30.264 85.239,30.822 86.887,31.415 88.438,32.039 
		89.923,32.695 91.309,33.355 92.598,34.045 93.814,34.736 94.906,35.492 95.895,36.25 96.818,37.006 97.578,37.795 98.27,38.617 
		98.832,39.439 99.262,40.261 99.559,41.117 99.755,41.973 	"/>
	<polygon fill="#EDEDED" points="51.881,39.702 59.205,42.139 76.594,35.229 84.676,37.203 80.42,31.084 59.503,31.084 
		68.245,33.223 	"/>
	<polygon fill="#EDEDED" points="48.846,46.743 41.487,44.309 24.133,51.184 16.049,49.242 20.307,55.359 41.225,55.359 
		32.48,53.223 	"/>
	<polygon fill="#EDEDED" points="17.831,33.223 25.155,30.789 42.51,37.664 50.628,35.723 46.338,41.841 25.453,41.841 
		34.163,39.702 	"/>
	<polygon fill="#EDEDED" points="83.621,53.684 76.264,56.116 58.908,49.209 50.792,51.184 55.081,45.064 76,45.064 67.256,47.203 	
		"/>
	<polygon fill="#EDEDED" points="50,80.984 50.462,80.984 50.924,80.952 51.352,80.952 51.814,80.919 52.243,80.887 52.672,80.854 
		53.102,80.82 53.531,80.754 53.928,80.688 54.322,80.622 54.684,80.59 55.049,80.491 55.411,80.426 55.742,80.359 56.071,80.262 
		56.4,80.162 56.698,80.064 56.994,79.965 57.26,79.866 57.489,79.768 57.721,79.637 57.951,79.538 58.15,79.404 58.348,79.307 
		58.514,79.175 58.645,79.044 58.775,78.912 58.876,78.779 58.941,78.648 59.01,78.518 59.041,78.387 59.041,78.221 59.041,78.09 
		59.01,77.958 58.941,77.793 58.876,77.662 58.775,77.531 58.645,77.432 58.514,77.301 58.348,77.169 58.15,77.037 57.951,76.906 
		57.721,76.809 57.489,76.709 57.26,76.577 56.994,76.479 56.698,76.379 56.4,76.279 56.071,76.215 55.742,76.116 55.411,76.018 
		55.049,75.95 54.684,75.885 54.322,75.818 53.928,75.754 53.531,75.688 53.102,75.654 52.672,75.622 52.243,75.589 51.814,75.557 
		51.352,75.523 50.924,75.49 50.462,75.49 50,75.49 49.538,75.49 49.077,75.49 48.614,75.523 48.153,75.557 47.725,75.589 
		47.295,75.622 46.866,75.654 46.471,75.688 46.074,75.754 45.678,75.818 45.282,75.885 44.919,75.95 44.557,76.018 44.225,76.116 
		43.896,76.215 43.566,76.279 43.268,76.379 43.005,76.479 42.741,76.577 42.477,76.709 42.246,76.809 42.016,76.906 41.816,77.037 
		41.653,77.169 41.487,77.301 41.323,77.432 41.225,77.531 41.125,77.662 41.027,77.793 40.959,77.958 40.928,78.09 40.928,78.221 
		40.928,78.387 40.959,78.518 41.027,78.648 41.125,78.779 41.225,78.912 41.323,79.044 41.487,79.175 41.653,79.307 41.816,79.404 
		42.016,79.538 42.246,79.637 42.477,79.768 42.741,79.866 43.005,79.965 43.268,80.064 43.566,80.162 43.896,80.262 44.225,80.359 
		44.557,80.426 44.919,80.491 45.282,80.59 45.678,80.622 46.074,80.688 46.471,80.754 46.866,80.82 47.295,80.854 47.725,80.887 
		48.153,80.919 48.614,80.952 49.077,80.952 49.538,80.984 	"/>
	<polygon fill="#608293" points="58.743,78.221 58.743,78.221 58.743,78.286 58.743,78.318 58.743,78.352 58.71,78.418 
		58.71,78.452 58.678,78.518 58.645,78.551 58.611,78.616 58.578,78.684 58.546,78.715 58.48,78.779 58.447,78.813 58.381,78.879 
		58.314,78.943 58.248,78.979 58.15,79.044 58.084,79.109 57.982,79.175 57.918,79.208 57.819,79.273 57.622,79.373 57.393,79.471 
		57.128,79.604 56.862,79.702 56.6,79.801 56.303,79.866 56.006,79.965 55.676,80.064 55.346,80.129 54.982,80.193 54.619,80.262 
		54.256,80.359 53.859,80.393 53.465,80.458 53.068,80.491 52.639,80.557 52.243,80.59 51.781,80.622 51.352,80.622 50.891,80.654 
		50.462,80.654 50,80.654 50,81.281 50.462,81.281 50.924,81.248 51.387,81.248 51.848,81.216 52.275,81.184 52.705,81.148 
		53.135,81.116 53.564,81.051 53.959,81.02 54.355,80.952 54.751,80.887 55.114,80.787 55.477,80.723 55.842,80.622 56.17,80.557 
		56.467,80.458 56.797,80.359 57.094,80.262 57.357,80.162 57.622,80.031 57.885,79.934 58.117,79.801 58.215,79.734 58.314,79.669 
		58.414,79.604 58.514,79.538 58.611,79.471 58.71,79.404 58.775,79.34 58.842,79.273 58.941,79.175 59.01,79.109 59.073,79.044 
		59.105,78.943 59.173,78.879 59.205,78.779 59.271,78.715 59.307,78.616 59.307,78.518 59.338,78.418 59.338,78.318 59.371,78.221 
		59.371,78.221 	"/>
	<polygon fill="#608293" points="50,75.786 50,75.786 50.462,75.786 50.891,75.818 51.352,75.818 51.781,75.852 52.243,75.885 
		52.639,75.918 53.068,75.95 53.465,76.018 53.859,76.051 54.256,76.116 54.619,76.182 54.982,76.247 55.346,76.313 55.676,76.412 
		56.006,76.512 56.303,76.577 56.6,76.676 56.862,76.773 57.128,76.873 57.393,76.973 57.622,77.07 57.819,77.201 57.918,77.234 
		57.982,77.301 58.084,77.366 58.15,77.398 58.248,77.465 58.314,77.531 58.381,77.563 58.447,77.629 58.48,77.693 58.546,77.729 
		58.578,77.793 58.611,77.859 58.645,77.893 58.678,77.958 58.71,77.99 58.71,78.057 58.743,78.09 58.743,78.122 58.743,78.188 
		58.743,78.221 59.371,78.221 59.338,78.122 59.338,78.057 59.307,77.958 59.307,77.859 59.271,77.762 59.205,77.662 59.173,77.598 
		59.105,77.497 59.073,77.432 59.01,77.333 58.941,77.268 58.842,77.201 58.775,77.137 58.71,77.037 58.611,76.973 58.514,76.906 
		58.414,76.841 58.314,76.773 58.215,76.709 58.117,76.643 57.885,76.544 57.622,76.412 57.357,76.313 57.094,76.215 56.797,76.116 
		56.467,76.018 56.17,75.918 55.842,75.818 55.477,75.754 55.114,75.654 54.751,75.589 54.355,75.523 53.959,75.457 53.564,75.393 
		53.135,75.359 52.705,75.326 52.275,75.26 51.848,75.229 51.387,75.229 50.924,75.193 50.462,75.193 50,75.193 50,75.193 	"/>
	<polygon fill="#608293" points="41.225,78.221 41.225,78.221 41.225,78.188 41.225,78.122 41.258,78.09 41.258,78.057 
		41.289,77.99 41.289,77.958 41.323,77.893 41.355,77.859 41.389,77.793 41.454,77.729 41.487,77.693 41.553,77.629 41.619,77.563 
		41.686,77.531 41.751,77.465 41.816,77.398 41.885,77.366 41.982,77.301 42.082,77.234 42.182,77.201 42.378,77.07 42.609,76.973 
		42.842,76.873 43.104,76.773 43.367,76.676 43.666,76.577 43.962,76.512 44.292,76.412 44.622,76.313 44.984,76.247 45.348,76.182 
		45.711,76.116 46.107,76.051 46.503,76.018 46.898,75.95 47.328,75.918 47.758,75.885 48.186,75.852 48.614,75.818 49.077,75.818 
		49.538,75.786 50,75.786 50,75.193 49.506,75.193 49.044,75.193 48.581,75.229 48.153,75.229 47.689,75.26 47.262,75.326 
		46.832,75.359 46.436,75.393 46.008,75.457 45.612,75.523 45.248,75.589 44.854,75.654 44.492,75.754 44.16,75.818 43.83,75.918 
		43.5,76.018 43.203,76.116 42.907,76.215 42.609,76.313 42.346,76.412 42.115,76.544 41.885,76.643 41.751,76.709 41.653,76.773 
		41.553,76.841 41.454,76.906 41.355,76.973 41.289,77.037 41.191,77.137 41.125,77.201 41.059,77.268 40.993,77.333 40.928,77.432 
		40.861,77.497 40.795,77.598 40.762,77.662 40.729,77.762 40.696,77.859 40.663,77.958 40.629,78.057 40.629,78.122 40.629,78.221 
		40.629,78.221 	"/>
	<polygon fill="#608293" points="50,80.654 50,80.654 49.538,80.654 49.077,80.654 48.614,80.622 48.186,80.622 47.758,80.59 
		47.328,80.557 46.898,80.491 46.503,80.458 46.107,80.393 45.711,80.359 45.348,80.262 44.984,80.193 44.622,80.129 44.292,80.064 
		43.962,79.965 43.666,79.866 43.367,79.801 43.104,79.702 42.842,79.604 42.609,79.471 42.378,79.373 42.182,79.273 42.082,79.208 
		41.982,79.175 41.885,79.109 41.816,79.044 41.751,78.979 41.686,78.943 41.619,78.879 41.553,78.813 41.487,78.779 41.454,78.715 
		41.389,78.684 41.355,78.616 41.323,78.551 41.289,78.518 41.289,78.452 41.258,78.418 41.258,78.352 41.225,78.318 41.225,78.286 
		41.225,78.221 40.629,78.221 40.629,78.318 40.629,78.418 40.663,78.518 40.696,78.616 40.729,78.684 40.762,78.779 40.795,78.879 
		40.861,78.943 40.928,79.044 40.993,79.109 41.059,79.175 41.125,79.273 41.191,79.34 41.289,79.404 41.355,79.471 41.454,79.538 
		41.553,79.604 41.653,79.669 41.751,79.734 41.885,79.801 42.115,79.934 42.346,80.031 42.609,80.162 42.907,80.262 43.203,80.359 
		43.5,80.458 43.83,80.557 44.16,80.622 44.492,80.723 44.854,80.787 45.248,80.887 45.612,80.952 46.008,81.02 46.436,81.051 
		46.832,81.116 47.262,81.148 47.689,81.184 48.153,81.216 48.581,81.248 49.044,81.248 49.506,81.281 50,81.281 50,81.281 	"/>
	<polygon fill="#EDEDED" points="59.041,65.559 59.041,65.688 59.01,65.818 58.941,65.951 58.876,66.115 58.775,66.248 
		58.645,66.38 58.514,66.479 58.348,66.609 58.15,66.741 57.951,66.84 57.721,66.971 57.489,67.07 57.26,67.201 56.994,67.301 
		56.698,67.4 56.4,67.498 56.071,67.564 55.742,67.662 55.411,67.762 55.049,67.827 54.684,67.893 54.322,67.959 53.928,68.023 
		53.531,68.059 53.102,68.123 52.672,68.154 52.243,68.188 51.814,68.223 51.352,68.255 50.924,68.287 50.462,68.287 50,68.287 
		49.538,68.287 49.077,68.287 48.614,68.255 48.153,68.223 47.725,68.188 47.295,68.154 46.866,68.123 46.471,68.059 46.074,68.023 
		45.678,67.959 45.282,67.893 44.919,67.827 44.557,67.762 44.225,67.662 43.896,67.564 43.566,67.498 43.268,67.4 43.005,67.301 
		42.741,67.201 42.477,67.07 42.246,66.971 42.016,66.84 41.816,66.741 41.653,66.609 41.487,66.479 41.323,66.38 41.225,66.248 
		41.125,66.115 41.027,65.951 40.959,65.818 40.928,65.688 40.928,65.559 40.928,76.873 40.928,77.037 40.959,77.169 41.027,77.301 
		41.125,77.432 41.225,77.563 41.323,77.693 41.487,77.826 41.653,77.958 41.816,78.057 42.016,78.188 42.246,78.318 42.477,78.418 
		42.741,78.518 43.005,78.616 43.268,78.715 43.566,78.813 43.896,78.912 44.225,79.012 44.557,79.076 44.919,79.143 45.282,79.241 
		45.678,79.307 46.074,79.34 46.471,79.404 46.866,79.471 47.295,79.505 47.725,79.538 48.153,79.57 48.614,79.604 49.077,79.604 
		49.538,79.604 50,79.637 50.462,79.604 50.924,79.604 51.352,79.604 51.814,79.57 52.243,79.538 52.672,79.505 53.102,79.471 
		53.531,79.404 53.928,79.34 54.322,79.307 54.684,79.241 55.049,79.143 55.411,79.076 55.742,79.012 56.071,78.912 56.4,78.813 
		56.698,78.715 56.994,78.616 57.26,78.518 57.489,78.418 57.721,78.318 57.951,78.188 58.15,78.057 58.348,77.958 58.514,77.826 
		58.645,77.693 58.775,77.563 58.876,77.432 58.941,77.301 59.01,77.169 59.041,77.037 59.041,76.873 	"/>
	<polygon fill="#8DCBF0" points="50,68.583 50,68.583 50.462,68.583 50.924,68.583 51.387,68.551 51.848,68.551 52.275,68.518 
		52.705,68.451 53.135,68.419 53.564,68.386 53.959,68.32 54.355,68.255 54.751,68.188 55.114,68.123 55.477,68.059 55.842,67.959 
		56.17,67.859 56.467,67.794 56.797,67.695 57.094,67.564 57.357,67.466 57.622,67.367 57.885,67.234 58.117,67.136 58.215,67.07 
		58.314,67.005 58.414,66.938 58.514,66.873 58.611,66.807 58.71,66.741 58.775,66.643 58.842,66.577 58.941,66.512 59.01,66.412 
		59.073,66.348 59.105,66.281 59.173,66.182 59.205,66.115 59.271,66.018 59.307,65.919 59.307,65.818 59.338,65.754 59.338,65.654 
		59.371,65.559 58.743,65.559 58.743,65.59 58.743,65.623 58.743,65.688 58.71,65.723 58.71,65.787 58.678,65.818 58.645,65.886 
		58.611,65.919 58.578,65.984 58.546,66.05 58.48,66.083 58.447,66.148 58.381,66.216 58.314,66.248 58.248,66.313 58.15,66.38 
		58.084,66.412 57.982,66.479 57.918,66.544 57.819,66.577 57.622,66.709 57.393,66.807 57.128,66.904 56.862,67.005 56.6,67.104 
		56.303,67.201 56.006,67.301 55.676,67.367 55.346,67.434 54.982,67.531 54.619,67.598 54.256,67.662 53.859,67.729 53.465,67.762 
		53.068,67.827 52.639,67.859 52.243,67.893 51.781,67.926 51.352,67.959 50.891,67.959 50.462,67.991 50,67.991 50,67.991 	"/>
	<polygon fill="#8DCBF0" points="41.225,65.559 40.629,65.559 40.629,65.654 40.629,65.754 40.663,65.818 40.696,65.919 
		40.729,66.018 40.762,66.115 40.795,66.182 40.861,66.281 40.928,66.348 40.993,66.412 41.059,66.512 41.125,66.577 41.191,66.643 
		41.289,66.741 41.355,66.807 41.454,66.873 41.553,66.938 41.653,67.005 41.751,67.07 41.885,67.136 42.115,67.234 42.346,67.367 
		42.609,67.466 42.907,67.564 43.203,67.695 43.5,67.794 43.83,67.859 44.16,67.959 44.492,68.059 44.854,68.123 45.248,68.188 
		45.612,68.255 46.008,68.32 46.436,68.386 46.832,68.419 47.262,68.451 47.689,68.518 48.153,68.551 48.581,68.551 49.044,68.583 
		49.506,68.583 50,68.583 50,67.991 49.538,67.991 49.077,67.959 48.614,67.959 48.186,67.926 47.758,67.893 47.328,67.859 
		46.898,67.827 46.503,67.762 46.107,67.729 45.711,67.662 45.348,67.598 44.984,67.531 44.622,67.434 44.292,67.367 43.962,67.301 
		43.666,67.201 43.367,67.104 43.104,67.005 42.842,66.904 42.609,66.807 42.378,66.709 42.182,66.577 42.082,66.544 41.982,66.479 
		41.885,66.412 41.816,66.38 41.751,66.313 41.686,66.248 41.619,66.216 41.553,66.148 41.487,66.083 41.454,66.05 41.389,65.984 
		41.355,65.919 41.323,65.886 41.289,65.818 41.289,65.787 41.258,65.723 41.258,65.688 41.225,65.623 41.225,65.59 41.225,65.559 
		40.629,65.559 41.225,65.559 40.928,65.559 40.629,65.559 	"/>
	<polygon fill="#608293" points="40.629,76.873 41.225,76.873 41.225,65.559 40.629,65.559 40.629,76.873 40.629,76.873 
		41.225,76.873 41.225,76.873 41.225,76.873 	"/>
	<polygon fill="#608293" points="50,79.307 50,79.307 49.538,79.307 49.077,79.307 48.614,79.307 48.186,79.273 47.758,79.241 
		47.328,79.208 46.898,79.143 46.503,79.109 46.107,79.044 45.711,78.979 45.348,78.943 44.984,78.848 44.622,78.779 44.292,78.715 
		43.962,78.616 43.666,78.518 43.367,78.452 43.104,78.352 42.842,78.254 42.609,78.154 42.378,78.023 42.182,77.925 42.082,77.859 
		41.982,77.826 41.885,77.762 41.816,77.693 41.751,77.662 41.686,77.598 41.619,77.531 41.553,77.497 41.487,77.432 41.454,77.366 
		41.389,77.333 41.355,77.268 41.323,77.201 41.289,77.169 41.289,77.104 41.258,77.07 41.258,77.037 41.225,76.973 41.225,76.938 
		41.225,76.873 40.629,76.873 40.629,76.973 40.629,77.07 40.663,77.169 40.696,77.268 40.729,77.333 40.762,77.432 40.795,77.531 
		40.861,77.598 40.928,77.693 40.993,77.762 41.059,77.826 41.125,77.925 41.191,77.99 41.289,78.057 41.355,78.122 41.454,78.188 
		41.553,78.254 41.653,78.318 41.751,78.387 41.885,78.452 42.115,78.583 42.346,78.684 42.609,78.813 42.907,78.912 43.203,79.012 
		43.5,79.109 43.83,79.208 44.16,79.307 44.492,79.373 44.854,79.471 45.248,79.538 45.612,79.604 46.008,79.669 46.436,79.702 
		46.832,79.768 47.262,79.801 47.689,79.833 48.153,79.866 48.581,79.898 49.044,79.898 49.506,79.934 50,79.934 50,79.934 	"/>
	<polygon fill="#608293" points="58.743,76.873 58.743,76.873 58.743,76.938 58.743,76.973 58.743,77.037 58.71,77.07 58.71,77.104 
		58.678,77.169 58.645,77.201 58.611,77.268 58.578,77.333 58.546,77.366 58.48,77.432 58.447,77.497 58.381,77.531 58.314,77.598 
		58.248,77.662 58.15,77.693 58.084,77.762 57.982,77.826 57.918,77.859 57.819,77.925 57.622,78.023 57.393,78.154 57.128,78.254 
		56.862,78.352 56.6,78.452 56.303,78.518 56.006,78.616 55.676,78.715 55.346,78.779 54.982,78.848 54.619,78.943 54.256,78.979 
		53.859,79.044 53.465,79.109 53.068,79.143 52.639,79.208 52.243,79.241 51.781,79.273 51.352,79.307 50.891,79.307 50.462,79.307 
		50,79.307 50,79.934 50.462,79.934 50.924,79.898 51.387,79.898 51.848,79.866 52.275,79.833 52.705,79.801 53.135,79.768 
		53.564,79.702 53.959,79.669 54.355,79.604 54.751,79.538 55.114,79.471 55.477,79.373 55.842,79.307 56.17,79.208 56.467,79.109 
		56.797,79.012 57.094,78.912 57.357,78.813 57.622,78.684 57.885,78.583 58.117,78.452 58.215,78.387 58.314,78.318 58.414,78.254 
		58.514,78.188 58.611,78.122 58.71,78.057 58.775,77.99 58.842,77.925 58.941,77.826 59.01,77.762 59.073,77.693 59.105,77.598 
		59.173,77.531 59.205,77.432 59.271,77.366 59.307,77.268 59.307,77.169 59.338,77.07 59.338,76.973 59.371,76.873 59.371,76.873 	
		"/>
	<polygon fill="#608293" points="58.743,65.559 58.743,65.559 58.743,76.873 59.371,76.873 59.371,65.559 58.743,65.559 
		59.371,65.559 59.041,65.559 	"/>
	<polygon fill="#EDEDED" points="49.967,68.287 50.43,68.287 50.891,68.287 51.352,68.255 51.814,68.223 52.243,68.188 
		52.672,68.154 53.102,68.123 53.498,68.059 53.893,68.023 54.289,67.959 54.684,67.893 55.049,67.827 55.411,67.762 55.742,67.662 
		56.071,67.564 56.368,67.498 56.698,67.4 56.961,67.301 57.227,67.201 57.489,67.07 57.721,66.971 57.951,66.84 58.15,66.741 
		58.314,66.609 58.48,66.479 58.645,66.38 58.743,66.248 58.842,66.115 58.941,65.951 58.975,65.818 59.041,65.688 59.041,65.559 
		59.041,65.393 58.975,65.261 58.941,65.129 58.842,64.998 58.743,64.867 58.645,64.734 58.48,64.604 58.314,64.473 58.15,64.373 
		57.951,64.242 57.721,64.109 57.489,64.011 57.227,63.912 56.961,63.813 56.698,63.714 56.368,63.615 56.071,63.518 55.742,63.418 
		55.411,63.354 55.049,63.286 54.684,63.188 54.289,63.122 53.893,63.09 53.498,63.023 53.102,62.958 52.672,62.925 52.243,62.893 
		51.814,62.859 51.352,62.826 50.891,62.826 50.43,62.794 49.967,62.794 49.506,62.794 49.044,62.826 48.581,62.826 48.153,62.859 
		47.725,62.893 47.295,62.925 46.866,62.958 46.436,63.023 46.041,63.09 45.645,63.122 45.282,63.188 44.919,63.286 44.557,63.354 
		44.225,63.418 43.896,63.518 43.566,63.615 43.268,63.714 42.973,63.813 42.708,63.912 42.444,64.011 42.213,64.109 42.016,64.242 
		41.816,64.373 41.619,64.473 41.454,64.604 41.323,64.734 41.191,64.867 41.092,64.998 41.027,65.129 40.959,65.261 40.928,65.393 
		40.928,65.559 40.928,65.688 40.959,65.818 41.027,65.951 41.092,66.115 41.191,66.248 41.323,66.38 41.454,66.479 41.619,66.609 
		41.816,66.741 42.016,66.84 42.213,66.971 42.444,67.07 42.708,67.201 42.973,67.301 43.268,67.4 43.566,67.498 43.896,67.564 
		44.225,67.662 44.557,67.762 44.919,67.827 45.282,67.893 45.645,67.959 46.041,68.023 46.436,68.059 46.866,68.123 47.295,68.154 
		47.725,68.188 48.153,68.223 48.581,68.255 49.044,68.287 49.506,68.287 	"/>
	<polygon fill="#608293" points="58.743,65.559 58.743,65.559 58.743,65.59 58.743,65.623 58.71,65.688 58.71,65.723 58.678,65.787 
		58.678,65.818 58.645,65.886 58.611,65.919 58.578,65.984 58.514,66.05 58.48,66.083 58.414,66.148 58.348,66.216 58.281,66.248 
		58.215,66.313 58.15,66.38 58.084,66.412 57.982,66.479 57.885,66.544 57.786,66.577 57.589,66.709 57.357,66.807 57.128,66.904 
		56.862,67.005 56.6,67.104 56.303,67.201 55.973,67.301 55.676,67.367 55.346,67.434 54.982,67.531 54.619,67.598 54.256,67.662 
		53.859,67.729 53.465,67.762 53.068,67.827 52.639,67.859 52.211,67.893 51.781,67.926 51.352,67.959 50.891,67.959 50.43,67.991 
		49.967,67.991 49.967,68.583 50.462,68.583 50.924,68.583 51.352,68.551 51.814,68.551 52.275,68.518 52.705,68.451 53.135,68.419 
		53.531,68.386 53.959,68.32 54.355,68.255 54.719,68.188 55.114,68.123 55.477,68.059 55.807,67.959 56.137,67.859 56.467,67.794 
		56.764,67.695 57.061,67.564 57.357,67.466 57.622,67.367 57.852,67.234 58.084,67.136 58.215,67.07 58.314,67.005 58.414,66.938 
		58.514,66.873 58.611,66.807 58.678,66.741 58.775,66.643 58.842,66.577 58.908,66.512 58.975,66.412 59.041,66.348 59.105,66.281 
		59.173,66.182 59.205,66.115 59.238,66.018 59.271,65.919 59.307,65.818 59.338,65.754 59.338,65.654 59.338,65.559 59.338,65.559 
			"/>
	<polygon fill="#608293" points="49.967,63.122 49.967,63.122 50.43,63.122 50.891,63.122 51.352,63.154 51.781,63.154 
		52.211,63.188 52.639,63.221 53.068,63.286 53.465,63.318 53.859,63.386 54.256,63.451 54.619,63.482 54.982,63.583 55.346,63.648 
		55.676,63.714 55.973,63.813 56.303,63.912 56.6,63.979 56.862,64.076 57.128,64.175 57.357,64.309 57.589,64.406 57.786,64.505 
		57.982,64.604 58.15,64.734 58.215,64.768 58.281,64.834 58.348,64.898 58.414,64.965 58.48,64.998 58.514,65.063 58.578,65.129 
		58.611,65.162 58.645,65.229 58.678,65.261 58.678,65.327 58.71,65.359 58.71,65.426 58.743,65.458 58.743,65.491 58.743,65.559 
		59.338,65.559 59.338,65.458 59.338,65.359 59.307,65.261 59.271,65.162 59.238,65.098 59.205,64.998 59.173,64.898 59.105,64.834 
		59.041,64.734 58.975,64.669 58.908,64.604 58.842,64.505 58.775,64.438 58.678,64.373 58.611,64.309 58.514,64.242 58.314,64.109 
		58.084,63.979 57.852,63.848 57.622,63.747 57.357,63.615 57.061,63.518 56.764,63.418 56.467,63.318 56.137,63.221 55.807,63.122 
		55.477,63.057 55.114,62.991 54.719,62.893 54.355,62.826 53.959,62.794 53.531,62.729 53.135,62.662 52.705,62.629 52.275,62.596 
		51.814,62.563 51.352,62.529 50.924,62.529 50.462,62.498 49.967,62.498 49.967,62.498 	"/>
	<polygon fill="#608293" points="41.225,65.559 41.225,65.559 41.225,65.491 41.225,65.458 41.225,65.426 41.258,65.359 
		41.258,65.327 41.289,65.261 41.323,65.229 41.355,65.162 41.389,65.129 41.421,65.063 41.487,64.998 41.52,64.965 41.586,64.898 
		41.653,64.834 41.719,64.768 41.816,64.734 41.885,64.669 41.982,64.604 42.049,64.57 42.146,64.505 42.346,64.406 42.577,64.309 
		42.842,64.175 43.072,64.076 43.367,63.979 43.666,63.912 43.962,63.813 44.292,63.714 44.622,63.648 44.984,63.583 45.314,63.482 
		45.711,63.451 46.074,63.386 46.503,63.318 46.898,63.286 47.328,63.221 47.725,63.188 48.186,63.154 48.614,63.154 49.077,63.122 
		49.506,63.122 49.967,63.122 49.967,62.498 49.506,62.498 49.044,62.529 48.581,62.529 48.12,62.563 47.689,62.596 47.262,62.629 
		46.832,62.662 46.404,62.729 46.008,62.794 45.612,62.826 45.217,62.893 44.854,62.991 44.492,63.057 44.126,63.122 43.798,63.221 
		43.467,63.318 43.17,63.418 42.873,63.518 42.609,63.615 42.346,63.747 42.082,63.848 41.85,63.979 41.751,64.044 41.653,64.109 
		41.553,64.175 41.454,64.242 41.355,64.309 41.258,64.373 41.191,64.438 41.125,64.505 41.027,64.604 40.959,64.669 40.895,64.734 
		40.861,64.834 40.795,64.898 40.762,64.998 40.696,65.098 40.663,65.162 40.663,65.261 40.629,65.359 40.598,65.458 40.598,65.559 
		40.598,65.559 	"/>
	<polygon fill="#608293" points="49.967,67.991 49.967,67.991 49.506,67.991 49.077,67.959 48.614,67.959 48.186,67.926 
		47.725,67.893 47.328,67.859 46.898,67.827 46.503,67.762 46.074,67.729 45.711,67.662 45.314,67.598 44.984,67.531 44.622,67.434 
		44.292,67.367 43.962,67.301 43.666,67.201 43.367,67.104 43.072,67.005 42.842,66.904 42.577,66.807 42.346,66.709 42.146,66.577 
		42.049,66.544 41.982,66.479 41.885,66.412 41.816,66.38 41.719,66.313 41.653,66.248 41.586,66.216 41.52,66.148 41.487,66.083 
		41.421,66.05 41.389,65.984 41.355,65.919 41.323,65.886 41.289,65.818 41.258,65.787 41.258,65.723 41.225,65.688 41.225,65.623 
		41.225,65.59 41.225,65.559 40.598,65.559 40.598,65.654 40.629,65.754 40.663,65.818 40.663,65.919 40.696,66.018 40.762,66.115 
		40.795,66.182 40.861,66.281 40.895,66.348 40.959,66.412 41.027,66.512 41.125,66.577 41.191,66.643 41.258,66.741 41.355,66.807 
		41.454,66.873 41.553,66.938 41.653,67.005 41.751,67.07 41.85,67.136 42.082,67.234 42.346,67.367 42.609,67.466 42.873,67.564 
		43.17,67.695 43.467,67.794 43.798,67.859 44.126,67.959 44.492,68.059 44.854,68.123 45.217,68.188 45.612,68.255 46.008,68.32 
		46.404,68.386 46.832,68.419 47.262,68.451 47.689,68.518 48.12,68.551 48.581,68.551 49.044,68.583 49.506,68.583 49.967,68.583 
		49.967,68.583 	"/>
</g>
</svg>
