<?xml version="1.0" encoding="utf-8"?>
<!-- Generator: Adobe Illustrator 16.0.0, SVG Export Plug-In . SVG Version: 6.00 Build 0)  -->
<!DOCTYPE svg PUBLIC "-//W3C//DTD SVG 1.1//EN" "http://www.w3.org/Graphics/SVG/1.1/DTD/svg11.dtd">
<svg version="1.1" id="图层_1" xmlns="http://www.w3.org/2000/svg" xmlns:xlink="http://www.w3.org/1999/xlink" x="0px" y="0px"
	 width="100px" height="100px" viewBox="0 0 100 100" enable-background="new 0 0 100 100" xml:space="preserve">
<path fill="#173E49" d="M82.136,54.505L74.977,64.91H11.932L22.08,54.505H82.136"/>
<path fill="none" stroke="#173E49" stroke-width="0.5" d="M96.447,77.259c8.248-3.959,1.648-20.771-14.775-12.349"/>
<linearGradient id="15_node_sun_workstation_SVGID_1_" gradientUnits="userSpaceOnUse" x1="11.7817" y1="70.5762" x2="72.0947" y2="70.5762">
	<stop  offset="0" style="stop-color:#314F5C"/>
	<stop  offset="0.5172" style="stop-color:#57798B"/>
	<stop  offset="1" style="stop-color:#314F5C"/>
</linearGradient>
<path fill="url(#15_node_sun_workstation_SVGID_1_)" d="M11.782,64.91h60.313v11.333H11.782V64.91z"/>
<path fill="#204A59" d="M70.307,90.89v-3.656l7.895-10.924v6.686L70.307,90.89"/>
<linearGradient id="15_node_sun_workstation_SVGID_2_" gradientUnits="userSpaceOnUse" x1="0.6958" y1="89.0879" x2="70.3057" y2="89.0879">
	<stop  offset="0" style="stop-color:#314F5C"/>
	<stop  offset="0.5172" style="stop-color:#57798B"/>
	<stop  offset="1" style="stop-color:#314F5C"/>
</linearGradient>
<path fill="url(#15_node_sun_workstation_SVGID_2_)" d="M0.696,87.286h69.61v3.604H0.696V87.286z"/>
<linearGradient id="15_node_sun_workstation_SVGID_3_" gradientUnits="userSpaceOnUse" x1="11.4048" y1="39.6904" x2="71.6973" y2="39.6904">
	<stop  offset="0" style="stop-color:#314F5C"/>
	<stop  offset="0.5172" style="stop-color:#57798B"/>
	<stop  offset="1" style="stop-color:#314F5C"/>
</linearGradient>
<path fill="url(#15_node_sun_workstation_SVGID_3_)" d="M11.405,16.963h60.292v45.455H11.405V16.963z"/>
<path fill="#204A59" d="M71.697,62.418l10.287-10.286V6.677L71.697,16.966V62.418"/>
<path fill="#608293" d="M94.473,86.165l4.617-9.23H88.541l-4.615,9.23H94.473"/>
<linearGradient id="15_node_sun_workstation_SVGID_4_" gradientUnits="userSpaceOnUse" x1="83.9258" y1="87.6484" x2="94.4727" y2="87.6484">
	<stop  offset="0" style="stop-color:#314F5C"/>
	<stop  offset="0.5172" style="stop-color:#57798B"/>
	<stop  offset="1" style="stop-color:#314F5C"/>
</linearGradient>
<path fill="url(#15_node_sun_workstation_SVGID_4_)" d="M83.926,86.165h10.547v2.967H83.926V86.165z"/>
<path fill="#204A59" d="M94.387,89.218l0.033-3.053l4.619-9.23l-0.037,6.342L94.387,89.218"/>
<path fill="#608293" d="M70.307,87.286H0.923l7.893-10.979h69.386L70.307,87.286"/>
<path fill="#204A59" d="M72.053,76.277V64.91l10.225-10.405v11.549L72.053,76.277"/>
<path fill="#EDEDED" d="M21.412,22.206h40.29c2.619,0,4.744,2.125,4.744,4.747v25.451c0,2.616-2.125,4.756-4.744,4.756h-40.29
	c-2.621,0-4.757-2.133-4.757-4.756V26.952C16.655,24.329,18.791,22.206,21.412,22.206"/>
<path fill="#608293" d="M81.984,6.677H23.341L11.405,16.963h60.292L81.984,6.677"/>
</svg>
