<?xml version="1.0" encoding="utf-8"?>
<!-- Generator: Adobe Illustrator 15.0.0, SVG Export Plug-In . SVG Version: 6.00 Build 0)  -->
<!DOCTYPE svg PUBLIC "-//W3C//DTD SVG 1.1//EN" "http://www.w3.org/Graphics/SVG/1.1/DTD/svg11.dtd">
<svg version="1.1" id="图层_1" xmlns="http://www.w3.org/2000/svg" xmlns:xlink="http://www.w3.org/1999/xlink" x="0px" y="0px"
	 width="236.515px" height="180.667px" viewBox="0 0 236.515 180.667" enable-background="new 0 0 236.515 180.667"
	 xml:space="preserve">
<path fill-rule="evenodd" clip-rule="evenodd" fill="#505050" d="M106.98,15.231c-0.928,2.622-3.613,3.488-4.631,6.02
	c-1.904-1.337-4.318-2.165-7.873-1.852c-1.85-13.956-19.452-11.563-31.953-6.947C52.027,16.33,45.109,21.35,43.999,34.682
	c-0.358,4.301,0.819,8.929,0,12.967c-0.43,2.115-2.212,4.026-2.314,5.557c-0.451,6.683,5.357,10.397,9.262,13.893
	c2.771,4.947,6.343,9.093,9.725,13.43c4.002,31.144-39.123,22.094-48.162,39.363c-2.318,4.429-1.771,10.53-2.778,17.598
	c9.417,1.08,20.839,0.155,31.027,0.463c0,2.47,0,4.94,0,7.41c-12.967,0-25.934,0-38.9,0c0.731-19.991,1.098-31.233,12.967-38.437
	c10.483-6.362,28.098-6.221,35.658-14.819c1.31-1.489,2.983-5.365,2.778-7.41c-0.262-2.62-4.766-8.477-6.946-11.114
	c-4.854-5.873-12.655-10.706-12.503-20.376c0.038-2.447,1.907-4.856,2.315-7.409c0.42-2.632-0.121-5.451,0-7.873
	c0.465-9.349,3.14-20.11,8.799-25.007c8.684-7.515,48.388-21.067,55.108-0.926C102.679,12.741,105.004,13.812,106.98,15.231z"/>
<path fill-rule="evenodd" clip-rule="evenodd" fill="#3F3F3F" d="M181.076,87.011c10.291,16.817,40.345,11.532,50.478,28.712
	c4.063,6.889,2.726,17.796,3.241,29.638c-12.967,0-25.934,0-38.9,0c0-2.47,0-4.939,0-7.41c10.188,0,20.377,0,30.564,0
	c8.514-33.661-37.643-27.04-50.015-42.605c-1.845-2.321-3.975-7.456-3.241-11.114c1.328-6.624,10.901-9.066,12.041-17.134
	c5.774-2.61,13.28-12.831,6.946-18.987c1.884-10.527,4.479-30.491-10.188-28.712c-3.444-20.609-38.11-6.299-46.772,1.389
	c-1.594-1.494-3.845-2.33-5.558-3.705c8.658-13.095,47.87-25.055,57.888-5.094c9.839,1.155,13.893,12.669,13.893,23.618
	c0,3.121-1.251,6.519-0.927,9.725c0.385,3.798,2.168,6.31,1.853,9.725c-0.823,8.932-6.685,13.917-11.577,17.598
	C188.695,78.576,184.117,82.025,181.076,87.011z"/>
<path fill-rule="evenodd" clip-rule="evenodd" fill="#3F3F3F" d="M194.506,177.315c-51.558,0-103.117,0-154.674,0
	c1.09-19.971,0.319-32.093,13.429-40.289c9.701-6.065,41.666-9.465,41.679-23.618c0.004-3.569-4.74-8.562-7.409-12.041
	c-5.222-6.806-13.378-11.754-13.43-22.229c-0.014-2.753,1.925-5.81,2.315-8.799c0.884-6.756,0.291-13.013,1.853-18.987
	c1.45-5.55,3.177-10.9,6.483-14.356c10.381-10.849,52.831-22.652,59.739-1.852c10.137,1.792,13.674,11.128,14.356,21.302
	c0.307,4.575-1.385,9.401-0.927,14.356c0.328,3.542,2.473,6.187,2.315,9.262c-0.556,10.889-9.14,15.413-13.893,22.691
	c-2.115,3.239-9.405,9.906-9.262,12.967c0.343,7.344,19.752,11.875,28.248,14.818c10.079,3.493,22.386,8.387,26.396,16.672
	C195.317,154.629,194.306,164.665,194.506,177.315z M122.263,30.977c-8.545,0.27-27.162,5.836-32.417,12.041
	c-3.558,4.201-5.143,11.42-5.557,17.598c-0.266,3.955,0.795,8.423,0,12.504c-0.482,2.473-2.331,4.391-2.316,6.483
	c0.049,6.628,5.694,10.996,10.189,14.356c1.654,6.655,8.832,8.954,10.188,14.818c1.172,5.07-0.814,10.75-2.315,13.43
	c-6.982,12.469-28.41,12.936-41.679,20.376c-8.735,4.898-9.916,14.153-10.651,26.859c46.464,0,92.928,0,139.392,0
	c1.864-22.893-8.249-26.278-25.007-31.954c-15.661-5.304-32.581-7.467-32.417-26.396c4.766-5.114,9.435-10.325,12.504-17.134
	c3.318-2.137,11.108-8.425,10.651-15.283c-0.121-1.812-2.591-4.661-2.779-6.483c-0.603-5.856,1.746-13.054,0.927-18.987
	c-0.896-6.488-4.476-11.906-12.041-10.651C137.149,33.918,131.858,30.674,122.263,30.977z"/>
</svg>
