<?xml version="1.0" encoding="utf-8"?>
<!-- Generator: Adobe Illustrator 16.0.0, SVG Export Plug-In . SVG Version: 6.00 Build 0)  -->
<!DOCTYPE svg PUBLIC "-//W3C//DTD SVG 1.1//EN" "http://www.w3.org/Graphics/SVG/1.1/DTD/svg11.dtd">
<svg version="1.1" id="图层_1" xmlns="http://www.w3.org/2000/svg" xmlns:xlink="http://www.w3.org/1999/xlink" x="0px" y="0px"
	 width="100px" height="100px" viewBox="300 300 100 100" enable-background="new 300 300 100 100" xml:space="preserve">
<g>
	<polygon fill="#5F8090" points="331.546,305.643 350.957,308.649 350.893,399.388 331.546,390.333 	"/>
	
		<linearGradient id="83_build_3_SVGID_1_" gradientUnits="userSpaceOnUse" x1="148.5322" y1="427.6777" x2="170.0449" y2="427.6777" gradientTransform="matrix(1 0 0 -1 202.3398 780.0391)">
		<stop  offset="0" style="stop-color:#304E5B"/>
		<stop  offset="0.5172" style="stop-color:#577788"/>
		<stop  offset="1" style="stop-color:#304E5B"/>
	</linearGradient>
	<polygon fill="url(#83_build_3_SVGID_1_)" points="372.385,389.262 350.872,399.384 350.872,308.669 372.385,305.338 	"/>
	
		<linearGradient id="83_build_3_SVGID_2_" gradientUnits="userSpaceOnUse" x1="129.229" y1="474.3359" x2="169.9609" y2="474.3359" gradientTransform="matrix(1 0 0 -1 202.3398 780.0391)">
		<stop  offset="0" style="stop-color:#304E5B"/>
		<stop  offset="0.5172" style="stop-color:#577788"/>
		<stop  offset="1" style="stop-color:#304E5B"/>
	</linearGradient>
	<polygon fill="url(#83_build_3_SVGID_2_)" points="372.301,305.392 352.403,302.729 331.569,305.651 350.941,308.677 	"/>
	<polygon fill="#163E48" points="351.966,307.029 342.31,305.594 352.03,304.232 361.685,305.574 	"/>
	<g>
		<polygon fill="#EDEDEC" points="372.365,309.877 350.895,313.522 350.895,312.209 372.365,308.662 		"/>
		<polygon fill="#EDEDEC" points="372.346,315.033 350.872,319.091 350.872,317.778 372.346,313.817 		"/>
		<polygon fill="#EDEDEC" points="372.364,320.978 350.895,325.498 350.895,324.184 372.364,319.762 		"/>
		<polygon fill="#EDEDEC" points="372.332,326.322 350.857,331.284 350.857,329.97 372.332,325.106 		"/>
		<polygon fill="#EDEDEC" points="372.327,331.845 350.853,337.248 350.853,335.934 372.327,330.628 		"/>
		<polygon fill="#EDEDEC" points="372.325,337.343 350.851,343.186 350.851,341.873 372.325,336.126 		"/>
		<polygon fill="#EDEDEC" points="372.325,342.852 350.851,349.138 350.851,347.824 372.325,341.637 		"/>
		<polygon fill="#EDEDEC" points="372.347,348.363 350.873,355.089 350.873,353.775 372.347,347.147 		"/>
		<polygon fill="#EDEDEC" points="372.339,353.873 350.865,361.041 350.865,359.727 372.339,352.658 		"/>
		<polygon fill="#EDEDEC" points="372.331,359.394 350.858,367.003 350.858,365.688 372.331,358.177 		"/>
		<polygon fill="#EDEDEC" points="372.331,364.891 350.858,372.939 350.858,371.625 372.331,363.675 		"/>
		<polygon fill="#EDEDEC" points="372.331,370.42 350.858,378.912 350.858,377.599 372.331,369.205 		"/>
		<polygon fill="#EDEDEC" points="372.331,375.917 350.858,384.848 350.858,383.533 372.331,374.701 		"/>
		<polygon fill="#EDEDEC" points="372.339,380.875 350.865,390.246 350.865,388.932 372.339,379.659 		"/>
	</g>
	<g>
		<polygon fill="#EDEDEC" points="350.957,313.491 331.381,310.169 331.381,308.955 350.957,312.19 		"/>
		<polygon fill="#EDEDEC" points="350.86,319.041 331.298,315.344 331.298,314.132 350.86,317.74 		"/>
		<polygon fill="#EDEDEC" points="350.86,325.489 331.298,321.369 331.298,320.157 350.86,324.188 		"/>
		<polygon fill="#EDEDEC" points="350.86,331.263 331.298,326.74 331.298,325.529 350.86,329.962 		"/>
		<polygon fill="#EDEDEC" points="350.86,337.216 331.298,332.292 331.298,331.08 350.86,335.916 		"/>
		<polygon fill="#EDEDEC" points="350.86,343.169 331.298,337.842 331.298,336.63 350.86,341.869 		"/>
		<polygon fill="#EDEDEC" points="350.86,349.122 331.298,343.393 331.298,342.182 350.86,347.821 		"/>
		<polygon fill="#EDEDEC" points="350.86,355.074 331.298,348.943 331.298,347.731 350.86,353.774 		"/>
		<polygon fill="#EDEDEC" points="350.86,361.027 331.298,354.493 331.298,353.282 350.86,359.727 		"/>
		<polygon fill="#EDEDEC" points="350.86,366.979 331.298,360.043 331.298,358.833 350.86,365.68 		"/>
		<polygon fill="#EDEDEC" points="350.86,372.934 331.298,365.596 331.298,364.385 350.86,371.633 		"/>
		<polygon fill="#EDEDEC" points="350.86,378.886 331.298,371.146 331.298,369.936 350.86,377.586 		"/>
		<polygon fill="#EDEDEC" points="350.86,384.84 331.298,376.697 331.298,375.485 350.86,383.538 		"/>
		<polygon fill="#EDEDEC" points="350.86,390.256 331.298,381.711 331.298,380.5 350.86,388.956 		"/>
	</g>
	<polygon fill="none" points="331.546,305.643 350.957,308.649 350.899,399.38 331.546,390.333 	"/>
</g>
</svg>
