<?xml version="1.0" encoding="utf-8"?>
<!-- Generator: Adobe Illustrator 16.0.0, SVG Export Plug-In . SVG Version: 6.00 Build 0)  -->
<!DOCTYPE svg PUBLIC "-//W3C//DTD SVG 1.1//EN" "http://www.w3.org/Graphics/SVG/1.1/DTD/svg11.dtd">
<svg version="1.1" id="图层_1" xmlns="http://www.w3.org/2000/svg" xmlns:xlink="http://www.w3.org/1999/xlink" x="0px" y="0px"
	 width="100px" height="100px" viewBox="0 0 100 100" enable-background="new 0 0 100 100" xml:space="preserve">
<path fill="#395866" d="M100.087,43.055c0-8.844-7.168-16.012-16.011-16.012c-0.92,0-1.82,0.079-2.698,0.227
	c-2.788-6.877-9.532-11.728-17.407-11.728c-7.492,0-13.955,4.386-16.97,10.728c-3.41-3.49-8.169-5.659-13.435-5.659
	c-10.371,0-18.778,8.407-18.778,18.778c0,0.104,0.002,0.211,0.004,0.314C8.407,40.324,3.415,45.705,3.415,52.255
	c0,6.966,5.647,12.611,12.612,12.611c0.359,0,0.714-0.019,1.064-0.048c1.482,6.21,7.065,10.828,13.729,10.828
	c2.296,0,4.463-0.553,6.38-1.523c3.404,6.161,9.967,10.335,17.505,10.335c6.407,0,12.11-3.017,15.769-7.704
	c2.108,1.186,4.541,1.865,7.133,1.865c8.055,0,14.584-6.53,14.584-14.585c0-2.298-0.533-4.472-1.48-6.404
	C96.241,55.107,100.087,49.531,100.087,43.055z"/>
</svg>
