<?xml version="1.0" standalone="no"?><!DOCTYPE svg PUBLIC "-//W3C//DTD SVG 1.1//EN" "http://www.w3.org/Graphics/SVG/1.1/DTD/svg11.dtd"><svg t="1494406707104" class="icon" style="" viewBox="0 0 1024 1024" version="1.1" xmlns="http://www.w3.org/2000/svg" p-id="7732" xmlns:xlink="http://www.w3.org/1999/xlink" width="128" height="128"><defs><style type="text/css"></style></defs><path d="M774.4 486.4c25.6 0 51.2 6.4 76.8 12.8V288L569.6 12.8H12.8V960h537.6c-38.4-51.2-64-115.2-64-185.6 0-160 128-288 288-288zM537.6 121.6l211.2 211.2H537.6V121.6zM172.8 339.2H384v64H172.8v-64zM384 665.6H172.8v-64H384v64z m51.2-134.4H172.8v-64h262.4v64z" fill="#3d5c6b" p-id="7733"></path><path d="M755.2 761.6l134.4-192c-32-19.2-70.4-32-115.2-32-128 0-236.8 102.4-236.8 236.8s102.4 236.8 236.8 236.8c128 0 236.8-102.4 236.8-230.4l-256-19.2z" fill="#3d5c6b" p-id="7734"></path></svg>