<?xml version="1.0" standalone="no"?>
<!DOCTYPE svg PUBLIC "-//W3C//DTD SVG 1.1//EN" "http://www.w3.org/Graphics/SVG/1.1/DTD/svg11.dtd" >
<!--
2013-9-30: Created.
-->
<svg>
<metadata>
Created by iconfont
</metadata>
<defs>

<font id="iconfont" horiz-adv-x="1024" >
  <font-face
    font-family="iconfont"
    font-weight="500"
    font-stretch="normal"
    units-per-em="1024"
    ascent="896"
    descent="-128"
  />
    <missing-glyph />
    
    <glyph glyph-name="x" unicode="x" horiz-adv-x="1001"
d="M281 543q-27 -1 -53 -1h-83q-18 0 -36.5 -6t-32.5 -18.5t-23 -32t-9 -45.5v-76h912v41q0 16 -0.5 30t-0.5 18q0 13 -5 29t-17 29.5t-31.5 22.5t-49.5 9h-133v-97h-438v97zM955 310v-52q0 -23 0.5 -52t0.5 -58t-10.5 -47.5t-26 -30t-33 -16t-31.5 -4.5q-14 -1 -29.5 -0.5
t-29.5 0.5h-32l-45 128h-439l-44 -128h-29h-34q-20 0 -45 1q-25 0 -41 9.5t-25.5 23t-13.5 29.5t-4 30v167h911zM163 247q-12 0 -21 -8.5t-9 -21.5t9 -21.5t21 -8.5q13 0 22 8.5t9 21.5t-9 21.5t-22 8.5zM316 123q-8 -26 -14 -48q-5 -19 -10.5 -37t-7.5 -25t-3 -15t1 -14.5
t9.5 -10.5t21.5 -4h37h67h81h80h64h36q23 0 34 12t2 38q-5 13 -9.5 30.5t-9.5 34.5q-5 19 -11 39h-368zM336 498v228q0 11 2.5 23t10 21.5t20.5 15.5t34 6h188q31 0 51.5 -14.5t20.5 -52.5v-227h-327z" />
    

    
    <glyph glyph-name="nav-approved" unicode="&#59094;" d="M682.666667 298.666667h128c47.128178 0 85.333333-38.205156 85.333333-85.333334v-170.666666H128V213.333333c0 47.128178 38.205156 85.333333 85.333333 85.333334h126.148267c131.163022 87.933156 44.840533 128 0 191.179377C310.944711 523.491556 298.666667 572.566044 298.666667 618.666667c0 106.666667 94.817422 192 213.333333 192 118.459733 0 213.333333-85.333333 213.333333-192 1.183289-50.183111-19.305244-96.583111-42.666666-128.820623C642.244267 426.666667 554.360889 383.777422 682.666667 298.666667z m-554.666667-298.666667h768v-42.666667H128v42.666667z"  horiz-adv-x="1024" />

    
    <glyph glyph-name="nav-archives" unicode="&#59095;" d="M130.844444 810.666667h164.977778c25.134933 0 45.511111-20.376178 45.511111-45.511111v-762.311112c0-25.134933-20.376178-45.511111-45.511111-45.511111H130.844444c-25.134933 0-45.511111 20.376178-45.511111 45.511111V765.155556c0 25.134933 20.376178 45.511111 45.511111 45.511111z m298.666667 0h164.977778c25.134933 0 45.511111-20.376178 45.511111-45.511111v-762.311112c0-25.134933-20.376178-45.511111-45.511111-45.511111H429.511111c-25.134933 0-45.511111 20.376178-45.511111 45.511111V765.155556c0 25.134933 20.376178 45.511111 45.511111 45.511111z m298.666667 0h164.977778c25.134933 0 45.511111-20.376178 45.511111-45.511111v-762.311112c0-25.134933-20.376178-45.511111-45.511111-45.511111h-164.977778c-25.134933 0-45.511111 20.376178-45.511111 45.511111V765.155556c0 25.134933 20.376178 45.511111 45.511111 45.511111zM128 725.333333v-384h170.666667V725.333333H128z m298.666667 0v-384h170.666666V725.333333H426.666667z m298.666666 0v-384h170.666667V725.333333h-170.666667z m-511.971555-682.666666c47.119644 0 85.304889 38.174578 85.304889 85.3312C298.666667 175.102578 260.48 213.333333 213.361778 213.333333 166.186667 213.333333 128 175.102578 128 127.997867 128 80.840533 166.186667 42.666667 213.361778 42.666667z m298.666666 0c47.119644 0 85.304889 38.174578 85.304889 85.3312C597.333333 175.102578 559.146667 213.333333 512.028444 213.333333 464.853333 213.333333 426.666667 175.102578 426.666667 127.997867 426.666667 80.840533 464.853333 42.666667 512.028444 42.666667z m298.666667 0c47.119644 0 85.304889 38.174578 85.304889 85.3312 0 47.104711-38.186667 85.335467-85.304889 85.335466-47.175111 0-85.361778-38.230756-85.361778-85.335466 0-47.157333 38.186667-85.3312 85.361778-85.3312zM213.333333 170.666667c23.547733 0 42.666667-19.137422 42.666667-42.6688 0-23.527111-19.118933-42.664533-42.666667-42.664534-23.606044 0-42.666667 19.136-42.666666 42.664534 0 23.530667 19.059911 42.6688 42.666666 42.6688z m298.666667 0c23.547733 0 42.666667-19.137422 42.666667-42.6688 0-23.527111-19.118933-42.664533-42.666667-42.664534-23.606044 0-42.666667 19.136-42.666667 42.664534 0 23.530667 19.059911 42.6688 42.666667 42.6688z m298.666667 0c23.547733 0 42.666667-19.137422 42.666666-42.6688 0-23.527111-19.118933-42.664533-42.666666-42.664534-23.606044 0-42.666667 19.136-42.666667 42.664534 0 23.530667 19.059911 42.6688 42.666667 42.6688z"  horiz-adv-x="1024" />

    
    <glyph glyph-name="nav-access" unicode="&#59096;" d="M213.333333 426.666667h597.333334c23.564089 0 42.666667-19.102578 42.666666-42.666667v-384c0-23.564089-19.102578-42.666667-42.666666-42.666667H213.333333c-23.564089 0-42.666667 19.102578-42.666666 42.666667V384c0 23.564089 19.102578 42.666667 42.666666 42.666667z m0 0V554.666667c0 147.276089 137.966933 256 298.666667 256 136.407467 0 249.770667-86.4 281.195378-202.56 2.619022-9.706667 9.777067-46.613333-40.852622-60.906667-41.201778-11.68-68.203378 27.04-72.568178 41.12-23.980089 76.706133-105.979733 125.482667-192.189156 114.320356C401.376 691.477333 341.188978 634.459022 341.333333 554.666667v-128H213.333333z"  horiz-adv-x="1024" />

    
    <glyph glyph-name="nav-business" unicode="&#59098;" d="M467.685689 404.591644l147.939555 81.914312c17.879467-15.343644 41.028267-23.827911 65.019734-23.830045 40.721067-0.011378 77.206044 24.137244 91.648 60.6592 14.441956 36.522667 3.830756 77.806222-26.654578 103.702756-30.485333 25.897244-74.491733 31.010133-110.5408 12.842666-36.049778-18.166756-56.628622-55.826489-51.694222-94.599822l-143.559111-79.546311C416.365511 494.001067 380.951467 512 341.333333 512c-70.692267 0-128-57.307733-128-128s57.307733-128 128-128c29.516089 0 56.698311 9.9904 78.350223 26.773333l127.579022-70.455466v-0.7744c-0.103822-45.260089 33.434311-84.164267 79.798044-92.566756 46.364444-8.402489 92.387556 16.082489 109.506134 58.2592 17.118578 42.176711 0.470756 90.066489-39.611023 113.947733-40.081778 23.880533-92.214756 16.970667-124.042666-16.442311l-112.540445 62.116978C466.155378 351.447467 469.333333 367.352889 469.333333 384c0 7.009422-0.5632 13.888-1.647644 20.591644zM199.111111 810.666667h625.777778c62.838044 0 113.777778-50.939733 113.777778-113.777778v-625.777778c0-62.838044-50.939733-113.777778-113.777778-113.777778H199.111111c-62.838044 0-113.777778 50.939733-113.777778 113.777778V696.888889c0 62.838044 50.939733 113.777778 113.777778 113.777778z"  horiz-adv-x="1024" />

    
    <glyph glyph-name="nav-menu" unicode="&#59099;" d="M128 810.666667h768c23.564089 0 42.666667-19.102578 42.666667-42.666667v-85.333333c0-23.564089-19.102578-42.666667-42.666667-42.666667H128c-23.564089 0-42.666667 19.102578-42.666667 42.666667V768c0 23.564089 19.102578 42.666667 42.666667 42.666667z m0-341.333334h768c23.564089 0 42.666667-19.102578 42.666667-42.666666v-85.333334c0-23.564089-19.102578-42.666667-42.666667-42.666666H128c-23.564089 0-42.666667 19.102578-42.666667 42.666666V426.666667c0 23.564089 19.102578 42.666667 42.666667 42.666666z m0-341.333333h768c23.564089 0 42.666667-19.102578 42.666667-42.666667v-85.333333c0-23.564089-19.102578-42.666667-42.666667-42.666667H128c-23.564089 0-42.666667 19.102578-42.666667 42.666667v85.333333c0 23.564089 19.102578 42.666667 42.666667 42.666667z"  horiz-adv-x="1024" />

    
    <glyph glyph-name="nav-about1" unicode="&#59100;" d="M511.960889 810.666667C276.352711 810.666667 85.333333 619.682133 85.333333 384.058311 85.333333 148.415289 276.333511-42.666667 511.960889-42.666667 747.588978-42.666667 938.666667 148.317867 938.666667 384.058311 938.666667 619.778844 747.569778 810.666667 511.960889 810.666667z m84.174222-657.772089c-20.830578-8.571022-37.471289-14.9504-49.922844-19.4304-12.451556-4.479289-26.939022-6.766933-43.288889-6.766934-25.310578 0-44.899556 6.379378-58.882845 19.138845-13.984 12.740267-20.927289 28.931556-20.927289 48.556089 0 7.620267 0.484978 15.415467 1.532445 23.4048 1.047467 7.911822 2.754133 16.947911 5.042489 26.953955l26.066489 95.502223a523.483022 523.483022 0 0 1 5.896533 25.984c1.609956 8.202667 2.385067 15.726933 2.385067 22.474666 0 12.177778-2.462578 20.652089-7.234134 25.422222-4.848356 4.867556-14.158222 7.136-27.869866 7.136-6.749867 0-13.693156-1.046756-20.733156-3.2384-7.04-2.171733-13.130667-4.285156-18.173155-6.263466l6.943288 29.416533a636.746667 636.746667 0 0 0 49.088 18.460445c15.593956 5.1584 30.333867 7.717689 44.239645 7.717688 25.116444 0 44.433778-6.282667 58.029511-18.8672 13.518222-12.565333 20.3648-28.835556 20.3648-48.924444 0-4.188444-0.465778-11.421156-1.415822-21.892978a150.956089 150.956089 0 0 0-5.255822-28.757333l-25.969778-95.191467c-2.075733-7.620978-3.995733-16.386133-5.7216-26.197333-1.706667-9.792711-2.463289-17.239467-2.463289-22.183822 0-12.662756 2.773333-21.233778 8.184889-25.809778 5.411556-4.557511 14.933333-6.922667 28.335644-6.922667 6.3808 0 13.421511 1.143467 21.508978 3.431822 7.990756 2.268444 13.692444 4.285867 17.319111 5.991823l-7.079111-29.144889z m-4.558222 386.429866c-12.063289-11.712-26.725689-17.5104-43.754667-17.5104-17.028978 0-31.671467 5.816889-43.9488 17.5104-12.179911 11.634489-18.250667 25.809778-18.250666 42.389334 0 16.560356 6.168178 30.734933 18.250666 42.544355 12.277333 11.790222 26.919822 17.607111 43.9488 17.607111 17.028978 0 31.691378-5.914311 43.754667-17.607111 12.0832-11.712 18.173156-26.003911 18.173155-42.544355-0.0192-16.579556-6.089956-30.677333-18.173155-42.389334z"  horiz-adv-x="1024" />

    
    <glyph glyph-name="nav-log" unicode="&#59101;" d="M256 810.666667h597.333333c47.128178 0 85.333333-38.205156 85.333334-85.333334v-682.666666c0-47.128178-38.205156-85.333333-85.333334-85.333334H256c-47.128178 0-85.333333 38.205156-85.333333 85.333334V725.333333c0 47.128178 38.205156 85.333333 85.333333 85.333334z m42.666667-767.998578c0-23.564089 19.102578-42.666667 42.666666-42.666667l170.666667-0.001422V768H341.333333c-23.564089 0-42.666667-19.102578-42.666666-42.666667v-682.665244z m-167.822223 639.331555h39.822223v-128h-39.822223c-25.134933 0-45.511111 20.376178-45.511111 45.511112v36.977777c0 25.135644 20.376178 45.511111 45.511111 45.511111zM130.844444 469.333333h39.822223v-128h-39.822223c-25.134933 0-45.511111 20.376178-45.511111 45.511111v36.977778c0 25.134933 20.376178 45.511111 45.511111 45.511111z m0-212.667022h39.822223v-128h-39.822223c-25.134933 0-45.511111 20.376178-45.511111 45.511111v36.977778c0 25.135644 20.376178 45.511111 45.511111 45.511111z m167.822223 425.333333h85.333333v-128H298.666667v128zM298.666667 469.333333h85.333333v-128H298.666667V469.333333z m0-212.667022h85.333333v-128H298.666667v128z"  horiz-adv-x="1024" />

    
    <glyph glyph-name="nav-network" unicode="&#59102;" d="M142.222222 213.333333h142.222222c31.419022 0 56.888889-25.469867 56.888889-56.888889v-142.222222c0-31.419022-25.469867-56.888889-56.888889-56.888889H142.222222c-31.419022 0-56.888889 25.469867-56.888889 56.888889v142.222222c0 31.419022 25.469867 56.888889 56.888889 56.888889z m298.666667 0h142.222222c31.419022 0 56.888889-25.469867 56.888889-56.888889v-142.222222c0-31.419022-25.469867-56.888889-56.888889-56.888889H440.888889c-31.419022 0-56.888889 25.469867-56.888889 56.888889v142.222222c0 31.419022 25.469867 56.888889 56.888889 56.888889z m-42.666667 597.333334h227.555556c31.419022 0 56.888889-25.469867 56.888889-56.888889v-99.555556c0-31.419022-25.469867-56.888889-56.888889-56.888889H398.222222c-31.419022 0-56.888889 25.469867-56.888889 56.888889V753.777778c0 31.419022 25.469867 56.888889 56.888889 56.888889z m341.333334-597.333334h142.222222c31.419022 0 56.888889-25.469867 56.888889-56.888889v-142.222222c0-31.419022-25.469867-56.888889-56.888889-56.888889h-142.222222c-31.419022 0-56.888889 25.469867-56.888889 56.888889v142.222222c0 31.419022 25.469867 56.888889 56.888889 56.888889zM170.666667 469.333333h682.666666v-85.333333H170.666667V469.333333z m298.666666 128h85.333334v-128H469.333333V597.333333zM170.666667 384h85.333333v-170.666667H170.666667V384z m298.666666 0h85.333334v-170.666667H469.333333V384z m298.666667 0h85.333333v-170.666667h-85.333333V384z"  horiz-adv-x="1024" />

    
    <glyph glyph-name="nav-monitor" unicode="&#59103;" d="M170.666667 768h682.666666c47.128178 0 85.333333-38.205156 85.333334-85.333333v-426.666667c0-47.128178-38.205156-85.333333-85.333334-85.333333H170.666667c-47.128178 0-85.333333 38.205156-85.333334 85.333333V682.666667c0 47.128178 38.205156 85.333333 85.333334 85.333333z m192-725.333333h298.666666c11.7824 0 21.333333-9.550933 21.333334-21.333334 0-11.7824-9.550933-21.333333-21.333334-21.333333H362.666667c-11.7824 0-21.333333 9.550933-21.333334 21.333333 0 11.7824 9.550933 21.333333 21.333334 21.333334z m21.333333 128h256v-128H384v128zM128 341.333333v-85.333333c0-35.295289 15.330133-42.666667 42.666667-42.666667h682.666666c27.336533 0 42.666667 7.371378 42.666667 42.666667V341.333333H128z"  horiz-adv-x="1024" />

    
    <glyph glyph-name="nav-locate" unicode="&#59104;" d="M861.1776 474.5152c0 185.654756-156.323556 336.151467-349.166222 336.151467C319.168 810.666667 162.844444 660.169956 162.844444 474.5152c0-53.562311 13.346133-104.008533 36.490667-148.951467h-1.351111s20.807111-36.621511 52.652089-86.823111l0.253155-0.568889c10.164622-16.047644 21.736533-33.666844 33.843912-51.719822l0.873244-1.328355a1835.995733 1835.995733 0 0 1 52.821333-74.652445l2.533689-3.387733a1075.530667 1075.530667 0 0 1 54.397867-67.008c2.112-2.358756 4.195556-4.7168 6.307555-7.0208a604.071111 604.071111 0 0 1 17.2032-18.350934h0.028445c17.400889-17.700978 34.575644-33.206044 50.877867-44.32 25.265778-17.400889 59.231289-17.400889 84.497066 0 16.302933 11.113956 33.4784 26.619022 50.850845 44.32h0.056177l0.393956 0.433778a611.424 611.424 0 0 1 22.976 24.802134 1086.817422 1086.817422 0 0 1 54.679467 67.360711l2.195911 2.927644a1829.024711 1829.024711 0 0 1 52.990578 74.895645l0.900977 1.328355a2368.491378 2368.491378 0 0 1 33.815467 51.6928c0.1408 0.216889 0.169244 0.406044 0.2816 0.595911a2289.629156 2289.629156 0 0 1 52.624356 86.823111h-1.351112c23.965867 46.264889 36.456533 97.252267 36.489956 148.951467zM512.011378 640c94.256356 0 170.666667-76.410311 170.666666-170.666667s-76.410311-170.666667-170.666666-170.666666c-94.257067 0-170.666667 76.410311-170.666667 170.666666s76.4096 170.666667 170.666667 170.666667z"  horiz-adv-x="1024" />

    
    <glyph glyph-name="nav-strategy" unicode="&#59106;" d="M584.142933 309.306311l86.308978 20.731733v107.064889l-86.308978 20.8c-2.736356 7.876978-5.656178 15.501511-9.105777 22.892089l46.604088 77.114311L547.832889 633.589333 472.625778 585.834667a212.643556 212.643556 0 0 1-22.321067 9.298489l-20.297244 88.497777H325.662578L305.426489 595.072c-7.619556-2.744889-15.061333-5.673956-22.229333-9.304178l-75.209245 47.815111-73.898667-75.6864 46.695823-77.1136a194.0608 194.0608 0 0 1-9.075911-22.892089L85.333333 437.102933v-107.04l86.369423-20.757333c2.675911-7.815111 5.595733-15.495111 9.075911-22.799644l-46.634667-77.150578 73.837511-75.698489 75.209245 47.845689c7.1744-3.593244 14.610489-6.528711 22.229333-9.28l20.236089-88.559645H430.001778l20.296533 88.497778a225.235911 225.235911 0 0 1 22.259911 9.243733l75.209245-47.858488L621.568 209.244444l-46.542933 77.236623c3.461689 7.317333 6.381511 15.009422 9.117866 22.825244z m-206.250666-31.926755c-57.233778 0-103.600356 47.551289-103.600356 106.264888 0 58.621867 46.427022 106.258489 103.600356 106.258489 57.234489 0 103.631644-47.637333 103.631644-106.258489 0-58.7136-46.397156-106.264889-103.631644-106.264888z m510.537244-4.086045l-57.9776 35.335111-30.5984-42.178133c-6.369422 1.095111-12.854756 2.018844-19.669333 2.018844-6.668089 0-13.214578-0.923022-19.669334-2.018844l-30.561422 42.178844-58.032355-35.335111 18.632533-47.114666a124.146489 124.146489 0 0 1-22.144-38.208712l-46.725689-6.468266v-70.670222l46.725689-6.4064a120.647111 120.647111 0 0 1 22.144-38.338134l-18.632533-47.101866 58.044444-35.341512 30.537245 42.2336c6.369422-1.175467 12.977067-1.993244 19.699911-1.993244 6.668089 0 13.214578 0.891733 19.645155 1.993244l30.476089-42.2336 58.032356 35.310934-18.572089 47.052089a123.292444 123.292444 0 0 1 22.205155 38.412089l46.665245 6.4064v70.670222l-46.665245 6.456178a123.018667 123.018667 0 0 1-22.131911 38.2272l18.572089 47.113955z m-108.214755-187.9872c-32.859022 0-59.465244 27.224178-59.465245 60.854756 0 33.705244 26.606222 60.910933 59.465245 60.910933 32.737422 0 59.404089-27.212089 59.404088-60.910933 0-33.692444-26.666667-60.854756-59.404088-60.854756z m89.642666 615.901156l18.572089 47.126044L830.451911 783.644444l-30.5984-42.178133c-6.369422 1.132089-12.854756 1.981156-19.669333 1.981156-6.668089 0-13.214578-0.910222-19.669334-1.981156L729.9776 783.644444l-58.032356-35.304533 18.633245-47.126044a124.487111 124.487111 0 0 1-22.144-38.264889l-46.7264-6.4064v-70.7072l46.7264-6.442667a120.578133 120.578133 0 0 1 22.144-38.296178l-18.639645-47.125333 58.033067-35.317333 30.537245 42.178133c6.369422-1.125689 12.976356-2.012444 19.681422-2.012444 6.692267 0 13.214578 0.947911 19.669333 2.012444l30.597689-42.178133 57.978311 35.316622-18.572089 47.058489c9.526756 11.255467 17.1456 24.104533 22.144 38.357333L938.666667 585.834667v70.7072l-46.665245 6.394311a122.267022 122.267022 0 0 1-22.144 38.270578z m-89.642666-140.916623c-32.859022 0-59.465244 27.255467-59.465245 60.849067 0 33.692444 26.606222 60.941511 59.465245 60.941511 32.737422 0 59.404089-27.249778 59.404088-60.942222 0-33.6-26.666667-60.848356-59.404088-60.848356z"  horiz-adv-x="1024" />

    
    <glyph glyph-name="nav-user" unicode="&#59107;" d="M597.501867-42.666667H426.498133C265.858844-42.666667 138.666667-42.666667 138.666667 42.659556v17.756444C138.666667 224.163556 267.743289 357.333333 426.498133 357.333333h171.003734c158.754844 0 287.831467-133.169067 287.831466-296.917333v-17.756444C885.333333-42.666667 752.017067-42.666667 597.501867-42.666667zM512 384c-117.686044 0-213.333333 95.709156-213.333333 213.333333s95.647289 213.333333 213.333333 213.333334 213.333333-95.709156 213.333333-213.333334-95.647289-213.333333-213.333333-213.333333z"  horiz-adv-x="1024" />

    
    <glyph glyph-name="nav-system" unicode="&#59109;" d="M817.321244 467.186489h69.713067c29.494044 0 56.305778-26.834489 50.944-56.352v-56.352c0-29.518222-24.131556-56.352711-56.306489-56.352711h-69.713778c-5.361778-24.150756-16.087467-45.617778-26.812444-67.086222l48.263111-48.301512c21.449956-21.467733 21.449956-59.035733 0-80.502755l-40.219022-40.251733c-21.450667-21.467733-58.988089-21.467733-80.438756 0l-48.263111 48.301511c-21.449956-10.733511-42.899911-21.467022-67.031466-26.834489v-69.769245c0-29.518222-24.131556-56.352-56.306489-56.352H484.842667c-29.494044 0-56.3072 24.150756-56.3072 56.352v69.769245c-24.131556 8.050489-48.263111 16.100978-69.713067 29.518222l-50.944-50.985244c-21.449956-21.467733-58.988089-21.467733-80.438044 0l-40.219023 40.251733c-21.450667 21.467022-21.450667 59.035022 0 80.502755l50.944 50.985245c-10.724978 18.784-21.450667 42.935467-26.813155 64.402489h-69.713067c-29.494044 0-56.306489 24.151467-56.306489 56.352711v56.352c0 29.518222 24.131556 56.352 56.306489 56.352h69.713067c5.362489 24.150756 16.088178 45.618489 26.813155 67.086222l-50.944 50.985245c-21.450667 24.150756-21.450667 59.035733 0 83.186488l40.219023 40.251734c24.131556 21.467022 58.988089 21.467022 83.118933 0l56.3072-50.985245c21.449956 10.733511 42.899911 21.467022 67.031467 26.834489v69.769245c0 29.518222 24.131556 56.352 56.3072 56.352h56.306488c29.494044 0 56.306489-24.150756 56.306489-56.352v-69.769245c21.450667-8.050489 42.900622-16.100978 64.350578-26.834489l50.944 50.985245c21.450667 21.467022 58.988089 21.467022 80.438756 0L838.7712 668.444444c21.449956-21.467733 21.449956-59.035733 0-80.503466l-50.944-50.985245c13.405867-21.467022 21.449956-45.617778 29.494044-69.769244zM512 213.333333c93.333333 0 170.666667 77.333333 170.666667 170.666667S605.333333 554.666667 512 554.666667 341.333333 477.333333 341.333333 384s77.333333-170.666667 170.666667-170.666667z"  horiz-adv-x="1024" />

    
    <glyph glyph-name="nav-home1" unicode="&#59118;" d="M827.734635-24.477867H614.401301V229.688889H409.601301v-254.166756H196.267968c-23.564089 0-42.666667 19.102578-42.666667 42.666667V332.088889l358.420623 293.782755L870.401301 332.088889v-313.900089c0-23.564089-19.102578-42.666667-42.666666-42.666667z m152.335644 342.326756c-3.387022-3.820089-7.830756-6.1504-13.331911-6.990222-7.411911 0-11.855644 1.476267-15.243378 4.430222l-439.514311 366.471111-439.5136-366.471111c-5.068089-3.387022-10.148978-4.864-15.243378-4.430222-5.500444 0.839822-9.944178 3.170133-13.3312 6.990222L4.505479 364.837689C1.117746 369.064533-0.358521 374.037333 0.075257 379.754667c0.433778 5.717333 2.763378 10.269867 6.990222 13.656889l456.627911 380.413866c13.548089 11.0016 29.644089 16.502756 48.287289 16.502756s34.7392-5.501156 48.288711-16.502756L716.801301 639.288889V750.222222c0 23.564089 19.102578 42.666667 42.666667 42.666667h68.266667c23.564089 0 42.666667-19.102578 42.666666-42.666667v-231.473778l146.535111-125.336177c4.227556-3.3856 6.557867-7.938133 6.990934-13.656178 0.433778-5.717333-1.0432-10.690133-4.430222-14.917689l-39.426845-46.989511z"  horiz-adv-x="1024" />

    
    <glyph glyph-name="nav-data" unicode="&#59123;" d="M128 768h85.333333c23.564089 0 42.666667-19.102578 42.666667-42.666667v-85.333333c0-23.564089-19.102578-42.666667-42.666667-42.666667H128c-23.564089 0-42.666667 19.102578-42.666667 42.666667V725.333333c0 23.564089 19.102578 42.666667 42.666667 42.666667z m0-298.835911h85.333333c23.564089 0 42.666667-19.102578 42.666667-42.666667v-85.333333c0-23.564089-19.102578-42.666667-42.666667-42.666667H128c-23.564089 0-42.666667 19.102578-42.666667 42.666667v85.333333c0 23.564089 19.102578 42.666667 42.666667 42.666667zM128 170.666667h85.333333c23.564089 0 42.666667-19.102578 42.666667-42.666667v-85.333333c0-23.564089-19.102578-42.666667-42.666667-42.666667H128c-23.564089 0-42.666667 19.102578-42.666667 42.666667v85.333333c0 23.564089 19.102578 42.666667 42.666667 42.666667z m213.333333 591.644444h554.666667c23.564089 0 42.666667-19.102578 42.666667-42.666667v-85.333333c0-23.564089-19.102578-42.666667-42.666667-42.666667H341.333333c-23.564089 0-42.666667 19.102578-42.666666 42.666667V719.644444c0 23.564089 19.102578 42.666667 42.666666 42.666667z m0-293.147022h554.666667c23.564089 0 42.666667-19.102578 42.666667-42.666667v-85.333333c0-23.564089-19.102578-42.666667-42.666667-42.666667H341.333333c-23.564089 0-42.666667 19.102578-42.666666 42.666667v85.333333c0 23.564089 19.102578 42.666667 42.666666 42.666667zM341.333333 170.666667h554.666667c23.564089 0 42.666667-19.102578 42.666667-42.666667v-85.333333c0-23.564089-19.102578-42.666667-42.666667-42.666667H341.333333c-23.564089 0-42.666667 19.102578-42.666666 42.666667v85.333333c0 23.564089 19.102578 42.666667 42.666666 42.666667z"  horiz-adv-x="1024" />

    
    <glyph glyph-name="nav-report1" unicode="&#59156;" d="M128 554.666667h128c23.564089 0 42.666667-19.102578 42.666667-42.666667v-512c0-23.564089-19.102578-42.666667-42.666667-42.666667H128c-23.564089 0-42.666667 19.102578-42.666667 42.666667V512c0 23.564089 19.102578 42.666667 42.666667 42.666667z m298.666667 256h128c23.564089 0 42.666667-19.102578 42.666666-42.666667v-768c0-23.564089-19.102578-42.666667-42.666666-42.666667H426.666667c-23.564089 0-42.666667 19.102578-42.666667 42.666667V768c0 23.564089 19.102578 42.666667 42.666667 42.666667z m298.666666-426.666667h128c23.564089 0 42.666667-19.102578 42.666667-42.666667v-341.333333c0-23.564089-19.102578-42.666667-42.666667-42.666667h-128c-23.564089 0-42.666667 19.102578-42.666666 42.666667V341.333333c0 23.564089 19.102578 42.666667 42.666666 42.666667z"  horiz-adv-x="1024" />

    
    <glyph glyph-name="nav-warning" unicode="&#59161;" d="M552.490667 774.424889l385.266489-750.802489c11.4752-22.363022 2.6496-49.794133-19.713423-61.269333a45.511111 45.511111 0 0 0-20.777244-5.019734H126.724978c-25.134933 0-45.511111 20.376178-45.511111 45.511111a45.511111 45.511111 0 0 0 5.020444 20.778667L471.507911 774.424889c11.4752 22.362311 38.906311 31.188622 61.269333 19.712711a45.511111 45.511111 0 0 0 19.712712-19.713422zM491.017244 553.834667c-23.5648 0-42.666667-19.102578-42.666666-42.666667v-213.333333c0-23.564089 19.101867-42.666667 42.666666-42.666667h42.666667c23.564089 0 42.666667 19.102578 42.666667 42.666667v213.333333c0 23.564089-19.102578 42.666667-42.666667 42.666667h-42.666667z m21.333334-511.303823c35.345778 0 64 28.653511 64 64 0 35.345778-28.654222 64-64 64-35.346489 0-64-28.654222-64-64 0-35.346489 28.653511-64 64-64z"  horiz-adv-x="1024" />

    
    <glyph glyph-name="list-input-delete" unicode="&#59176;" d="M894.599111 76.349156L586.9696 383.984356l307.629511 307.666488c10.029511 10.028089 15.546311 23.362133 15.536356 37.546667-0.009244 14.141867-5.517511 27.416178-15.507911 37.378133-10.005333 10.032356-23.294578 15.549867-37.439289 15.5584-14.204444 0-27.523556-5.5168-37.5424-15.532088L512.022756 458.978133 204.347733 766.601956c-10.015289 10.015289-23.324444 15.532089-37.475555 15.532088-14.149689 0-27.458844-5.515378-37.472711-15.529955-10.012444-9.984-15.524978-23.264711-15.534223-37.406578-0.009956-14.184533 5.506844-27.518578 15.534223-37.545244L437.070222 383.985778l-307.672889-307.638045c-10.016711-10.015289-15.5328-23.3216-15.5328-37.474133 0-14.1504 5.517511-27.460267 15.534223-37.476978 10.013867-10.015289 23.3216-15.529244 37.472-15.529244 14.151111 0 27.460978 5.515378 37.475555 15.529244l307.670756 307.632356 307.633066-307.632356c10.015289-10.015289 23.335822-15.529244 37.506134-15.529244 14.179556 0.009244 27.456 5.516089 37.421511 15.505778 20.679111 20.681244 20.6848 54.312533 0.021333 74.976z"  horiz-adv-x="1024" />

    
    <glyph glyph-name="list-showpassword" unicode="&#59183;" d="M512 42.66666699999996c-125.675378 0-227.555556 101.880178-227.555556 227.555555s101.880178 227.555556 227.555556 227.555556 227.555556-101.880178 227.555556-227.555556-101.880178-227.555556-227.555556-227.555555zM227.555556 327.11111100000005H56.888889c0 219.932444 203.760356 398.222222 455.111111 398.222222s455.111111-178.289778 455.111111-398.222222h-170.666667c0 137.457778-127.350044 248.888889-284.444444 248.888889S227.555556 464.568889 227.555556 327.11111100000005z"  horiz-adv-x="1024" />

    


  </font>
</defs>
</svg>
