<?xml version="1.0" standalone="no"?><!DOCTYPE svg PUBLIC "-//W3C//DTD SVG 1.1//EN" "http://www.w3.org/Graphics/SVG/1.1/DTD/svg11.dtd"><svg t="1494406789207" class="icon" style="" viewBox="0 0 1024 1024" version="1.1" xmlns="http://www.w3.org/2000/svg" p-id="8580" xmlns:xlink="http://www.w3.org/1999/xlink" width="128" height="128"><defs><style type="text/css"></style></defs><path d="M316.043514 903.573233 188.745247 903.573233c-7.554046 0-14.008039-6.450922-14.008039-14.002922L174.737208 133.352147c0-7.54586 6.346545-14.010085 14.008039-14.010085l644.212184 0c7.554046 0 14.007015 6.349615 14.007015 14.010085l0 407.755798 56.017828 24.161283L902.982274 133.352147c0-38.513152-31.506575-70.02075-70.024843-70.02075l-644.212184 0c-38.520315 0-70.021773 31.455409-70.021773 70.02075l0 756.219187c0 38.4538 31.501458 70.02075 70.021773 70.02075l127.297244 0L316.042491 903.573233 316.043514 903.573233zM770.75167 466.100624c0-73.098855-59.272965-132.324748-132.328841-132.324748-73.099878 0-132.327818 59.225893-132.327818 132.324748 0 73.099878 59.228963 132.320655 132.327818 132.320655C711.478705 598.420255 770.75167 539.199479 770.75167 466.100624L770.75167 466.100624zM814.860261 642.528845l-0.085958 0L790.476921 642.528845l-137.235594 278.555204 51.346435-256.496815-66.163909-66.165955-66.163909 66.165955 51.260477 256.496815L486.280734 642.528845 461.985398 642.528845l-0.084934 0c-88.152712 0-88.152712 59.273988-88.152712 132.326794l0 184.736445 529.331737 0L903.079488 774.854617C903.080511 701.802834 903.080511 642.528845 814.860261 642.528845L814.860261 642.528845zM263.239891 209.715349l492.242004 0 0 51.909254L263.239891 261.624603 263.239891 209.715349 263.239891 209.715349zM263.239891 342.16801l170.049954 0 0 55.488779L263.239891 397.656789 263.239891 342.16801 263.239891 342.16801zM263.239891 484.46283l189.736319 0 0 51.909254L263.239891 536.372084 263.239891 484.46283 263.239891 484.46283zM263.239891 484.46283" p-id="8581" fill="#3d5c6b"></path></svg>