<?xml version="1.0" standalone="no"?><!DOCTYPE svg PUBLIC "-//W3C//DTD SVG 1.1//EN" "http://www.w3.org/Graphics/SVG/1.1/DTD/svg11.dtd"><svg t="1494404801754" class="icon" style="" viewBox="0 0 1024 1024" version="1.1" xmlns="http://www.w3.org/2000/svg" p-id="3233" xmlns:xlink="http://www.w3.org/1999/xlink" width="128" height="128"><defs><style type="text/css"></style></defs><path d="M962.56 698.368h-66.56v-197.12c0-14.336-11.264-25.6-25.6-25.6h-332.288v-150.016H604.16c30.208 0 54.784-24.576 54.784-54.784v-183.808c0-30.208-24.576-54.784-54.784-54.784h-184.32c-30.208 0-54.784 24.576-54.784 54.784v183.808c0 30.208 24.576 54.784 54.784 54.784h66.56v150.016h-332.8c-14.336 0-25.6 11.264-25.6 25.6v197.12h-66.56c-30.208 0-54.784 24.576-54.784 54.784v183.808c0 30.208 24.576 54.784 54.784 54.784h183.808c30.208 0 54.784-24.576 54.784-54.784V753.152c0-30.208-24.576-54.784-54.784-54.784h-66.56v-171.52h307.712l0.512 171.52H419.84c-30.208 0-54.784 24.576-54.784 54.784v183.808c0 30.208 24.576 54.784 54.784 54.784h184.32c30.208 0 54.784-24.576 54.784-54.784V753.152c0-30.208-24.576-54.784-54.784-54.784h-65.536l-0.512-171.52H844.8v171.52h-66.56c-30.208 0-54.784 24.576-54.784 54.784v183.808c0 30.208 24.576 54.784 54.784 54.784h184.32c30.208 0 54.784-24.576 54.784-54.784V753.152c-0.512-30.208-25.088-54.784-54.784-54.784z" fill="#3d5c6b" p-id="3234"></path></svg>