<?xml version="1.0" standalone="no"?><!DOCTYPE svg PUBLIC "-//W3C//DTD SVG 1.1//EN" "http://www.w3.org/Graphics/SVG/1.1/DTD/svg11.dtd"><svg t="1494406745453" class="icon" style="" viewBox="0 0 1024 1024" version="1.1" xmlns="http://www.w3.org/2000/svg" p-id="8432" xmlns:xlink="http://www.w3.org/1999/xlink" width="128" height="128"><defs><style type="text/css"></style></defs><path d="M210.816251 301.172656c-66.530078 0-120.464966 53.934888-120.464966 120.476913l0 481.878638 180.700863 0L271.052147 542.114535c0-58.012965 21.347822-110.526201 55.500754-152.112513C312.590673 338.915558 266.334925 301.172656 210.816251 301.172656zM813.171802 301.172656c-55.5127 0-101.774422 37.743755-115.730677 88.829366 34.147812 41.586312 55.500754 94.093575 55.500754 152.112513l0 361.413672 180.706836 0L933.648715 421.649569C933.649569 355.107544 879.708707 301.172656 813.171802 301.172656zM511.994027 361.407699c66.536051 0 120.476913-53.934888 120.476913-120.464966 0-66.542025-53.940862-120.476913-120.476913-120.476913S391.517114 174.400708 391.517114 240.942733C391.517114 307.47281 445.457975 361.407699 511.994027 361.407699zM210.816251 0c-66.530078 0-120.464966 53.928915-120.464966 120.464966 0 66.542025 53.934888 120.476913 120.464966 120.476913 22.781421 0 43.845083-6.697808 62.018508-17.685319 3.764904-50.995158 23.142381-97.184346 53.718142-134.434021C312.590673 37.737782 266.334925 0 210.816251 0zM813.171802 240.942733c66.536051 0 120.476913-53.934888 120.476913-120.476913 0-66.536051-53.940862-120.464966-120.476913-120.464966-55.5127 0-101.774422 37.737782-115.730677 88.823393 30.581735 37.249676 49.953238 83.43801 53.718142 134.434021C769.332692 234.244925 790.397208 240.942733 813.171802 240.942733zM511.994027 421.649569c-99.798104 0-180.706836 80.896786-180.706836 180.700863l0 421.649569 361.419645 0L692.706836 602.351285C692.706836 502.546355 611.798957 421.649569 511.994027 421.649569z" p-id="8433" fill="#3d5c6b"></path></svg>