<?xml version="1.0" standalone="no"?><!DOCTYPE svg PUBLIC "-//W3C//DTD SVG 1.1//EN" "http://www.w3.org/Graphics/SVG/1.1/DTD/svg11.dtd"><svg t="1494405005140" class="icon" style="" viewBox="0 0 1024 1024" version="1.1" xmlns="http://www.w3.org/2000/svg" p-id="3522" xmlns:xlink="http://www.w3.org/1999/xlink" width="128" height="128"><defs><style type="text/css"></style></defs><path d="M609.088 737.664c-49.408-13.12-105.408-16.576-144.512-69.568 0 0-19.968-23.168 25.216-79.744 45.44-56.768 49.216-146.752 37.76-216.32C516.352 302.464 452.096 256 385.408 256c-66.624 0-130.88 46.464-142.208 116.032-11.52 69.568-7.68 159.552 37.76 216.32 45.248 56.576 25.28 79.744 25.28 79.744-38.912 52.48-94.4 56.32-143.552 69.248-19.456 5.248-38.08 11.84-54.144 23.552-56.96 41.216-42.944 135.104-42.944 135.104h639.616s13.952-93.888-42.88-135.04c-15.744-11.52-34.048-17.92-53.184-23.296z m256.192 0.32c-49.92-13.44-164.48-92.864-119.68-149.76 45.44-56.384 49.28-146.56 37.76-216.384C772.48 302.784 707.84 256 641.28 256c-29.44 0-58.88 9.664-83.2 26.88 16.64 23.104 27.52 49.984 32.64 78.784 7.68 47.296 18.56 161.856-38.4 248.896 0 29.44 0 29.44 12.8 49.984 9.6 3.136 19.84 5.76 32 8.32 9.6 2.56 19.2 4.416 28.16 6.976 23.68 6.464 49.92 15.36 74.88 33.28 74.88 54.4 72.32 154.304 69.76 186.88h191.36s14.08-94.016-42.88-135.04c-16-11.52-33.92-17.856-53.12-22.976z" p-id="3523" fill="#3d5c6b"></path></svg>