<?xml version="1.0" encoding="utf-8"?>
<!-- Generator: Adobe Illustrator 16.0.0, SVG Export Plug-In . SVG Version: 6.00 Build 0)  -->
<!DOCTYPE svg PUBLIC "-//W3C//DTD SVG 1.1//EN" "http://www.w3.org/Graphics/SVG/1.1/DTD/svg11.dtd">
<svg version="1.1" id="图层_1" xmlns="http://www.w3.org/2000/svg" xmlns:xlink="http://www.w3.org/1999/xlink" x="0px" y="0px"
	 width="100px" height="100px" viewBox="0 0 100 100" enable-background="new 0 0 100 100" xml:space="preserve">
<g>
	
		<linearGradient id="02_node_atm_router_SVGID_1_" gradientUnits="userSpaceOnUse" x1="495.9316" y1="800.5264" x2="594.709" y2="800.5264" gradientTransform="matrix(1 0 0 1 -495.3203 -740.9199)">
		<stop  offset="0" style="stop-color:#314F5C"/>
		<stop  offset="0.5172" style="stop-color:#547482"/>
		<stop  offset="1" style="stop-color:#314F5C"/>
	</linearGradient>
	<path fill="url(#02_node_atm_router_SVGID_1_)" d="M99.389,35.935c0,10.605-22.115,19.209-49.389,19.209c-27.274,0-49.388-8.604-49.388-19.209v28.133
		c0,10.604,22.113,19.209,49.388,19.209c27.271,0,49.389-8.604,49.389-19.209V35.935z"/>
	<path fill="#608293" d="M50,55.145c27.271,0,49.389-8.604,49.389-19.209S77.271,16.723,50,16.723
		c-27.274,0-49.388,8.608-49.388,19.211C0.612,46.536,22.726,55.145,50,55.145"/>
	<path fill="#EDEDED" d="M39.181,28.243l4.14,6.202L27.685,38.06l3.416-2.85L6.945,31.083l6.051-4.542l23.323,3.946L39.181,28.243"
		/>
	<path fill="#EDEDED" d="M61.189,43.282l-2.818-6.392l14.104-2.819l-2.447,2.192l23.51,4.01l-5.646,4.511l-23.356-4.381
		L61.189,43.282"/>
	<path fill="#EDEDED" d="M53.479,24.862l15.795-4.331l0.189,6.765l-3.945-0.745l-7.711,6.396l-7.357-1.076l7.953-6.254
		L53.479,24.862"/>
	<path fill="#EDEDED" d="M46.713,49.114L31.664,51.93l-0.563-6.957l4.328,0.947l8.275-7.075l7.328,1.244l-8.84,7.702L46.713,49.114"
		/>
	<path fill="#EDEDED" d="M50.49,68.566l8.551,6.701l3.992-0.013v-1.758l9.07,3.217l-9.07,3.211v-1.811l-5.168-0.011l-9.777-7.66
		l-9.776,7.66l-5.168,0.011v1.811l-9.073-3.211l9.073-3.217v1.758l3.989,0.013l8.554-6.701l-8.554-6.711l-3.989,0.021v1.756
		l-9.073-3.213l9.073-3.213v1.811l5.168,0.01l9.776,7.646l9.777-7.646l5.168-0.01v-1.811l9.07,3.213l-9.07,3.213v-1.756
		l-3.992-0.021L50.49,68.566"/>
</g>
</svg>
