<?xml version="1.0" encoding="utf-8"?>
<!-- Generator: Adobe Illustrator 16.0.0, SVG Export Plug-In . SVG Version: 6.00 Build 0)  -->
<!DOCTYPE svg PUBLIC "-//W3C//DTD SVG 1.1//EN" "http://www.w3.org/Graphics/SVG/1.1/DTD/svg11.dtd">
<svg version="1.1" id="图层_1" xmlns="http://www.w3.org/2000/svg" xmlns:xlink="http://www.w3.org/1999/xlink" x="0px" y="0px"
	 width="100px" height="100px" viewBox="0 0 100 100" enable-background="new 0 0 100 100" xml:space="preserve">
<path fill="none" d="M8392.75,201.75"/>
<path fill="none" d="M-7990.25,201.75"/>
<path fill="#FFFFFF" d="M174.407,193.407"/>
<polygon fill="#204A59" points="71.271,0 59.723,10.985 59.687,95.378 71.325,82.022 "/>
<polygon fill="#608293" points="33.375,-0.097 71.81,-0.058 59.703,11.536 59.638,11.526 59.117,11.683 58.733,11.799 
	58.253,11.935 57.698,12.093 57.064,12.25 56.354,12.406 55.566,12.583 54.723,12.758 53.78,12.916 52.783,13.091 51.707,13.248 
	50.556,13.385 49.348,13.521 48.08,13.619 46.734,13.718 45.335,13.775 43.875,13.815 42.358,13.815 40.765,13.795 39.134,13.718 
	37.444,13.619 35.696,13.484 33.911,13.266 32.069,13.031 30.166,12.719 28.23,12.367 26.25,11.956 24.216,11.486 22.143,10.937 "/>
<linearGradient id="SVGID_1_" gradientUnits="userSpaceOnUse" x1="554.4551" y1="-1871.918" x2="592.1748" y2="-1871.918" gradientTransform="matrix(1 0 0 -1 -532.3008 -1855.7998)">
	<stop  offset="0" style="stop-color:#314F5C"/>
	<stop  offset="0.5172" style="stop-color:#57798B"/>
	<stop  offset="1" style="stop-color:#314F5C"/>
</linearGradient>
<path fill="url(#SVGID_1_)" d="M59.69,11.521l0.184,7.783l-0.397-0.313l-0.596,0.168l-0.455,0.126l-0.516,0.146l-0.633,0.148
	l-0.707,0.166l-0.787,0.188l-0.881,0.167l-0.937,0.188l-1.016,0.168l-1.089,0.188l-1.148,0.146l-1.224,0.148l-1.262,0.146
	l-1.337,0.127l-1.379,0.083l-1.436,0.086l-1.492,0.04l-13.236-1.09l-7.189-0.982l-0.002-8.537
	C22.163,10.816,41.732,16.12,59.69,11.521z"/>
<linearGradient id="SVGID_2_" gradientUnits="userSpaceOnUse" x1="554.4434" y1="-1912.6748" x2="592.0684" y2="-1912.6748" gradientTransform="matrix(1 0 0 -1 -532.3008 -1855.7998)">
	<stop  offset="0" style="stop-color:#314F5C"/>
	<stop  offset="0.5172" style="stop-color:#57798B"/>
	<stop  offset="1" style="stop-color:#314F5C"/>
</linearGradient>
<polyline fill="url(#SVGID_2_)" points="59.672,95.682 59.768,14.125 22.199,14.125 22.143,96.784 25.343,99.12 30.373,99.625 
	51.402,99.625 56.545,99.063 "/>
<polygon fill="#204A59" stroke="#EDEDED" stroke-width="1.5" stroke-miterlimit="10" points="26.328,29.476 26.328,38.296 
	55.723,38.296 55.723,29.476 "/>
<polygon fill="#EDEDED" points="22.181,62.9 25.33,63.794 30.228,64.475 51.459,64.462 56.528,63.776 59.687,62.876 59.687,60.724 
	56.487,61.777 51.418,62.541 30.228,62.537 25.33,61.784 22.183,60.726 "/>
<polygon fill="#EDEDED" points="22.181,75.026 25.33,75.921 30.228,76.603 51.459,76.589 56.528,75.901 59.687,75.004 
	59.687,72.849 56.487,73.905 51.418,74.669 30.228,74.662 25.33,73.912 22.183,72.853 "/>
<polygon fill="#EDEDED" points="22.275,87.153 25.425,88.049 30.323,88.729 51.554,88.716 56.624,88.029 59.78,87.132 59.78,84.976 
	56.583,86.03 51.514,86.796 30.323,86.79 25.425,86.038 22.278,84.979 "/>
<path fill="#EDEDED" d="M22.176,21.894c0,0,20.31,3.982,37.591-0.021l-0.003,2.276c0,0-12.789,3.805-37.537,0.078L22.176,21.894z"/>
<polygon fill="#EDEDED" points="59.768,21.873 71.81,11.482 71.81,13.394 59.765,24.148 "/>
<path fill="none" d="M50.559,86.857c0.584-2.146,1.168-4.291,1.752-6.435c0.101-0.022,0.201-0.045,0.301-0.066
	c0.376,1.155,0.759,2.308,1.114,3.468c0.029,0.096-0.082,0.265-0.172,0.359c-0.907,0.957-1.823,1.906-2.736,2.857
	C50.731,86.981,50.646,86.919,50.559,86.857z"/>
<circle fill="#EDEDED" stroke="#204A59" stroke-width="1.5" stroke-miterlimit="10" cx="53.572" cy="76.26" r="22.39"/>
<g>
	<path fill="#314F5C" d="M59.305,66.811c-0.434,0.147-0.694,0.312-0.949,0.309c-1.636-0.024-2.428,0.893-2.139,2.498
		c0.517,2.843,3.537,6.01,6.278,6.582c1.654,0.347,2.615-0.441,2.517-2.129c-0.03-0.547,0.016-0.945,0.618-1.076
		c2.179,3.778,1.981,10.669-3.104,15.12c-4.875,4.259-12.313,4.183-17.18-0.195c-4.814-4.342-5.601-11.622-1.829-16.915
		C47.351,65.623,54.392,64.421,59.305,66.811z"/>
	<path fill="#314F5C" d="M67.506,66.791c-0.16,0.427-0.387,1.252-0.763,2.01c-0.909,1.84-2.04,3.526-3.654,4.857
		c-0.33,0.272-0.597,0.376-1.01,0.179c-1.718-0.839-2.925-2.123-3.504-3.956c-0.06-0.203-0.055-0.546,0.072-0.67
		c1.999-1.968,4.158-3.688,7.025-4.184C66.887,64.812,67.526,65.315,67.506,66.791z"/>
	<path fill="#314F5C" d="M45.539,66.23c-1.313,1.443-2.577,2.834-3.897,4.289c-0.993-1.214-2.002-2.57-2.003-4.402
		c0-1.093,0.603-1.658,1.709-1.669C43.043,64.438,44.344,65.341,45.539,66.23z"/>
</g>
</svg>
