<?xml version="1.0" encoding="utf-8"?>
<!-- Generator: Adobe Illustrator 16.0.0, SVG Export Plug-In . SVG Version: 6.00 Build 0)  -->
<!DOCTYPE svg PUBLIC "-//W3C//DTD SVG 1.1//EN" "http://www.w3.org/Graphics/SVG/1.1/DTD/svg11.dtd">
<svg version="1.1" id="图层_1" xmlns="http://www.w3.org/2000/svg" xmlns:xlink="http://www.w3.org/1999/xlink" x="0px" y="0px"
	 width="100px" height="100px" viewBox="0 0 100 100" enable-background="new 0 0 100 100" xml:space="preserve">
<path fill="none" d="M8392.75,201.75"/>
<path fill="none" d="M-7990.25,201.75"/>
<path fill="#FFFFFF" d="M174.407,193.407"/>
<polygon fill="#204A59" points="66.104,0.236 54.556,11.221 54.52,95.613 66.158,82.258 "/>
<polygon fill="#608293" points="28.208,0.139 66.643,0.178 54.536,11.771 54.471,11.762 53.95,11.918 53.566,12.035 53.086,12.17 
	52.531,12.329 51.897,12.485 51.188,12.642 50.399,12.818 49.556,12.994 48.613,13.151 47.616,13.327 46.54,13.484 45.389,13.621 
	44.181,13.757 42.913,13.855 41.567,13.954 40.168,14.011 38.708,14.051 37.191,14.051 35.598,14.031 33.967,13.954 32.277,13.855 
	30.529,13.72 28.744,13.502 26.902,13.267 24.999,12.955 23.063,12.603 21.083,12.191 19.049,11.722 16.976,11.173 "/>
<linearGradient id="SVGID_1_" gradientUnits="userSpaceOnUse" x1="549.2881" y1="-1872.1538" x2="587.0078" y2="-1872.1538" gradientTransform="matrix(1 0 0 -1 -532.3008 -1855.7998)">
	<stop  offset="0" style="stop-color:#314F5C"/>
	<stop  offset="0.5172" style="stop-color:#57798B"/>
	<stop  offset="1" style="stop-color:#314F5C"/>
</linearGradient>
<path fill="url(#SVGID_1_)" d="M54.523,11.757l0.184,7.783l-0.397-0.313l-0.596,0.168l-0.455,0.126l-0.516,0.146l-0.633,0.148
	l-0.707,0.166l-0.787,0.188l-0.881,0.167l-0.937,0.188l-1.016,0.168l-1.089,0.188l-1.148,0.146l-1.224,0.148l-1.262,0.146
	l-1.337,0.127l-1.379,0.083l-1.436,0.086l-1.492,0.04l-13.236-1.09l-7.189-0.982l-0.002-8.537
	C16.996,11.052,36.565,16.355,54.523,11.757z"/>
<linearGradient id="SVGID_2_" gradientUnits="userSpaceOnUse" x1="549.2773" y1="-1912.9111" x2="586.9014" y2="-1912.9111" gradientTransform="matrix(1 0 0 -1 -532.3008 -1855.7998)">
	<stop  offset="0" style="stop-color:#314F5C"/>
	<stop  offset="0.5172" style="stop-color:#57798B"/>
	<stop  offset="1" style="stop-color:#314F5C"/>
</linearGradient>
<polyline fill="url(#SVGID_2_)" points="54.505,95.918 54.601,14.361 17.032,14.361 16.976,97.02 20.176,99.355 25.206,99.861 
	46.235,99.861 51.378,99.299 "/>
<polygon fill="#204A59" stroke="#EDEDED" stroke-width="1.5" stroke-miterlimit="10" points="21.161,29.711 21.161,38.532 
	50.556,38.532 50.556,29.711 "/>
<polygon fill="#EDEDED" points="17.014,63.137 20.163,64.029 25.061,64.711 46.292,64.697 51.361,64.012 54.52,63.111 54.52,60.959 
	51.32,62.014 46.251,62.777 25.061,62.773 20.163,62.02 17.016,60.961 "/>
<polygon fill="#EDEDED" points="17.014,75.262 20.163,76.156 25.061,76.838 46.292,76.824 51.361,76.137 54.52,75.24 54.52,73.084 
	51.32,74.141 46.251,74.904 25.061,74.898 20.163,74.148 17.016,73.088 "/>
<polygon fill="#EDEDED" points="17.108,87.389 20.258,88.285 25.156,88.965 46.387,88.951 51.457,88.266 54.613,87.367 
	54.613,85.211 51.416,86.266 46.347,87.031 25.156,87.025 20.258,86.273 17.111,85.215 "/>
<path fill="#EDEDED" d="M17.009,22.129c0,0,20.31,3.982,37.591-0.021l-0.003,2.276c0,0-12.789,3.805-37.537,0.078L17.009,22.129z"/>
<polygon fill="#EDEDED" points="54.601,22.109 66.643,11.718 66.643,13.63 54.598,24.384 "/>
<path fill="none" d="M45.392,87.094c0.584-2.146,1.168-4.291,1.752-6.436c0.101-0.021,0.201-0.045,0.301-0.066
	c0.376,1.156,0.759,2.309,1.114,3.469c0.029,0.096-0.082,0.264-0.172,0.359c-0.907,0.957-1.823,1.906-2.736,2.857
	C45.564,87.217,45.479,87.154,45.392,87.094z"/>
<circle fill="#EDEDED" stroke="#204A59" stroke-width="1.5" stroke-miterlimit="10" cx="48.134" cy="74.968" r="22.39"/>
<g>
	<path fill="#314F5C" d="M43.448,59.438c-2.783,7.652-5.495,15.116-8.312,22.866c1.253,0,2.321,0.067,3.363-0.045
		c0.279-0.031,0.581-0.592,0.723-0.967c1.174-3.156,2.313-6.329,3.468-9.494c0.666-1.832,0.669-1.83,2.948-1.603
		c-1.438,3.993-2.862,7.938-4.376,12.134c1.248,0,2.241,0.069,3.215-0.042c0.305-0.034,0.676-0.511,0.808-0.868
		c1.304-3.482,2.595-6.97,3.821-10.482c0.671-1.931-0.235-3.153-2.31-3.252c-0.78-0.034-1.565-0.008-2.497-0.008
		c0.145-0.508,0.222-0.876,0.346-1.228c0.636-1.771,1.289-3.535,1.926-5.305c1.003-2.758,1.003-2.758,3.922-2.338
		c7.996,1.154,13.933,8.012,13.949,16.117c0.013,8.219-5.841,15.081-13.907,16.272c-0.813,0.118-1.645,0.083-2.702,0.135
		c1.078-2.966,2.069-5.749,3.128-8.51c0.095-0.241,0.617-0.428,0.95-0.442c1.093-0.06,2.188-0.035,3.28-0.026
		c1.351,0.015,2.238-0.583,2.695-1.862c1.139-3.17,2.316-6.328,3.434-9.503c0.685-1.943-0.174-3.22-2.222-3.296
		c-1.84-0.064-3.684,0.02-5.518-0.032c-0.877-0.021-1.081,0.529-1.313,1.177c-2.507,6.904-5.052,13.803-7.518,20.727
		c-0.38,1.063-0.767,1.332-1.876,0.959c-6.348-2.15-10.92-8.255-11.042-14.864c-0.132-7.278,3.952-13.502,10.454-15.918
		C42.592,59.625,42.923,59.573,43.448,59.438z"/>
	<path fill="#314F5C" d="M57.868,70.278c-1.131,3.088-2.187,6.181-3.451,9.186c-0.184,0.436-1.389,0.439-2.12,0.646
		c-0.084-0.109-0.168-0.222-0.251-0.331c0.374-1.05,0.744-2.099,1.127-3.152c0.598-1.643,1.202-3.284,1.8-4.927
		C55.647,69.846,55.672,69.83,57.868,70.278z"/>
</g>
</svg>
