<?xml version="1.0" encoding="utf-8"?>
<!-- Generator: Adobe Illustrator 16.0.0, SVG Export Plug-In . SVG Version: 6.00 Build 0)  -->
<!DOCTYPE svg PUBLIC "-//W3C//DTD SVG 1.1//EN" "http://www.w3.org/Graphics/SVG/1.1/DTD/svg11.dtd">
<svg version="1.1" id="图层_1" xmlns="http://www.w3.org/2000/svg" xmlns:xlink="http://www.w3.org/1999/xlink" x="0px" y="0px"
	 width="100px" height="100px" viewBox="0 0 100 100" enable-background="new 0 0 100 100" xml:space="preserve">
<path fill="none" d="M8392.75,201.75"/>
<path fill="none" d="M-7990.25,201.75"/>
<path fill="#FFFFFF" d="M174.407,193.407"/>
<polygon fill="#204A59" points="71.468,0.236 59.92,11.221 59.884,95.614 71.522,82.259 "/>
<polygon fill="#608293" points="33.572,0.139 72.007,0.178 59.9,11.772 59.835,11.762 59.314,11.919 58.931,12.036 58.45,12.171 
	57.896,12.329 57.262,12.486 56.552,12.643 55.764,12.819 54.92,12.995 53.978,13.152 52.98,13.327 51.904,13.484 50.753,13.621 
	49.545,13.757 48.277,13.855 46.932,13.954 45.533,14.012 44.072,14.051 42.556,14.051 40.962,14.032 39.331,13.954 37.641,13.855 
	35.893,13.72 34.108,13.502 32.267,13.268 30.363,12.956 28.427,12.603 26.448,12.192 24.413,11.723 22.341,11.173 "/>
<linearGradient id="SVGID_1_" gradientUnits="userSpaceOnUse" x1="554.6523" y1="-1872.1543" x2="592.3721" y2="-1872.1543" gradientTransform="matrix(1 0 0 -1 -532.3008 -1855.7998)">
	<stop  offset="0" style="stop-color:#314F5C"/>
	<stop  offset="0.5172" style="stop-color:#57798B"/>
	<stop  offset="1" style="stop-color:#314F5C"/>
</linearGradient>
<path fill="url(#SVGID_1_)" d="M59.888,11.757l0.184,7.783l-0.397-0.313l-0.596,0.168l-0.455,0.126l-0.516,0.146l-0.633,0.148
	l-0.707,0.166l-0.787,0.188L55.1,20.339l-0.937,0.188l-1.016,0.168l-1.089,0.188L50.91,21.03l-1.225,0.148l-1.262,0.146
	l-1.338,0.127l-1.379,0.083l-1.436,0.086l-1.492,0.04l-13.236-1.09l-7.189-0.982l-0.002-8.537
	C22.36,11.053,41.93,16.356,59.888,11.757z"/>
<linearGradient id="SVGID_2_" gradientUnits="userSpaceOnUse" x1="554.6416" y1="-1912.9111" x2="592.2656" y2="-1912.9111" gradientTransform="matrix(1 0 0 -1 -532.3008 -1855.7998)">
	<stop  offset="0" style="stop-color:#314F5C"/>
	<stop  offset="0.5172" style="stop-color:#57798B"/>
	<stop  offset="1" style="stop-color:#314F5C"/>
</linearGradient>
<polyline fill="url(#SVGID_2_)" points="59.869,95.918 59.965,14.362 22.396,14.362 22.341,97.021 25.54,99.356 30.57,99.861 
	51.6,99.861 56.742,99.299 "/>
<polygon fill="#204A59" stroke="#EDEDED" stroke-width="1.5" stroke-miterlimit="10" points="26.525,29.712 26.525,38.533 
	55.92,38.533 55.92,29.712 "/>
<polygon fill="#EDEDED" points="22.378,63.137 25.526,64.03 30.426,64.711 51.656,64.698 56.726,64.013 59.884,63.112 59.884,60.96 
	56.685,62.014 51.615,62.777 30.426,62.773 25.526,62.021 22.38,60.962 "/>
<polygon fill="#EDEDED" points="22.378,75.263 25.526,76.157 30.426,76.839 51.656,76.825 56.726,76.138 59.884,75.24 
	59.884,73.085 56.685,74.142 51.615,74.905 30.426,74.898 25.526,74.148 22.38,73.089 "/>
<polygon fill="#EDEDED" points="22.473,87.39 25.622,88.285 30.521,88.965 51.751,88.952 56.821,88.266 59.978,87.368 
	59.978,85.212 56.78,86.267 51.711,87.032 30.521,87.026 25.622,86.274 22.476,85.215 "/>
<path fill="#EDEDED" d="M22.374,22.13c0,0,20.31,3.982,37.591-0.021l-0.003,2.276c0,0-12.789,3.805-37.537,0.078L22.374,22.13z"/>
<polygon fill="#EDEDED" points="59.965,22.109 72.007,11.719 72.007,13.63 59.962,24.384 "/>
<path fill="none" d="M50.756,87.094c0.584-2.146,1.168-4.291,1.752-6.435c0.101-0.022,0.201-0.045,0.301-0.066
	c0.376,1.155,0.759,2.308,1.114,3.468c0.029,0.096-0.082,0.265-0.172,0.359c-0.907,0.957-1.823,1.906-2.736,2.857
	C50.929,87.218,50.844,87.155,50.756,87.094z"/>
<g>
	<path fill="#EDEDED" d="M85.429,86.907c0,1.979-1.572,3.598-3.498,3.598H33.16c-1.923,0-3.498-1.618-3.498-3.598V70.714
		c0-1.979,1.574-3.597,3.498-3.597h48.768c1.926,0,3.499,1.617,3.499,3.597L85.429,86.907L85.429,86.907z"/>
	<path fill="#EDEDED" stroke="#204A59" stroke-width="1.5" stroke-miterlimit="10" d="M85.714,86.92
		c0,1.979-1.572,3.596-3.499,3.596h-48.77c-1.923,0-3.499-1.616-3.499-3.596V70.726c0-1.978,1.575-3.597,3.499-3.597h48.767
		c1.926,0,3.5,1.619,3.5,3.597L85.714,86.92L85.714,86.92z"/>
</g>
<g>
	<path fill="#314F5C" d="M78.184,86.851c-1.897,0-3.762,0-5.711,0c0-2.866,0-5.728,0-8.587c-0.058-0.011-0.115-0.021-0.173-0.03
		c-1.054,2.967-2.11,5.934-3.208,9.024c-1.093-3.064-2.13-5.98-3.17-8.896c-0.063,0.008-0.126,0.018-0.187,0.027
		c0,2.802,0,5.605,0,8.448c-1.943,0-3.781,0-5.673,0c0-1.051,0-2.113,0-3.24c0.671,0,1.345,0,2.067,0c0-3.323,0-6.582,0-9.906
		c-0.706,0-1.38,0-2.083,0c0-1.111,0-2.157,0-3.251c2.104,0,4.205,0,6.39,0c0.843,2.391,1.705,4.828,2.564,7.271
		c0.058,0.002,0.112,0.005,0.167,0.005c0.162-0.413,0.332-0.826,0.479-1.245c0.646-1.84,1.289-3.679,1.922-5.52
		c0.115-0.333,0.225-0.572,0.668-0.565c1.892,0.023,3.783,0.01,5.678,0.013c0.082,0,0.164,0.027,0.276,0.046
		c0,1.068,0,2.112,0,3.223c-0.72,0-1.415,0-2.151,0c0,3.328,0,6.59,0,9.912c0.712,0,1.407,0,2.144,0
		C78.184,84.678,78.184,85.724,78.184,86.851z"/>
	<path fill="#314F5C" d="M46.309,86.874c0-1.121,0-2.167,0-3.267c0.72,0,1.415,0,2.163,0c0-3.315,0-6.573,0-9.891
		c-0.701,0-1.396,0-2.141,0c0-1.117,0-2.18,0-3.288c0.189-0.012,0.379-0.033,0.57-0.034c2.372-0.002,4.75-0.057,7.121,0.025
		c0.985,0.034,2.042,0.189,2.927,0.592c2.053,0.934,2.693,3.777,1.385,5.849c-0.413,0.654-1.005,1.198-1.542,1.825
		c0.192,0.137,0.461,0.307,0.709,0.503c1.405,1.141,1.697,2.678,1.389,4.34c-0.32,1.742-1.433,2.808-3.167,3.192
		c-0.405,0.089-0.824,0.146-1.24,0.146C51.782,86.882,49.08,86.874,46.309,86.874z M55.239,73.722c-1.086,0-2.109,0-3.189,0
		c0,1.084,0,2.141,0,3.206c1.096,0,2.133,0,3.189,0C55.239,75.849,55.239,74.822,55.239,73.722z M55.234,80.333
		c-1.093,0-2.112,0-3.158,0c0,1.082,0,2.122,0,3.18c1.08,0,2.118,0,3.158,0C55.234,82.431,55.234,81.403,55.234,80.333z"/>
	<path fill="#314F5C" d="M37.186,86.824c0-1.077,0-2.105,0-3.214c0.7,0,1.389,0,2.118,0c0-3.323,0-6.572,0-9.899
		c-0.685,0-1.375,0-2.1,0c0-1.125,0-2.17,0-3.267c2.605,0,5.208,0,7.849,0c0,1.063,0,2.105,0,3.213c-0.712,0-1.404,0-2.157,0
		c-0.019,0.245-0.046,0.435-0.046,0.62c-0.003,2.882,0.011,5.762-0.011,8.643c-0.005,0.513,0.119,0.729,0.661,0.678
		c0.5-0.045,1.006-0.009,1.551-0.009c0,1.086,0,2.132,0,3.235C42.454,86.824,39.852,86.824,37.186,86.824z"/>
</g>
</svg>
