<?xml version="1.0" encoding="utf-8"?>
<!-- Generator: Adobe Illustrator 16.0.0, SVG Export Plug-In . SVG Version: 6.00 Build 0)  -->
<!DOCTYPE svg PUBLIC "-//W3C//DTD SVG 1.1//EN" "http://www.w3.org/Graphics/SVG/1.1/DTD/svg11.dtd">
<svg version="1.1" id="图层_1" xmlns="http://www.w3.org/2000/svg" xmlns:xlink="http://www.w3.org/1999/xlink" x="0px" y="0px"
	 width="100px" height="100px" viewBox="0 0 100 100" enable-background="new 0 0 100 100" xml:space="preserve">
<path fill="none" d="M8392.75,201.75"/>
<path fill="none" d="M-7990.25,201.75"/>
<path fill="#FFFFFF" d="M174.407,193.407"/>
<polygon fill="#204A59" points="72.218,0.235 60.67,11.22 60.634,95.613 72.272,82.258 "/>
<polygon fill="#608293" points="34.322,0.138 72.757,0.177 60.65,11.771 60.585,11.761 60.064,11.918 59.681,12.035 59.2,12.17 
	58.646,12.328 58.012,12.485 57.302,12.642 56.514,12.818 55.67,12.994 54.728,13.151 53.73,13.326 52.654,13.483 51.503,13.62 
	50.295,13.756 49.027,13.854 47.682,13.953 46.283,14.011 44.822,14.05 43.306,14.05 41.712,14.031 40.081,13.953 38.391,13.854 
	36.643,13.719 34.858,13.501 33.017,13.267 31.113,12.955 29.177,12.602 27.198,12.191 25.163,11.722 23.09,11.172 "/>
<linearGradient id="SVGID_1_" gradientUnits="userSpaceOnUse" x1="555.4023" y1="-1872.1533" x2="593.1221" y2="-1872.1533" gradientTransform="matrix(1 0 0 -1 -532.3008 -1855.7998)">
	<stop  offset="0" style="stop-color:#314F5C"/>
	<stop  offset="0.5172" style="stop-color:#57798B"/>
	<stop  offset="1" style="stop-color:#314F5C"/>
</linearGradient>
<path fill="url(#SVGID_1_)" d="M60.638,11.756l0.184,7.783l-0.397-0.313l-0.596,0.168l-0.455,0.126l-0.516,0.146l-0.633,0.148
	l-0.707,0.166L56.73,20.17l-0.881,0.167l-0.937,0.188l-1.016,0.168l-1.089,0.188l-1.148,0.146l-1.224,0.148l-1.262,0.146
	l-1.337,0.127l-1.379,0.083l-1.436,0.086l-1.492,0.04l-13.236-1.09l-7.189-0.982l-0.002-8.537
	C23.11,11.052,42.68,16.355,60.638,11.756z"/>
<linearGradient id="SVGID_2_" gradientUnits="userSpaceOnUse" x1="555.3906" y1="-1912.9111" x2="593.0156" y2="-1912.9111" gradientTransform="matrix(1 0 0 -1 -532.3008 -1855.7998)">
	<stop  offset="0" style="stop-color:#314F5C"/>
	<stop  offset="0.5172" style="stop-color:#57798B"/>
	<stop  offset="1" style="stop-color:#314F5C"/>
</linearGradient>
<polyline fill="url(#SVGID_2_)" points="60.619,95.918 60.715,14.361 23.146,14.361 23.09,97.02 26.291,99.355 31.32,99.861 
	52.35,99.861 57.492,99.299 "/>
<polygon fill="#204A59" stroke="#EDEDED" stroke-width="1.5" stroke-miterlimit="10" points="27.275,29.711 27.275,38.532 
	56.67,38.532 56.67,29.711 "/>
<polygon fill="#EDEDED" points="23.128,63.137 26.277,64.029 31.175,64.711 52.406,64.697 57.476,64.012 60.634,63.111 
	60.634,60.959 57.435,62.014 52.365,62.777 31.175,62.773 26.277,62.02 23.13,60.961 "/>
<polygon fill="#EDEDED" points="23.128,75.262 26.277,76.156 31.175,76.838 52.406,76.824 57.476,76.137 60.634,75.24 
	60.634,73.084 57.435,74.141 52.365,74.904 31.175,74.898 26.277,74.148 23.13,73.088 "/>
<polygon fill="#EDEDED" points="23.223,87.389 26.372,88.285 31.271,88.965 52.501,88.951 57.571,88.266 60.728,87.367 
	60.728,85.211 57.53,86.266 52.461,87.031 31.271,87.025 26.372,86.273 23.226,85.215 "/>
<path fill="#EDEDED" d="M23.124,22.129c0,0,20.31,3.982,37.591-0.021l-0.003,2.276c0,0-12.789,3.805-37.537,0.078L23.124,22.129z"/>
<polygon fill="#EDEDED" points="60.715,22.108 72.757,11.718 72.757,13.629 60.712,24.383 "/>
<path fill="none" d="M51.506,87.094c0.584-2.146,1.168-4.291,1.752-6.436c0.101-0.021,0.201-0.045,0.301-0.066
	c0.376,1.156,0.759,2.309,1.114,3.469c0.029,0.096-0.082,0.264-0.172,0.359c-0.907,0.957-1.823,1.906-2.736,2.857
	C51.679,87.217,51.594,87.154,51.506,87.094z"/>
<circle fill="#EDEDED" stroke="#204A59" stroke-width="1.5" stroke-miterlimit="10" cx="54.187" cy="75.156" r="22.39"/>
<g>
	<path fill="#314F5C" d="M60.144,91.656c-0.577-0.434-1.108-0.926-1.717-1.293c-0.456-0.263-1.006-0.481-1.518-0.486
		c-1.593-0.03-3.191-0.008-4.777,0.142c-0.664,0.069-1.377,0.414-1.928,0.809c-0.894,0.638-1.758,0.768-2.794,0.468
		c-1.893-0.551-3.804-1.036-5.713-1.505c-1.499-0.364-1.641-0.7-1.252-2.176c0.187-0.726,0.108-1.556,0.003-2.321
		c-0.132-0.977,0.019-1.309,0.988-1.339c0.952-0.032,1.707-0.346,2.239-1.177c-0.103,0.921-0.528,1.362-1.401,1.441
		c-0.273,0.03-0.548,0.009-0.827,0.028c-0.731,0.04-1.04,0.362-0.736,0.993c0.501,1.048,0.585,2.012,0,3.05
		c-0.272,0.49,0.104,0.791,0.538,0.903c0.607,0.17,1.233,0.265,1.842,0.423c1.489,0.38,2.969,0.79,4.46,1.13
		c0.467,0.113,0.992,0.124,1.458,0.028c0.959-0.206,1.395-0.827,1.257-1.809c-0.089-0.61-0.229-1.279-0.552-1.783
		c-1.003-1.614-2.055-3.185-3.173-4.712c-0.564-0.773-1.277-1.491-2.649-0.979c0.135-0.813,0.219-1.469,0.367-2.106
		c0.065-0.28,0.313-0.523,0.405-0.802c0.989-3.063,2.695-5.733,4.548-8.33c0.262-0.374,0.281-0.979,0.278-1.47
		c-0.011-2.142-0.181-4.282-0.088-6.418c0.039-0.917,0.374-1.793,1.034-2.445c0.613-0.599,1.713-1.207,2.58-1.257
		c0.201-0.021,0.407,0,0.614,0c3.145-0.013,5.688,2.51,5.653,5.634c-0.038,3.186,0.88,5.956,3.042,8.365
		c1.811,2.008,2.659,4.522,2.988,7.183c0.116,0.915,0.105,1.872-0.883,2.468c-0.264,0.163-0.431,0.489-0.632,0.754
		c-0.751,1.007-2.782,1.331-3.344-0.335c-0.088-0.292-0.523-0.47-0.802-0.702c-0.192,0.302-0.487,0.586-0.566,0.923
		c-0.097,0.403-0.02,0.859-0.009,1.294c0.029,1.388,0.11,2.776,0.077,4.164c-0.026,0.87,0.033,1.675,0.833,2.185
		c0.774,0.489,1.588,0.309,2.224-0.228c1.366-1.15,2.91-1.946,4.598-2.482c0.029-0.008,0.054-0.022,0.078-0.039
		c0.318-0.309,0.641-0.618,0.956-0.938c-0.328-0.304-0.604-0.7-0.984-0.887c-1.373-0.684-1.681-1.175-1.517-2.884
		c0.111,0.26,0.179,0.389,0.207,0.523c0.184,0.95,0.712,1.626,1.56,2.105c1.34,0.752,1.337,1.428,0.005,2.256
		c-1.327,0.823-2.675,1.602-3.996,2.423c-0.624,0.381-1.227,0.81-1.831,1.215C60.906,91.656,60.528,91.656,60.144,91.656z
		 M50.814,66.67l-0.023-0.013c-0.155,0.196-0.363,0.376-0.474,0.609c-0.104,0.219-0.236,0.606-0.142,0.712
		c0.636,0.674,1.253,1.419,2.37,1.161c0.646-0.145,1.305-0.238,1.958-0.356c0.026,0.082,0.038,0.164,0.048,0.248
		c-1.085,0.208-2.17,0.421-3.27,0.64c0.451,0.573,1.054,0.835,1.734,0.619c0.748-0.24,1.45-0.621,2.182-0.927
		c0.259-0.104,0.537-0.181,0.802-0.269c-0.935,0.821-1.92,1.456-2.888,2.105c-0.685,0.456-1.223,0.321-1.7-0.31
		c-0.321-0.421-0.658-0.823-0.981-1.238c-0.316,0.729-0.56,1.365-0.86,1.973c-0.362,0.715-0.708,1.425-0.478,2.271
		c0.036,0.135-0.085,0.341-0.176,0.48c-1.085,1.637-1.842,3.369-1.738,5.389c0.015,0.382-0.099,0.769-0.166,1.324
		c-1.169-0.95-1.032-2.093-1.003-3.315c-0.719,1.229-0.422,2.854,0.581,3.718c1.195,1.021,2.391,2.023,3.589,3.03
		c1.034,0.87,0.975,1.559-0.196,2.202c-0.039,0.028-0.054,0.091-0.014,0.014c0.43,1.063,0.835,2.027,1.244,3.04
		c0.889-0.803-0.265-1.544-0.265-2.365c2.84,1.417,5.262,1.005,7.402-1.553c0.04,0.517,0.124,0.845,0.07,1.136
		c-0.108,0.564-0.33,1.108-0.422,1.675c-0.047,0.283,0.079,0.595,0.12,0.895c0.091-0.021,0.179-0.03,0.267-0.039
		c0.04-0.127,0.095-0.251,0.127-0.375c0.424-1.665,0.534-3.334,0.244-5.056c-0.169-0.95-0.233-2.044,1.137-2.352
		c0.096-0.03,0.189-0.192,0.231-0.311c0.232-0.628,0.749-0.796,1.319-0.807c0.473-0.011,0.951,0.06,1.557,0.116
		c-0.339-0.275-0.574-0.47-0.809-0.66c0.571-2.652-0.401-5.858-2.1-6.76c0.156,0.261,0.291,0.465,0.413,0.665
		c0.938,1.623,1.671,3.296,1.408,5.225c-0.083,0.62-0.3,1.182-1.032,1.17c-0.776-0.008-0.735-0.692-0.693-1.17
		c0.266-3.148-1.644-5.59-2.621-8.342c-0.021-0.05-0.054-0.097-0.092-0.138c-0.699-0.777-0.922-1.649-0.572-2.669
		c0.191-0.558-0.059-0.868-0.595-1.05c-0.519-0.178-1.028-0.392-1.512-0.637c-0.564-0.281-0.459-0.805-0.243-1.216
		c0.152-0.273,0.589-0.646,0.799-0.595c0.313,0.082,0.654,0.463,0.778,0.791c0.134,0.347,0.032,0.787,0.032,1.182
		c0.678,0.083,0.767,0.03,0.844-0.504c0.201-1.341-0.495-2.604-1.519-2.734c-1.083-0.139-1.615,0.558-1.909,2.509
		c-0.374,0-0.74,0-1.075,0c-0.181-0.625-0.289-1.231-0.546-1.765c-0.129-0.261-0.545-0.54-0.825-0.535
		c-0.269,0.007-0.617,0.317-0.782,0.596c-0.398,0.667-0.409,1.422-0.089,2.131C50.357,66.423,50.633,66.533,50.814,66.67z
		 M58.027,68.448c-0.176,0.657,0.189,1.014,0.606,1.296c0.114,0.089,0.36,0.003,0.561-0.003c-0.031-0.216,0.022-0.519-0.101-0.621
		C58.808,68.865,58.436,68.7,58.027,68.448z M56.906,61.213c0.024-0.081,0.048-0.159,0.066-0.237
		c-0.317-0.135-0.628-0.27-0.952-0.408c-0.124,0.342-0.24,0.688-0.41,1.17C56.175,61.504,56.534,61.356,56.906,61.213z"/>
	<path fill="#314F5C" d="M50.814,66.67c0.038-0.123,0.135-0.267,0.096-0.358c-0.083-0.195-0.335-0.346-0.341-0.531
		c-0.011-0.349,0.039-0.725,0.186-1.043c0.04-0.097,0.638-0.107,0.702-0.007c0.189,0.335,0.437,0.817,0.317,1.108
		c-0.14,0.346-0.635,0.559-0.977,0.824C50.795,66.657,50.814,66.67,50.814,66.67z"/>
</g>
</svg>
