<?xml version="1.0" encoding="utf-8"?>
<!-- Generator: Adobe Illustrator 16.0.0, SVG Export Plug-In . SVG Version: 6.00 Build 0)  -->
<!DOCTYPE svg PUBLIC "-//W3C//DTD SVG 1.1//EN" "http://www.w3.org/Graphics/SVG/1.1/DTD/svg11.dtd">
<svg version="1.1" id="图层_1" xmlns="http://www.w3.org/2000/svg" xmlns:xlink="http://www.w3.org/1999/xlink" x="0px" y="0px"
	 width="100px" height="100px" viewBox="0 0 100 100" enable-background="new 0 0 100 100" xml:space="preserve">
<path fill="none" d="M8392.75,201.75"/>
<path fill="none" d="M-7990.25,201.75"/>
<path fill="#FFFFFF" d="M174.407,193.407"/>
<polygon fill="#204A59" points="76.531,0.236 64.982,11.221 64.947,95.613 76.586,82.258 "/>
<polygon fill="#608293" points="38.628,0.198 76.531,0.237 64.592,11.781 64.527,11.771 64.013,11.927 63.637,12.044 63.162,12.178 
	62.615,12.336 61.989,12.492 61.29,12.648 60.512,12.824 59.68,12.999 58.751,13.155 57.767,13.33 56.706,13.486 55.571,13.623 
	54.379,13.758 53.129,13.856 51.803,13.954 50.423,14.012 48.982,14.051 47.488,14.051 45.916,14.031 44.308,13.954 42.641,13.856 
	40.917,13.721 39.157,13.504 37.341,13.271 35.464,12.96 33.554,12.609 31.603,12.199 29.596,11.732 27.553,11.185 "/>
<linearGradient id="SVGID_1_" gradientUnits="userSpaceOnUse" x1="559.7148" y1="-1872.1538" x2="597.4355" y2="-1872.1538" gradientTransform="matrix(1 0 0 -1 -532.3008 -1855.7998)">
	<stop  offset="0" style="stop-color:#314F5C"/>
	<stop  offset="0.5172" style="stop-color:#57798B"/>
	<stop  offset="1" style="stop-color:#314F5C"/>
</linearGradient>
<path fill="url(#SVGID_1_)" d="M64.951,11.757l0.184,7.783l-0.398-0.313l-0.596,0.168l-0.455,0.126l-0.516,0.146l-0.633,0.148
	l-0.707,0.166l-0.787,0.188l-0.881,0.167l-0.936,0.188l-1.016,0.168l-1.09,0.188l-1.148,0.146l-1.225,0.148l-1.262,0.146
	l-1.338,0.127l-1.379,0.083l-1.436,0.086l-1.492,0.04l-13.236-1.09l-7.189-0.982l-0.002-8.537
	C27.423,11.052,46.993,16.355,64.951,11.757z"/>
<linearGradient id="SVGID_2_" gradientUnits="userSpaceOnUse" x1="559.7051" y1="-1912.9111" x2="597.3281" y2="-1912.9111" gradientTransform="matrix(1 0 0 -1 -532.3008 -1855.7998)">
	<stop  offset="0" style="stop-color:#314F5C"/>
	<stop  offset="0.5172" style="stop-color:#57798B"/>
	<stop  offset="1" style="stop-color:#314F5C"/>
</linearGradient>
<polyline fill="url(#SVGID_2_)" points="64.932,95.918 65.027,14.361 27.459,14.361 27.404,97.02 30.603,99.355 35.633,99.861 
	56.662,99.861 61.805,99.299 "/>
<polygon fill="#204A59" stroke="#EDEDED" stroke-width="1.5" stroke-miterlimit="10" points="31.588,29.711 31.588,38.532 
	60.982,38.532 60.982,29.711 "/>
<polygon fill="#EDEDED" points="27.441,63.137 30.589,64.029 35.489,64.711 56.719,64.697 61.789,64.012 64.947,63.111 
	64.947,60.959 61.748,62.014 56.678,62.777 35.489,62.773 30.589,62.02 27.443,60.961 "/>
<polygon fill="#EDEDED" points="27.441,75.262 30.589,76.156 35.489,76.838 56.719,76.824 61.789,76.137 64.947,75.24 
	64.947,73.084 61.748,74.141 56.678,74.904 35.489,74.898 30.589,74.148 27.443,73.088 "/>
<polygon fill="#EDEDED" points="27.536,87.389 30.685,88.285 35.583,88.965 56.814,88.951 61.885,88.266 65.041,87.367 
	65.041,85.211 61.844,86.266 56.773,87.031 35.583,87.025 30.685,86.273 27.539,85.215 "/>
<path fill="#EDEDED" d="M27.437,22.129c0,0,20.31,3.982,37.59-0.021l-0.002,2.276c0,0-12.789,3.805-37.538,0.078L27.437,22.129z"/>
<polygon fill="#EDEDED" points="65.027,22.109 77.07,11.718 77.07,13.63 65.025,24.384 "/>
<path fill="none" d="M55.818,87.094c0.584-2.146,1.168-4.291,1.752-6.436c0.102-0.021,0.201-0.045,0.301-0.066
	c0.377,1.156,0.76,2.309,1.115,3.469c0.029,0.096-0.082,0.264-0.172,0.359c-0.908,0.957-1.824,1.906-2.736,2.857
	C55.992,87.217,55.906,87.154,55.818,87.094z"/>
<g>
	<path fill="#EDEDED" d="M90.35,86.675c0,1.98-1.572,3.598-3.498,3.598H38.081c-1.923,0-3.498-1.617-3.498-3.598V70.481
		c0-1.979,1.574-3.596,3.498-3.596H86.85c1.926,0,3.498,1.617,3.498,3.596L90.35,86.675L90.35,86.675z"/>
	<path fill="#EDEDED" stroke="#204A59" stroke-width="1.5" stroke-miterlimit="10" d="M90.635,86.688
		c0,1.979-1.572,3.596-3.498,3.596H38.366c-1.923,0-3.499-1.617-3.499-3.596V70.493c0-1.977,1.575-3.596,3.499-3.596h48.767
		c1.926,0,3.5,1.619,3.5,3.596L90.635,86.688L90.635,86.688z"/>
</g>
<g>
	<path fill="#314F5C" d="M38.971,73.145c0.201,0.184,0.406,0.362,0.605,0.547c1.727,1.594,3.453,3.187,5.177,4.784
		c0.465,0.429,0.93,0.86,1.394,1.29c0.034,0.03,0.068,0.061,0.127,0.11c0-2.196,0-4.363,0-6.538c0.638,0,1.256,0,1.887,0
		c0,0.058,0,0.105,0,0.156c0,3.563,0,7.13,0,10.693c0,0.054,0.004,0.107,0.007,0.16c-0.016,0-0.032,0-0.047,0
		c-0.028-0.032-0.053-0.071-0.085-0.102c-0.468-0.433-0.937-0.863-1.403-1.297c-1.883-1.74-3.766-3.483-5.649-5.225
		c-0.035-0.029-0.07-0.061-0.133-0.11c0,2.08,0,4.125,0,6.176c-0.123,0-0.236,0-0.347,0c-0.51,0.004-1.021,0.006-1.532,0.008
		C38.971,80.245,38.971,76.695,38.971,73.145z"/>
	<path fill="#314F5C" d="M82.216,72.822c-0.005,0.054-0.01,0.106-0.01,0.161c-0.003,3.543-0.003,7.089-0.003,10.634
		c0,0.053,0,0.105,0,0.168c-0.615,0-1.221,0-1.838,0c-0.003-0.058-0.008-0.112-0.008-0.168c0-3.548,0-7.093,0-10.634
		c0-0.055-0.007-0.107-0.01-0.161C80.971,72.822,81.596,72.822,82.216,72.822z"/>
	<path fill="#314F5C" d="M86.248,72.822c0,3.651,0,7.305,0,10.963c-0.615,0-1.213,0-1.836,0c0-0.05,0-0.103,0-0.155
		c0-3.548,0-7.098-0.002-10.646c0-0.053-0.003-0.107-0.005-0.161C85.022,72.822,85.636,72.822,86.248,72.822z"/>
	<path fill="#314F5C" d="M78.118,79.927c-2.18,0-4.354,0-6.563,0c0.051,0.239,0.083,0.462,0.148,0.674
		c0.278,0.858,0.813,1.486,1.718,1.693c1.127,0.259,2.063-0.08,2.764-1.017c0.131-0.174,0.249-0.35,0.377-0.53
		c0.532,0.288,1.062,0.57,1.6,0.862c-0.018,0.034-0.028,0.068-0.046,0.096c-0.7,1.204-1.739,1.942-3.098,2.22
		c-0.937,0.192-1.863,0.143-2.76-0.214c-1.228-0.49-2.006-1.4-2.388-2.654c-0.188-0.62-0.241-1.26-0.188-1.91
		c0.048-0.656,0.182-1.289,0.473-1.882c0.56-1.142,1.483-1.822,2.719-2.08c0.909-0.189,1.815-0.169,2.699,0.145
		c1.112,0.396,1.838,1.189,2.237,2.287c0.2,0.548,0.294,1.115,0.304,1.697c0.005,0.161,0.01,0.323,0.013,0.483
		C78.123,79.836,78.121,79.874,78.118,79.927z M76.183,78.47c-0.104-0.469-0.299-0.877-0.648-1.203
		c-0.354-0.338-0.783-0.512-1.268-0.559c-0.778-0.078-1.456,0.132-2.009,0.702c-0.286,0.294-0.459,0.653-0.563,1.06
		C73.194,78.47,74.686,78.47,76.183,78.47z"/>
	<path fill="#314F5C" d="M50.498,79.62c-0.02-2.462,1.956-4.451,4.491-4.42c2.355,0.028,4.366,1.836,4.371,4.415
		c0.005,2.492-1.905,4.42-4.434,4.42C52.318,84.03,50.48,81.995,50.498,79.62z M54.927,77.017c-0.188,0.027-0.374,0.037-0.558,0.08
		c-1.441,0.349-2.287,1.825-1.871,3.249c0.401,1.367,1.806,2.146,3.146,1.749c1.223-0.364,1.996-1.649,1.782-2.911
		C57.231,78.015,56.197,77.019,54.927,77.017z"/>
	<path fill="#314F5C" d="M64.457,80.116c0.118-0.269,0.229-0.519,0.342-0.772c0.593-1.351,1.185-2.701,1.772-4.05
		c0.04-0.09,0.083-0.123,0.186-0.123c0.623,0.007,1.245,0.004,1.868,0.004c0.038,0,0.075,0,0.133,0
		c-1.434,3.039-2.864,6.063-4.301,9.107c-1.429-3.043-2.852-6.065-4.283-9.107c0.061,0,0.098,0,0.136,0
		c0.625,0,1.253,0.001,1.878-0.003c0.08,0,0.126,0.02,0.163,0.103c0.678,1.567,1.361,3.133,2.044,4.697
		C64.409,80.015,64.427,80.055,64.457,80.116z"/>
</g>
</svg>
