<?xml version="1.0" encoding="utf-8"?>
<!-- Generator: Adobe Illustrator 16.0.0, SVG Export Plug-In . SVG Version: 6.00 Build 0)  -->
<!DOCTYPE svg PUBLIC "-//W3C//DTD SVG 1.1//EN" "http://www.w3.org/Graphics/SVG/1.1/DTD/svg11.dtd">
<svg version="1.1" id="图层_1" xmlns="http://www.w3.org/2000/svg" xmlns:xlink="http://www.w3.org/1999/xlink" x="0px" y="0px"
	 width="100px" height="100px" viewBox="0 0 100 100" enable-background="new 0 0 100 100" xml:space="preserve">
<path fill="none" d="M8392.75,201.75"/>
<path fill="none" d="M-7990.25,201.75"/>
<path fill="#FFFFFF" d="M174.407,193.407"/>
<polygon fill="#204A59" points="69.871,0.431 58.322,11.416 58.287,95.809 69.926,82.453 "/>
<polygon fill="#608293" points="31.853,0.392 69.871,0.431 57.896,11.976 57.831,11.966 57.315,12.122 56.937,12.238 56.462,12.373 
	55.913,12.531 55.285,12.687 54.584,12.843 53.804,13.019 52.969,13.193 52.037,13.35 51.05,13.524 49.986,13.681 48.847,13.817 
	47.652,13.953 46.398,14.051 45.067,14.149 43.685,14.206 42.239,14.246 40.739,14.246 39.163,14.226 37.549,14.149 35.877,14.051 
	34.148,13.916 32.383,13.699 30.562,13.465 28.679,13.154 26.764,12.803 24.807,12.394 22.793,11.927 20.744,11.38 "/>
<linearGradient id="SVGID_1_" gradientUnits="userSpaceOnUse" x1="553.0547" y1="-1872.3486" x2="590.7754" y2="-1872.3486" gradientTransform="matrix(1 0 0 -1 -532.3008 -1855.7998)">
	<stop  offset="0" style="stop-color:#314F5C"/>
	<stop  offset="0.5172" style="stop-color:#57798B"/>
	<stop  offset="1" style="stop-color:#314F5C"/>
</linearGradient>
<path fill="url(#SVGID_1_)" d="M58.291,11.952l0.184,7.783l-0.398-0.313l-0.596,0.168l-0.455,0.126l-0.516,0.146l-0.633,0.148
	l-0.707,0.166l-0.787,0.188l-0.881,0.167l-0.936,0.188l-1.016,0.168l-1.089,0.188l-1.148,0.146l-1.225,0.148l-1.262,0.146
	l-1.338,0.127l-1.379,0.083l-1.436,0.086l-1.492,0.04l-13.236-1.09l-7.189-0.982l-0.002-8.537
	C20.763,11.247,40.333,16.55,58.291,11.952z"/>
<linearGradient id="SVGID_2_" gradientUnits="userSpaceOnUse" x1="553.0449" y1="-1913.1055" x2="590.668" y2="-1913.1055" gradientTransform="matrix(1 0 0 -1 -532.3008 -1855.7998)">
	<stop  offset="0" style="stop-color:#314F5C"/>
	<stop  offset="0.5172" style="stop-color:#57798B"/>
	<stop  offset="1" style="stop-color:#314F5C"/>
</linearGradient>
<polyline fill="url(#SVGID_2_)" points="58.271,96.112 58.367,14.556 20.799,14.556 20.744,97.215 23.943,99.551 28.973,100.056 
	50.002,100.056 55.145,99.493 "/>
<polygon fill="#204A59" stroke="#EDEDED" stroke-width="1.5" stroke-miterlimit="10" points="24.928,29.906 24.928,38.727 
	54.322,38.727 54.322,29.906 "/>
<polygon fill="#EDEDED" points="20.781,63.331 23.929,64.225 28.829,64.905 50.059,64.893 55.129,64.207 58.287,63.307 
	58.287,61.154 55.088,62.208 50.018,62.972 28.829,62.968 23.929,62.215 20.783,61.156 "/>
<polygon fill="#EDEDED" points="20.781,75.457 23.929,76.352 28.829,77.033 50.059,77.02 55.129,76.332 58.287,75.435 
	58.287,73.279 55.088,74.336 50.018,75.1 28.829,75.093 23.929,74.343 20.783,73.283 "/>
<polygon fill="#EDEDED" points="20.875,87.584 24.025,88.479 28.923,89.159 50.154,89.146 55.225,88.46 58.381,87.563 
	58.381,85.406 55.184,86.461 50.114,87.227 28.923,87.221 24.025,86.469 20.878,85.409 "/>
<path fill="#EDEDED" d="M20.777,22.324c0,0,20.31,3.982,37.59-0.021l-0.002,2.276c0,0-12.79,3.805-37.538,0.078L20.777,22.324z"/>
<polygon fill="#EDEDED" points="58.367,22.304 70.41,11.913 70.41,13.825 58.365,24.579 "/>
<path fill="none" d="M49.159,87.288c0.584-2.146,1.168-4.291,1.751-6.435c0.102-0.022,0.201-0.045,0.301-0.066
	c0.377,1.155,0.76,2.308,1.115,3.468c0.029,0.096-0.082,0.265-0.172,0.359c-0.908,0.957-1.824,1.906-2.737,2.857
	C49.332,87.412,49.247,87.35,49.159,87.288z"/>
<g>
	<path fill="#EDEDED" d="M82.596,88.652c0,1.979-1.572,3.598-3.498,3.598H30.326c-1.923,0-3.497-1.618-3.497-3.598V72.459
		c0-1.979,1.574-3.597,3.497-3.597h48.77c1.926,0,3.498,1.617,3.498,3.597L82.596,88.652L82.596,88.652z"/>
	<path fill="#EDEDED" stroke="#204A59" stroke-width="1.5" stroke-miterlimit="10" d="M82.881,88.665
		c0,1.979-1.572,3.596-3.498,3.596H30.611c-1.923,0-3.498-1.616-3.498-3.596V72.471c0-1.978,1.575-3.597,3.498-3.597h48.768
		c1.926,0,3.5,1.619,3.5,3.597L82.881,88.665L82.881,88.665z"/>
</g>
<g>
	<path fill="#314F5C" d="M35.226,89.714c0.022-0.166,0.044-0.329,0.064-0.497c0.014-0.106,0.024-0.215,0.036-0.329
		c0.215,0.057,0.417,0.115,0.623,0.16c0.606,0.136,1.222,0.169,1.835,0.072c0.475-0.073,0.848-0.526,0.838-0.979
		c-0.007-0.279-0.154-0.485-0.367-0.646c-0.31-0.233-0.666-0.375-1.01-0.546c-0.39-0.188-0.783-0.378-1.154-0.602
		c-0.436-0.262-0.717-0.65-0.793-1.165c-0.148-1.021,0.268-1.937,1.368-2.334c0.714-0.259,1.439-0.23,2.163-0.053
		c0.259,0.063,0.508,0.161,0.761,0.243c0.042,0.015,0.082,0.024,0.07,0.092c-0.06,0.264-0.114,0.527-0.169,0.797
		c-0.163-0.037-0.32-0.078-0.479-0.111c-0.471-0.097-0.946-0.112-1.421-0.05c-0.399,0.051-0.74,0.402-0.793,0.784
		c-0.034,0.251,0.084,0.444,0.247,0.615c0.171,0.182,0.373,0.319,0.604,0.414c0.434,0.179,0.87,0.349,1.298,0.537
		c0.318,0.141,0.609,0.33,0.841,0.597c0.577,0.655,0.613,1.697,0.081,2.447c-0.403,0.567-0.965,0.887-1.642,1.017
		c-0.757,0.146-1.499,0.04-2.233-0.154c-0.221-0.059-0.44-0.127-0.659-0.191c-0.036-0.01-0.073-0.015-0.109-0.021
		C35.226,89.783,35.226,89.748,35.226,89.714z"/>
	<path fill="#314F5C" d="M59.147,90.127c-0.417,0-0.813,0-1.215,0c-0.043-0.253-0.086-0.501-0.131-0.763
		c-0.089,0.068-0.166,0.123-0.242,0.181c-0.649,0.51-1.397,0.745-2.224,0.742c-0.369,0-0.729-0.037-1.061-0.222
		c-0.571-0.32-0.886-0.815-0.955-1.46c-0.093-0.842,0.192-1.551,0.817-2.115c0.341-0.305,0.763-0.463,1.201-0.574
		c0.573-0.145,1.16-0.184,1.75-0.19c0.104,0,0.207-0.008,0.311,0.003c0.1,0.008,0.141-0.021,0.138-0.128
		c-0.004-0.309,0.012-0.616-0.004-0.924c-0.015-0.264-0.101-0.503-0.327-0.667c-0.145-0.104-0.313-0.134-0.483-0.155
		c-0.47-0.059-0.941-0.084-1.415-0.042c-0.473,0.043-0.936,0.13-1.376,0.353c-0.088-0.31-0.176-0.609-0.264-0.928
		c0.124-0.047,0.244-0.096,0.363-0.136c0.795-0.258,1.601-0.42,2.434-0.439c0.438-0.01,0.872,0.013,1.289,0.139
		c0.734,0.222,1.163,0.734,1.312,1.476c0.05,0.246,0.077,0.501,0.077,0.751c0.007,1.652,0.005,3.303,0.005,4.953
		C59.147,90.024,59.147,90.068,59.147,90.127z M57.533,87.648c0-0.268-0.004-0.535,0.002-0.802c0-0.081-0.024-0.117-0.109-0.119
		c-0.18-0.003-0.362-0.021-0.545-0.025c-0.451-0.013-0.896,0.022-1.317,0.208c-0.512,0.227-0.79,0.646-0.768,1.186
		c0.017,0.375,0.138,0.704,0.479,0.913c0.291,0.175,0.614,0.189,0.938,0.138c0.477-0.076,0.888-0.313,1.268-0.6
		c0.031-0.022,0.05-0.078,0.05-0.121C57.535,88.17,57.533,87.908,57.533,87.648z"/>
	<path fill="#314F5C" d="M47.728,86.194c-0.009,0.853-0.172,1.67-0.566,2.434c-0.462,0.895-1.215,1.399-2.185,1.591
		c-0.714,0.14-1.417,0.089-2.09-0.216c-0.689-0.312-1.127-0.85-1.404-1.536c-0.206-0.507-0.308-1.033-0.338-1.576
		c-0.045-0.822,0.07-1.617,0.397-2.378c0.437-1.012,1.228-1.584,2.288-1.807c0.731-0.151,1.45-0.101,2.142,0.196
		c0.809,0.348,1.287,0.98,1.545,1.802C47.667,85.189,47.73,85.688,47.728,86.194z M46.188,86.562
		c-0.006-0.116-0.01-0.259-0.02-0.403c-0.037-0.497-0.121-0.984-0.31-1.447c-0.303-0.747-0.988-1.113-1.743-0.919
		c-0.587,0.151-0.959,0.542-1.16,1.104c-0.215,0.604-0.281,1.228-0.253,1.867c0.023,0.492,0.097,0.975,0.293,1.428
		c0.271,0.624,0.754,0.959,1.432,0.965c0.688,0.006,1.189-0.32,1.472-0.954C46.13,87.691,46.174,87.143,46.188,86.562z"/>
	<path fill="#314F5C" d="M73.914,83.063c-0.063,0.3-0.119,0.584-0.179,0.862c-0.25-0.053-0.485-0.111-0.725-0.145
		c-0.391-0.059-0.788-0.075-1.177-0.01c-0.391,0.07-0.667,0.308-0.779,0.701c-0.047,0.173-0.02,0.341,0.076,0.493
		c0.166,0.26,0.391,0.456,0.668,0.575c0.386,0.168,0.781,0.313,1.167,0.477c0.364,0.153,0.711,0.339,0.992,0.623
		c0.418,0.416,0.559,0.934,0.52,1.504c-0.076,1.051-0.921,1.77-1.817,1.998c-0.626,0.156-1.251,0.136-1.873,0.01
		c-0.413-0.087-0.82-0.215-1.23-0.32c-0.057-0.015-0.084-0.037-0.074-0.104c0.03-0.277,0.059-0.556,0.087-0.84
		c0.216,0.057,0.419,0.117,0.631,0.162c0.603,0.134,1.215,0.165,1.825,0.07c0.425-0.065,0.772-0.431,0.834-0.854
		c0.046-0.314-0.092-0.56-0.334-0.748c-0.286-0.225-0.618-0.374-0.95-0.522c-0.429-0.191-0.856-0.38-1.248-0.643
		c-0.41-0.275-0.701-0.636-0.777-1.135c-0.179-1.181,0.373-2.061,1.485-2.406c0.736-0.226,1.474-0.172,2.206,0.031
		C73.466,82.904,73.684,82.987,73.914,83.063z"/>
	<path fill="#314F5C" d="M62.71,90.089c-0.5,0-0.99,0-1.488,0c0-2.427,0-4.846,0-7.271c0.425,0,0.844,0,1.276,0
		c0.024,0.377,0.053,0.755,0.078,1.134c0.007,0.003,0.018,0.005,0.025,0.008c0.029-0.038,0.063-0.076,0.094-0.115
		c0.27-0.334,0.554-0.654,0.901-0.909c0.429-0.314,0.895-0.389,1.397-0.206c0.063,0.021,0.086,0.05,0.079,0.119
		c-0.05,0.435-0.1,0.87-0.146,1.305c0,0.006-0.009,0.013-0.014,0.017c-0.102-0.023-0.203-0.054-0.307-0.069
		c-0.483-0.079-0.888,0.095-1.242,0.408c-0.269,0.239-0.47,0.533-0.632,0.853c-0.022,0.043-0.022,0.101-0.022,0.15
		c-0.003,1.479-0.003,2.96-0.003,4.438C62.71,89.991,62.71,90.037,62.71,90.089z"/>
	<path fill="#314F5C" d="M49.155,82.74c0.495,0,0.987,0,1.487,0c0,0.052,0,0.095,0,0.14c0,1.869-0.003,3.739,0,5.61
		c0.003,0.115,0.017,0.233,0.045,0.343c0.068,0.242,0.247,0.391,0.498,0.389c0.265-0.005,0.527-0.045,0.795-0.07
		c0.07-0.007,0.139-0.02,0.218-0.029c0.062,0.285,0.12,0.562,0.182,0.853c-0.207,0.053-0.409,0.107-0.608,0.157
		c-0.431,0.102-0.866,0.177-1.312,0.148c-0.199-0.012-0.402-0.043-0.592-0.108c-0.457-0.155-0.712-0.548-0.712-1.076
		C49.15,87,49.152,84.91,49.152,82.814C49.15,82.793,49.155,82.771,49.155,82.74z"/>
	<path fill="#314F5C" d="M67.889,90.089c-0.036,0.002-0.072,0.007-0.105,0.007c-0.409,0-0.821-0.003-1.231,0.002
		c-0.088,0-0.119-0.02-0.119-0.114c0.004-2.354,0.002-4.706,0.004-7.061c0-0.031,0.003-0.067,0.005-0.105c0.486,0,0.962,0,1.448,0
		C67.889,85.239,67.889,87.66,67.889,90.089z"/>
	<path fill="#314F5C" d="M69.722,73.524c0.065,0.252,0.146,0.503,0.194,0.757c0.143,0.747-0.015,1.42-0.521,1.998
		c-0.134,0.149-0.282,0.277-0.422,0.42c-0.528,0.53-0.808,1.169-0.831,1.918c0,0.024-0.003,0.047-0.005,0.092
		c-0.033-0.035-0.057-0.057-0.074-0.08c-0.467-0.575-1.006-1.074-1.631-1.473c-0.074-0.048-0.082-0.092-0.064-0.168
		c0.142-0.604,0.547-0.97,1.09-1.208c0.244-0.108,0.502-0.153,0.758-0.208c0.436-0.093,0.821-0.28,1.101-0.646
		c0.215-0.281,0.313-0.604,0.351-0.949c0.018-0.149,0.021-0.3,0.028-0.448C69.705,73.529,69.714,73.527,69.722,73.524z"/>
	<path fill="#314F5C" d="M57.022,77.02c-0.264,0.221-0.548,0.427-0.794,0.672c-0.299,0.294-0.567,0.619-0.843,0.938
		c-0.052,0.06-0.09,0.072-0.163,0.052c-0.55-0.163-0.889-0.541-1.103-1.054c-0.12-0.286-0.161-0.59-0.208-0.894
		c-0.083-0.554-0.316-1.016-0.826-1.302c-0.315-0.178-0.662-0.249-1.021-0.274c-0.034-0.003-0.068-0.003-0.106-0.027
		c0.17-0.038,0.334-0.085,0.504-0.117c0.474-0.093,0.943-0.098,1.406,0.069c0.441,0.162,0.79,0.448,1.079,0.811
		c0.413,0.528,0.933,0.901,1.596,1.05C56.705,76.975,56.869,76.994,57.022,77.02z"/>
	<path fill="#314F5C" d="M55.799,72.192c0.301,0.006,0.592,0.054,0.876,0.138c0.822,0.246,1.354,0.788,1.604,1.604
		c0.251,0.829,0.734,1.457,1.525,1.831c0.01,0.004,0.017,0.015,0.022,0.019c-0.248,0.076-0.496,0.147-0.742,0.229
		c-0.493,0.166-0.955,0.392-1.393,0.668c-0.062,0.037-0.1,0.035-0.154-0.008c-0.398-0.307-0.595-0.718-0.64-1.215
		c-0.035-0.384,0.048-0.75,0.13-1.124c0.14-0.63,0.021-1.194-0.467-1.653c-0.204-0.189-0.436-0.33-0.685-0.453
		C55.851,72.222,55.824,72.206,55.799,72.192z"/>
	<path fill="#314F5C" d="M72.895,77.187c-0.011,0.684-0.118,1.333-0.567,1.878c-0.284,0.346-0.652,0.569-1.065,0.723
		c-0.787,0.289-1.362,0.797-1.685,1.578c-0.01,0.019-0.022,0.034-0.036,0.063c-0.072-0.203-0.138-0.397-0.213-0.587
		c-0.207-0.531-0.471-1.032-0.808-1.492c-0.043-0.063-0.04-0.102,0-0.162c0.308-0.444,0.743-0.662,1.269-0.718
		c0.328-0.035,0.647,0.011,0.967,0.071c0.566,0.102,1.093,0.021,1.533-0.389c0.263-0.243,0.433-0.554,0.566-0.883
		C72.866,77.243,72.88,77.215,72.895,77.187z"/>
	<path fill="#314F5C" d="M65.818,76.663c-0.408-0.178-0.811-0.372-1.229-0.531c-0.289-0.112-0.596-0.183-0.896-0.253
		c-0.113-0.024-0.143-0.074-0.156-0.178c-0.07-0.563,0.131-1.032,0.52-1.421c0.168-0.169,0.363-0.317,0.564-0.454
		c0.329-0.221,0.627-0.465,0.806-0.83c0.224-0.458,0.183-0.929,0.036-1.399c-0.029-0.1-0.07-0.198-0.106-0.3
		c0.01,0,0.017-0.003,0.019,0.001c0.35,0.387,0.646,0.808,0.783,1.319c0.169,0.609,0.05,1.184-0.228,1.739
		c-0.206,0.409-0.318,0.842-0.314,1.303c0,0.31,0.063,0.61,0.167,0.902C65.794,76.602,65.809,76.639,65.818,76.663z"/>
	<path fill="#314F5C" d="M54.887,79.219c-0.294,0.449-0.536,0.896-0.716,1.373c-0.09,0.239-0.165,0.484-0.234,0.73
		c-0.026,0.089-0.068,0.117-0.155,0.122c-0.623,0.044-1.106-0.224-1.495-0.688c-0.126-0.149-0.234-0.317-0.334-0.49
		c-0.146-0.257-0.312-0.501-0.538-0.694c-0.412-0.353-0.895-0.432-1.417-0.34c-0.177,0.03-0.352,0.082-0.553,0.132
		c0.104-0.077,0.187-0.143,0.269-0.201c0.361-0.255,0.745-0.454,1.182-0.531c0.505-0.092,0.983,0.005,1.441,0.227
		c0.27,0.131,0.537,0.276,0.819,0.376c0.516,0.183,1.044,0.172,1.572,0.023C54.773,79.248,54.817,79.236,54.887,79.219z"/>
	<path fill="#314F5C" d="M60.545,70.829c0.327,0.16,0.645,0.36,0.919,0.618c0.58,0.549,0.768,1.229,0.698,2.005
		c-0.067,0.802,0.154,1.518,0.692,2.124c0.021,0.023,0.038,0.046,0.06,0.07c0.002,0.003,0.002,0.007,0.002,0.021
		c-0.145-0.016-0.289-0.029-0.431-0.044c-0.628-0.066-1.251-0.035-1.868,0.078c-0.077,0.015-0.12,0-0.157-0.07
		c-0.302-0.52-0.282-1.054-0.056-1.587c0.088-0.202,0.218-0.386,0.328-0.578c0.113-0.197,0.248-0.386,0.341-0.594
		c0.202-0.46,0.175-0.928-0.067-1.363C60.874,71.271,60.699,71.054,60.545,70.829z"/>
</g>
</svg>
