<?xml version="1.0" encoding="utf-8"?>
<!-- Generator: Adobe Illustrator 16.0.0, SVG Export Plug-In . SVG Version: 6.00 Build 0)  -->
<!DOCTYPE svg PUBLIC "-//W3C//DTD SVG 1.1//EN" "http://www.w3.org/Graphics/SVG/1.1/DTD/svg11.dtd">
<svg version="1.1" id="图层_1" xmlns="http://www.w3.org/2000/svg" xmlns:xlink="http://www.w3.org/1999/xlink" x="0px" y="0px"
	 width="100px" height="100px" viewBox="300 300 100 100" enable-background="new 300 300 100 100" xml:space="preserve">
<g>
	<polygon fill="#5F8090" points="322.497,315.202 348.267,321.863 347.985,399.265 322.73,385.945 	"/>
	
		<linearGradient id="82_build_2_SVGID_1_" gradientUnits="userSpaceOnUse" x1="145.6138" y1="423.7637" x2="177.6914" y2="423.7637" gradientTransform="matrix(1 0 0 -1 202.3398 780.0391)">
		<stop  offset="0" style="stop-color:#304E5B"/>
		<stop  offset="0.5172" style="stop-color:#577788"/>
		<stop  offset="1" style="stop-color:#304E5B"/>
	</linearGradient>
	<polygon fill="url(#82_build_2_SVGID_1_)" points="380.007,382.397 347.954,399.082 347.954,321.766 380.031,313.47 	"/>
	<polygon fill="#163E48" points="380.166,313.537 354.59,307.948 322.337,315.304 347.968,321.975 	"/>
	<polygon fill="#5F8090" points="349.109,308.931 333.943,305.529 333.943,314.94 349.109,318.745 	"/>
	
		<linearGradient id="82_build_2_SVGID_2_" gradientUnits="userSpaceOnUse" x1="146.7695" y1="468.2969" x2="165.5098" y2="468.2969" gradientTransform="matrix(1 0 0 -1 202.3398 780.0391)">
		<stop  offset="0" style="stop-color:#304E5B"/>
		<stop  offset="0.5172" style="stop-color:#577788"/>
		<stop  offset="1" style="stop-color:#304E5B"/>
	</linearGradient>
	<polygon fill="url(#82_build_2_SVGID_2_)" points="367.85,304.755 349.12,308.922 349.109,318.73 367.85,313.969 	"/>
	<polygon fill="#163E48" points="367.854,304.765 352.532,301.688 333.909,305.528 349.22,309.042 	"/>
	<polygon fill="#EDEDEC" points="377.488,374.456 351.145,387.305 351.145,390.84 377.488,377.688 	"/>
	<polygon fill="#EDEDEC" points="377.488,317.652 351.145,325.133 351.145,328.669 377.488,320.882 	"/>
	<polygon fill="#EDEDEC" points="326.039,377.363 344.566,386.339 344.566,389.784 326.039,380.6 	"/>
	<polygon fill="#EDEDEC" points="326.058,319.95 345.12,325.375 345.12,328.821 326.058,323.182 	"/>
	<g>
		<polygon fill="#EDEDEC" points="352.749,383.682 351.465,384.297 351.465,331.1 352.749,330.709 		"/>
		<polygon fill="#EDEDEC" points="358.854,380.711 357.632,381.296 357.632,329.434 358.854,329.062 		"/>
		<polygon fill="#EDEDEC" points="364.961,377.76 363.797,378.317 363.797,327.699 364.961,327.345 		"/>
		<polygon fill="#EDEDEC" points="371.069,374.679 369.959,375.212 369.959,325.746 371.069,325.408 		"/>
		<polygon fill="#EDEDEC" points="377.193,372.002 376.106,372.521 376.106,323.623 377.193,323.294 		"/>
	</g>
	<g>
		<polygon fill="#EDEDEC" points="343.916,330.511 345.04,330.851 345.04,384.564 343.916,384.027 		"/>
		<polygon fill="#EDEDEC" points="337.913,328.79 338.994,329.117 338.994,381.77 337.913,381.252 		"/>
		<polygon fill="#EDEDEC" points="332.202,327.123 333.242,327.437 333.242,379.077 332.202,378.578 		"/>
		<polygon fill="#EDEDEC" points="326.444,325.266 327.444,325.567 327.444,376.189 326.444,375.71 		"/>
	</g>
	<g>
		<polygon fill="#EDEDEC" points="336.205,314.527 335.602,314.373 335.602,307.419 336.205,307.559 		"/>
		<polygon fill="#EDEDEC" points="339.781,315.573 339.16,315.414 339.16,308.36 339.781,308.505 		"/>
		<polygon fill="#EDEDEC" points="343.357,316.546 342.719,316.382 342.719,309.224 343.357,309.373 		"/>
		<polygon fill="#EDEDEC" points="346.929,317.273 346.281,317.105 346.281,309.889 346.929,310.041 		"/>
	</g>
	<polygon fill="#E0EBE9" points="351.797,317.295 351.155,317.46 351.155,309.825 351.797,309.675 	"/>
	<polygon fill="#E0EBE9" points="355.314,316.431 354.688,316.592 354.688,309.058 355.314,308.912 	"/>
	<polygon fill="#E0EBE9" points="358.831,315.593 358.223,315.75 358.223,308.314 358.831,308.173 	"/>
	<polygon fill="#E0EBE9" points="362.35,314.604 361.755,314.758 361.755,307.419 362.35,307.28 	"/>
	<polygon fill="#E0EBE9" points="365.865,313.642 365.287,313.791 365.287,306.544 365.865,306.411 	"/>
</g>
</svg>
