<?xml version="1.0" encoding="utf-8"?>
<!-- Generator: Adobe Illustrator 16.0.0, SVG Export Plug-In . SVG Version: 6.00 Build 0)  -->
<!DOCTYPE svg PUBLIC "-//W3C//DTD SVG 1.1//EN" "http://www.w3.org/Graphics/SVG/1.1/DTD/svg11.dtd">
<svg version="1.1" id="图层_1" xmlns="http://www.w3.org/2000/svg" xmlns:xlink="http://www.w3.org/1999/xlink" x="0px" y="0px"
	 width="100px" height="100px" viewBox="300 300 100 100" enable-background="new 300 300 100 100" xml:space="preserve">
<g>
	<polygon fill="#5F8090" points="342.781,302.128 376.36,303.482 376.36,384.467 342.781,372.501 	"/>
	<g>
		<polygon fill="#EDEDEC" points="373.545,308.678 346.054,307.017 346.054,305.733 373.545,307.237 		"/>
		<polygon fill="#EDEDEC" points="373.481,314.953 346.003,312.542 346.003,311.259 373.481,313.514 		"/>
		<polygon fill="#EDEDEC" points="373.481,321.214 346.003,318.081 346.003,316.796 373.481,319.775 		"/>
		<polygon fill="#EDEDEC" points="373.614,327.489 346.108,323.605 346.108,322.322 373.614,326.048 		"/>
		<polygon fill="#EDEDEC" points="373.549,333.739 346.056,329.156 346.056,327.871 373.549,332.299 		"/>
		<polygon fill="#EDEDEC" points="373.549,339.983 346.056,334.711 346.056,333.428 373.549,338.543 		"/>
	</g>
	
		<linearGradient id="85_build_5_SVGID_1_" gradientUnits="userSpaceOnUse" x1="116.7051" y1="426.6289" x2="129.8486" y2="426.6289" gradientTransform="matrix(1 0 0 -1 202.3398 780.0391)">
		<stop  offset="0" style="stop-color:#304E5B"/>
		<stop  offset="0.5172" style="stop-color:#577788"/>
		<stop  offset="1" style="stop-color:#304E5B"/>
	</linearGradient>
	<polygon fill="url(#85_build_5_SVGID_1_)" points="332.188,321.917 319.045,323.467 319.077,384.903 332.188,380.614 	"/>
	<polygon fill="#5F8090" points="310.513,321.983 319.086,323.29 319.086,384.903 310.513,380.942 	"/>
	<polygon fill="#163E48" points="337.97,388.616 325.107,382.843 325.107,345.65 338.097,348.802 	"/>
	<polygon fill="#163E48" points="325.107,345.65 346.887,351.228 376.033,343.686 354.377,339.411 	"/>
	
		<linearGradient id="85_build_5_SVGID_2_" gradientUnits="userSpaceOnUse" x1="144.6299" y1="417.6836" x2="159.833" y2="417.6836" gradientTransform="matrix(1 0 0 -1 202.3398 780.0391)">
		<stop  offset="0" style="stop-color:#304E5B"/>
		<stop  offset="0.5172" style="stop-color:#577788"/>
		<stop  offset="1" style="stop-color:#304E5B"/>
	</linearGradient>
	<polygon fill="url(#85_build_5_SVGID_2_)" points="362.173,326.433 346.97,328.851 346.97,398.279 362.173,391.156 	"/>
	<polygon fill="#5F8090" points="335.319,392.866 346.978,398.27 346.978,328.894 335.319,327.059 	"/>
	<polygon fill="#163E48" points="362.183,326.438 350.63,324.851 335.282,327.054 346.856,328.878 	"/>
	<polygon fill="#163E48" points="332.298,321.897 323.567,320.714 310.456,322.174 319.077,323.487 	"/>
	
		<linearGradient id="85_build_5_SVGID_3_" gradientUnits="userSpaceOnUse" x1="174.0283" y1="436.3975" x2="185.541" y2="436.3975" gradientTransform="matrix(1 0 0 -1 202.3398 780.0391)">
		<stop  offset="0" style="stop-color:#304E5B"/>
		<stop  offset="0.5172" style="stop-color:#577788"/>
		<stop  offset="1" style="stop-color:#304E5B"/>
	</linearGradient>
	<polygon fill="url(#85_build_5_SVGID_3_)" points="387.881,379.047 376.368,384.437 376.368,303.456 387.881,302.847 	"/>
	
		<linearGradient id="85_build_5_SVGID_4_" gradientUnits="userSpaceOnUse" x1="144.6387" y1="410.6025" x2="185.541" y2="410.6025" gradientTransform="matrix(1 0 0 -1 202.3398 780.0391)">
		<stop  offset="0" style="stop-color:#304E5B"/>
		<stop  offset="0.5172" style="stop-color:#577788"/>
		<stop  offset="1" style="stop-color:#304E5B"/>
	</linearGradient>
	<polygon fill="url(#85_build_5_SVGID_4_)" points="387.881,340.603 346.979,351.35 347.014,398.27 387.881,379.047 	"/>
	<polygon fill="#163E48" points="387.881,302.907 353.86,301.669 342.781,302.128 376.646,303.504 	"/>
	<g>
		<polygon fill="#EDEDEC" points="354.313,389.693 349.623,391.782 349.623,384.888 354.313,382.946 		"/>
		<polygon fill="#EDEDEC" points="361.293,386.673 356.903,388.631 356.903,381.961 361.293,380.143 		"/>
		<polygon fill="#EDEDEC" points="367.84,383.843 363.723,385.679 363.723,379.222 367.84,377.515 		"/>
		<polygon fill="#EDEDEC" points="373.989,381.181 370.119,382.909 370.119,376.649 373.989,375.045 		"/>
		<polygon fill="#EDEDEC" points="379.779,378.677 376.134,380.306 376.134,374.235 379.779,372.72 		"/>
		<polygon fill="#EDEDEC" points="385.238,376.317 381.8,377.853 381.8,371.956 385.238,370.529 		"/>
	</g>
	<g>
		<polygon fill="#EDEDEC" points="354.624,359.257 349.948,360.686 349.948,353.8 354.624,352.519 		"/>
		<polygon fill="#EDEDEC" points="361.585,357.22 357.207,358.557 357.207,351.897 361.585,350.697 		"/>
		<polygon fill="#EDEDEC" points="368.111,355.308 364.005,356.564 364.005,350.116 368.111,348.988 		"/>
		<polygon fill="#EDEDEC" points="374.247,353.514 370.385,354.695 370.385,348.446 374.247,347.383 		"/>
		<polygon fill="#EDEDEC" points="380.02,351.822 376.386,352.937 376.386,346.874 380.02,345.872 		"/>
		<polygon fill="#EDEDEC" points="385.467,350.227 382.036,351.279 382.036,345.394 385.467,344.447 		"/>
	</g>
	<polygon fill="#EDEDEC" points="385.288,355.336 350.192,366.786 350.192,364.97 385.288,353.81 	"/>
	<polygon fill="#EDEDEC" points="385.199,360.96 350.066,373.713 350.066,371.896 385.199,359.431 	"/>
	<polygon fill="#EDEDEC" points="385.1,366.543 349.924,380.683 349.924,378.863 385.1,365.011 	"/>
	<g>
		<polygon fill="#EDEDEC" points="381.467,309.649 378.228,309.931 378.228,306.113 381.467,305.897 		"/>
		<polygon fill="#EDEDEC" points="386.528,309.222 383.46,309.49 383.46,305.776 386.528,305.57 		"/>
		<polygon fill="#EDEDEC" points="381.468,315.982 378.229,316.373 378.229,312.556 381.468,312.231 		"/>
		<polygon fill="#EDEDEC" points="386.528,315.387 383.463,315.757 383.463,312.045 386.528,311.735 		"/>
		<polygon fill="#EDEDEC" points="381.26,322.11 378.015,322.604 378.015,318.785 381.26,318.355 		"/>
		<polygon fill="#EDEDEC" points="386.334,321.351 383.26,321.819 383.26,318.103 386.334,317.696 		"/>
		<polygon fill="#EDEDEC" points="381.158,328.376 377.909,328.979 377.909,325.156 381.158,324.618 		"/>
		<polygon fill="#EDEDEC" points="386.237,327.45 383.159,328.02 383.159,324.302 386.237,323.792 		"/>
		<polygon fill="#EDEDEC" points="381.273,334.626 378.026,335.336 378.026,331.516 381.273,330.872 		"/>
		<polygon fill="#EDEDEC" points="386.345,333.534 383.271,334.205 383.271,330.487 386.345,329.878 		"/>
		<polygon fill="#EDEDEC" points="381.577,340.97 378.342,341.785 378.342,337.971 381.577,337.221 		"/>
		<polygon fill="#EDEDEC" points="386.634,339.708 383.569,340.482 383.569,336.771 386.634,336.06 		"/>
	</g>
	<g>
		<polygon fill="#EDEDEC" points="342.16,334.125 345.256,334.695 345.256,330.247 342.16,329.736 		"/>
		<polygon fill="#EDEDEC" points="337.123,333.269 340.079,333.814 340.079,329.468 337.123,328.979 		"/>
		<polygon fill="#EDEDEC" points="342.096,339.95 345.19,340.603 345.19,336.155 342.096,335.563 		"/>
		<polygon fill="#EDEDEC" points="337.063,338.961 340.017,339.585 340.017,335.24 337.063,334.675 		"/>
		<polygon fill="#EDEDEC" points="342.032,345.772 345.125,346.505 345.125,342.059 342.032,341.386 		"/>
		<polygon fill="#EDEDEC" points="337.001,344.653 339.955,345.354 339.955,341.009 337.001,340.367 		"/>
		<polygon fill="#EDEDEC" points="341.968,351.591 345.059,352.406 345.059,347.959 341.968,347.208 		"/>
		<polygon fill="#EDEDEC" points="336.942,350.339 339.892,351.118 339.892,346.774 336.942,346.054 		"/>
		<polygon fill="#EDEDEC" points="341.905,357.406 344.994,358.302 344.994,353.858 341.905,353.024 		"/>
		<polygon fill="#EDEDEC" points="336.879,356.024 339.83,356.88 339.83,352.538 336.879,351.739 		"/>
		<polygon fill="#EDEDEC" points="341.84,363.218 344.929,364.194 344.929,359.754 341.84,358.837 		"/>
		<polygon fill="#EDEDEC" points="336.819,361.704 339.766,362.637 339.766,358.296 336.819,357.422 		"/>
		<polygon fill="#EDEDEC" points="341.777,369.028 344.863,370.085 344.863,365.642 341.777,364.648 		"/>
		<polygon fill="#EDEDEC" points="336.758,367.383 339.705,368.394 339.705,364.054 336.758,363.101 		"/>
		<polygon fill="#EDEDEC" points="341.713,374.834 344.796,375.971 344.796,371.53 341.713,370.454 		"/>
		<polygon fill="#EDEDEC" points="336.697,373.058 339.642,374.144 339.642,369.805 336.697,368.776 		"/>
		<polygon fill="#EDEDEC" points="341.65,380.635 344.733,381.854 344.733,377.415 341.65,376.257 		"/>
		<polygon fill="#EDEDEC" points="336.636,378.729 339.58,379.892 339.58,375.554 336.636,374.449 		"/>
		<polygon fill="#EDEDEC" points="341.586,386.435 344.666,387.731 344.666,383.294 341.586,382.058 		"/>
		<polygon fill="#EDEDEC" points="336.575,384.396 339.516,385.636 339.516,381.301 336.575,380.118 		"/>
		<polygon fill="#EDEDEC" points="341.522,392.231 344.601,393.608 344.601,389.171 341.522,387.855 		"/>
		<polygon fill="#EDEDEC" points="336.515,390.062 339.455,391.377 339.455,387.044 336.515,385.786 		"/>
	</g>
	<g>
		<polygon fill="#EDEDEC" points="315.612,329.347 318.008,329.791 318.008,325.88 315.612,325.483 		"/>
		<polygon fill="#EDEDEC" points="311.697,328.687 313.998,329.113 313.998,325.282 311.697,324.9 		"/>
		<polygon fill="#EDEDEC" points="315.562,334.479 317.958,334.984 317.958,331.074 315.562,330.615 		"/>
		<polygon fill="#EDEDEC" points="311.649,333.715 313.949,334.202 313.949,330.371 311.649,329.93 		"/>
		<polygon fill="#EDEDEC" points="315.514,339.605 317.908,340.174 317.908,336.266 315.514,335.745 		"/>
		<polygon fill="#EDEDEC" points="311.602,338.741 313.9,339.288 313.9,335.458 311.602,334.956 		"/>
		<polygon fill="#EDEDEC" points="315.463,344.731 317.856,345.363 317.856,341.455 315.463,340.87 		"/>
		<polygon fill="#EDEDEC" points="311.555,343.764 313.851,344.371 313.851,340.542 311.555,339.98 		"/>
		<polygon fill="#EDEDEC" points="315.414,349.854 317.806,350.548 317.806,346.641 315.414,345.995 		"/>
		<polygon fill="#EDEDEC" points="311.507,348.783 313.804,349.45 313.804,345.624 311.507,345.001 		"/>
		<polygon fill="#EDEDEC" points="315.365,354.972 317.754,355.729 317.754,351.826 315.365,351.115 		"/>
		<polygon fill="#EDEDEC" points="311.46,353.802 313.754,354.527 313.754,350.702 311.46,350.021 		"/>
		<polygon fill="#EDEDEC" points="315.315,360.091 317.705,360.91 317.705,357.005 315.315,356.233 		"/>
		<polygon fill="#EDEDEC" points="311.412,358.818 313.706,359.605 313.706,355.781 311.412,355.037 		"/>
		<polygon fill="#EDEDEC" points="315.266,365.207 317.653,366.086 317.653,362.185 315.266,361.349 		"/>
		<polygon fill="#EDEDEC" points="311.365,363.83 313.659,364.676 313.659,360.853 311.365,360.05 		"/>
		<polygon fill="#EDEDEC" points="315.217,370.318 317.603,371.263 317.603,367.358 315.217,366.463 		"/>
		<polygon fill="#EDEDEC" points="311.317,368.842 313.609,369.748 313.609,365.924 311.317,365.062 		"/>
		<polygon fill="#EDEDEC" points="315.167,375.428 317.553,376.434 317.553,372.534 315.167,371.574 		"/>
		<polygon fill="#EDEDEC" points="311.27,373.848 313.56,374.816 313.56,370.992 311.27,370.072 		"/>
		<polygon fill="#EDEDEC" points="315.118,380.536 317.501,381.604 317.501,377.702 315.118,376.683 		"/>
		<polygon fill="#EDEDEC" points="311.223,378.855 313.511,379.88 313.511,376.06 311.223,375.078 		"/>
	</g>
	<g>
		<polygon fill="#EDEDEC" points="335.319,353.539 326.94,351.285 326.94,352.452 335.319,354.753 		"/>
		<polygon fill="#EDEDEC" points="335.319,359.81 326.94,357.291 326.94,358.46 335.319,361.026 		"/>
		<polygon fill="#EDEDEC" points="335.319,366.08 326.94,363.302 326.94,364.468 335.319,367.296 		"/>
		<polygon fill="#EDEDEC" points="335.319,372.354 326.94,369.309 326.94,370.476 335.319,373.569 		"/>
		<polygon fill="#EDEDEC" points="335.319,378.624 326.94,375.317 326.94,376.486 335.319,379.84 		"/>
	</g>
	<g>
		<polygon fill="#EDEDEC" points="353.346,333.409 349.396,334.138 349.396,329.977 353.346,329.322 		"/>
		<polygon fill="#EDEDEC" points="359.909,332.031 356.195,332.713 356.195,328.681 359.909,328.068 		"/>
		<polygon fill="#EDEDEC" points="353.38,344.265 349.433,345.19 349.433,341.031 353.38,340.18 		"/>
		<polygon fill="#EDEDEC" points="359.941,342.56 356.229,343.429 356.229,339.396 359.941,338.598 		"/>
		<polygon fill="#EDEDEC" points="353.346,338.913 349.398,339.742 349.398,335.581 353.346,334.826 		"/>
		<polygon fill="#EDEDEC" points="359.909,337.369 356.195,338.146 356.195,334.112 359.909,333.406 		"/>
		<polygon fill="#EDEDEC" points="353.449,349.636 349.505,350.66 349.505,346.501 353.449,345.551 		"/>
		<polygon fill="#EDEDEC" points="360.006,347.771 356.299,348.73 356.299,344.698 360.006,343.81 		"/>
	</g>
</g>
</svg>
