<?xml version="1.0" encoding="utf-8"?>
<!-- Generator: Adobe Illustrator 16.0.0, SVG Export Plug-In . SVG Version: 6.00 Build 0)  -->
<!DOCTYPE svg PUBLIC "-//W3C//DTD SVG 1.1//EN" "http://www.w3.org/Graphics/SVG/1.1/DTD/svg11.dtd">
<svg version="1.1" id="图层_1" xmlns="http://www.w3.org/2000/svg" xmlns:xlink="http://www.w3.org/1999/xlink" x="0px" y="0px"
	 width="100px" height="100px" viewBox="105.176 50 100 100" enable-background="new 105.176 50 100 100" xml:space="preserve">
<path fill="#395866" d="M129.755,121.851c-0.481,0.071-0.974,0.108-1.474,0.108c-5.515,0-9.985-4.469-9.985-9.984
	c0-5.111,3.843-9.326,8.797-9.913c-0.073-0.562-0.111-1.133-0.111-1.715c0-7.277,5.901-13.178,13.179-13.178
	c5.502,0,10.216,3.371,12.189,8.16c-0.006-0.19-0.009-0.381-0.009-0.573c0-9.483,7.688-17.172,17.171-17.172
	c9.484,0,17.173,7.688,17.173,17.172c0,2.478-0.524,4.833-1.468,6.96c5.018,0.609,8.906,4.886,8.906,10.071
	c0,5.604-4.542,10.146-10.143,10.146c-0.445,0-0.883-0.029-1.312-0.084H129.755z M128.344,129.571
	c-0.804,0.11-1.625,0.167-2.459,0.167c-9.925,0-17.97-8.046-17.97-17.971c0-8.222,5.521-15.154,13.057-17.292
	c1.193-8.768,8.71-15.525,17.806-15.525c3.14,0,6.091,0.806,8.66,2.221C151.697,73.326,160.006,68,169.562,68
	c13.896,0,25.159,11.264,25.159,25.159c0,0.954-0.053,1.896-0.155,2.822c5.585,3.048,9.375,8.975,9.375,15.787
	c0,9.925-8.046,17.971-17.971,17.971c-0.834,0-1.655-0.057-2.46-0.167H128.344z"/>
</svg>
