<?xml version="1.0" encoding="utf-8"?>
<!-- Generator: Adobe Illustrator 16.0.0, SVG Export Plug-In . SVG Version: 6.00 Build 0)  -->
<!DOCTYPE svg PUBLIC "-//W3C//DTD SVG 1.1//EN" "http://www.w3.org/Graphics/SVG/1.1/DTD/svg11.dtd">
<svg version="1.1" id="图层_1" xmlns="http://www.w3.org/2000/svg" xmlns:xlink="http://www.w3.org/1999/xlink" x="0px" y="0px"
	 width="100px" height="100px" viewBox="0 0 100 100" enable-background="new 0 0 100 100" xml:space="preserve">
<path fill="none" d="M8392.75,201.75"/>
<path fill="none" d="M-7990.25,201.75"/>
<polygon fill="#204A59" points="72.271,0 60.723,10.985 60.687,95.378 72.325,82.022 "/>
<polygon fill="#608293" points="34.375,-0.097 72.81,-0.058 60.703,11.536 60.638,11.526 60.117,11.683 59.733,11.799 
	59.253,11.935 58.698,12.093 58.064,12.25 57.354,12.406 56.566,12.583 55.723,12.758 54.78,12.916 53.783,13.091 52.707,13.248 
	51.556,13.385 50.348,13.521 49.08,13.619 47.734,13.718 46.335,13.775 44.875,13.815 43.358,13.815 41.765,13.795 40.134,13.718 
	38.444,13.619 36.696,13.484 34.911,13.266 33.069,13.031 31.166,12.719 29.23,12.367 27.25,11.956 25.216,11.486 23.143,10.937 "/>
<linearGradient id="SVGID_1_" gradientUnits="userSpaceOnUse" x1="555.4551" y1="-1871.918" x2="593.1748" y2="-1871.918" gradientTransform="matrix(1 0 0 -1 -532.3008 -1855.7998)">
	<stop  offset="0" style="stop-color:#314F5C"/>
	<stop  offset="0.5172" style="stop-color:#57798B"/>
	<stop  offset="1" style="stop-color:#314F5C"/>
</linearGradient>
<path fill="url(#SVGID_1_)" d="M60.69,11.521l0.184,7.783l-0.397-0.313l-0.596,0.168l-0.455,0.126l-0.516,0.146l-0.633,0.148
	l-0.707,0.166l-0.787,0.188l-0.881,0.167l-0.937,0.188l-1.016,0.168l-1.089,0.188l-1.148,0.146l-1.224,0.148l-1.262,0.146
	l-1.337,0.127l-1.379,0.083l-1.436,0.086l-1.492,0.04l-13.236-1.09l-7.189-0.982l-0.002-8.537
	C23.163,10.816,42.732,16.12,60.69,11.521z"/>
<linearGradient id="SVGID_2_" gradientUnits="userSpaceOnUse" x1="555.4434" y1="-1912.6748" x2="593.0684" y2="-1912.6748" gradientTransform="matrix(1 0 0 -1 -532.3008 -1855.7998)">
	<stop  offset="0" style="stop-color:#314F5C"/>
	<stop  offset="0.5172" style="stop-color:#57798B"/>
	<stop  offset="1" style="stop-color:#314F5C"/>
</linearGradient>
<polyline fill="url(#SVGID_2_)" points="60.672,95.682 60.768,14.125 23.199,14.125 23.143,96.784 26.343,99.12 31.373,99.625 
	52.402,99.625 57.545,99.063 "/>
<polygon fill="#204A59" stroke="#EDEDED" stroke-width="1.5" stroke-miterlimit="10" points="27.328,29.476 27.328,38.296 
	56.723,38.296 56.723,29.476 "/>
<polygon fill="#EDEDED" points="23.181,62.9 26.33,63.794 31.228,64.475 52.459,64.462 57.528,63.776 60.687,62.876 60.687,60.724 
	57.487,61.777 52.418,62.541 31.228,62.537 26.33,61.784 23.183,60.726 "/>
<polygon fill="#EDEDED" points="23.181,75.026 26.33,75.921 31.228,76.603 52.459,76.589 57.528,75.901 60.687,75.004 
	60.687,72.849 57.487,73.905 52.418,74.669 31.228,74.662 26.33,73.912 23.183,72.853 "/>
<polygon fill="#EDEDED" points="23.275,87.153 26.425,88.049 31.323,88.729 52.554,88.716 57.624,88.029 60.78,87.132 60.78,84.976 
	57.583,86.03 52.514,86.796 31.323,86.79 26.425,86.038 23.278,84.979 "/>
<path fill="#EDEDED" d="M23.176,21.894c0,0,20.31,3.982,37.591-0.021l-0.003,2.276c0,0-12.789,3.805-37.537,0.078L23.176,21.894z"/>
<polygon fill="#EDEDED" points="60.768,21.873 72.81,11.482 72.81,13.394 60.765,24.148 "/>
<path fill="none" d="M51.559,86.857c0.584-2.146,1.168-4.291,1.752-6.435c0.101-0.022,0.201-0.045,0.301-0.066
	c0.376,1.155,0.759,2.308,1.114,3.468c0.029,0.096-0.082,0.265-0.172,0.359c-0.907,0.957-1.823,1.906-2.736,2.857
	C51.731,86.981,51.646,86.919,51.559,86.857z"/>
</svg>
