<?xml version="1.0" encoding="utf-8"?>
<!-- Generator: Adobe Illustrator 16.0.0, SVG Export Plug-In . SVG Version: 6.00 Build 0)  -->
<!DOCTYPE svg PUBLIC "-//W3C//DTD SVG 1.1//EN" "http://www.w3.org/Graphics/SVG/1.1/DTD/svg11.dtd">
<svg version="1.1" id="图层_1" xmlns="http://www.w3.org/2000/svg" xmlns:xlink="http://www.w3.org/1999/xlink" x="0px" y="0px"
	 width="100px" height="100px" viewBox="0 0 100 100" enable-background="new 0 0 100 100" xml:space="preserve">
<path fill="none" d="M8392.75,201.75"/>
<path fill="none" d="M-7990.25,201.75"/>
<path fill="#FFFFFF" d="M174.407,193.407"/>
<polygon fill="#204A59" points="70.218,0.236 58.67,11.221 58.634,95.613 70.272,82.258 "/>
<polygon fill="#608293" points="32.322,0.139 70.757,0.178 58.65,11.771 58.585,11.762 58.064,11.918 57.681,12.035 57.2,12.17 
	56.646,12.329 56.012,12.485 55.302,12.642 54.514,12.818 53.67,12.994 52.728,13.151 51.73,13.327 50.654,13.484 49.503,13.621 
	48.295,13.757 47.027,13.855 45.682,13.954 44.283,14.011 42.822,14.051 41.306,14.051 39.712,14.031 38.081,13.954 36.391,13.855 
	34.643,13.72 32.858,13.502 31.017,13.267 29.113,12.955 27.177,12.603 25.198,12.191 23.163,11.722 21.091,11.173 "/>
<linearGradient id="SVGID_1_" gradientUnits="userSpaceOnUse" x1="553.4023" y1="-1872.1538" x2="591.1221" y2="-1872.1538" gradientTransform="matrix(1 0 0 -1 -532.3008 -1855.7998)">
	<stop  offset="0" style="stop-color:#314F5C"/>
	<stop  offset="0.5172" style="stop-color:#57798B"/>
	<stop  offset="1" style="stop-color:#314F5C"/>
</linearGradient>
<path fill="url(#SVGID_1_)" d="M58.638,11.757l0.184,7.783l-0.397-0.313l-0.596,0.168l-0.455,0.126l-0.516,0.146l-0.633,0.148
	l-0.707,0.166l-0.787,0.188l-0.881,0.167l-0.937,0.188l-1.016,0.168l-1.089,0.188l-1.148,0.146l-1.225,0.148l-1.262,0.146
	l-1.338,0.127l-1.379,0.083l-1.436,0.086l-1.492,0.04l-13.236-1.09l-7.189-0.982l-0.002-8.537
	C21.11,11.052,40.68,16.355,58.638,11.757z"/>
<linearGradient id="SVGID_2_" gradientUnits="userSpaceOnUse" x1="553.3916" y1="-1912.9111" x2="591.0156" y2="-1912.9111" gradientTransform="matrix(1 0 0 -1 -532.3008 -1855.7998)">
	<stop  offset="0" style="stop-color:#314F5C"/>
	<stop  offset="0.5172" style="stop-color:#57798B"/>
	<stop  offset="1" style="stop-color:#314F5C"/>
</linearGradient>
<polyline fill="url(#SVGID_2_)" points="58.619,95.918 58.715,14.361 21.146,14.361 21.091,97.02 24.29,99.355 29.32,99.861 
	50.35,99.861 55.492,99.299 "/>
<polygon fill="#204A59" stroke="#EDEDED" stroke-width="1.5" stroke-miterlimit="10" points="25.275,29.711 25.275,38.532 
	54.67,38.532 54.67,29.711 "/>
<polygon fill="#EDEDED" points="21.128,63.137 24.276,64.029 29.176,64.711 50.406,64.697 55.476,64.012 58.634,63.111 
	58.634,60.959 55.435,62.014 50.365,62.777 29.176,62.773 24.276,62.02 21.13,60.961 "/>
<polygon fill="#EDEDED" points="21.128,75.262 24.276,76.156 29.176,76.838 50.406,76.824 55.476,76.137 58.634,75.24 
	58.634,73.084 55.435,74.141 50.365,74.904 29.176,74.898 24.276,74.148 21.13,73.088 "/>
<polygon fill="#EDEDED" points="21.223,87.389 24.372,88.285 29.271,88.965 50.501,88.951 55.571,88.266 58.728,87.367 
	58.728,85.211 55.53,86.266 50.461,87.031 29.271,87.025 24.372,86.273 21.226,85.215 "/>
<path fill="#EDEDED" d="M21.124,22.129c0,0,20.31,3.982,37.591-0.021l-0.003,2.276c0,0-12.789,3.805-37.537,0.078L21.124,22.129z"/>
<polygon fill="#EDEDED" points="58.715,22.109 70.757,11.718 70.757,13.63 58.712,24.384 "/>
<path fill="none" d="M49.506,87.094c0.584-2.146,1.168-4.291,1.752-6.436c0.101-0.021,0.201-0.045,0.301-0.066
	c0.376,1.156,0.759,2.309,1.114,3.469c0.029,0.096-0.082,0.264-0.172,0.359c-0.907,0.957-1.823,1.906-2.736,2.857
	C49.679,87.217,49.594,87.154,49.506,87.094z"/>
<g>
	<path fill="#EDEDED" d="M82.795,86.685c0,1.98-1.572,3.598-3.498,3.598H30.525c-1.923,0-3.497-1.617-3.497-3.598V70.491
		c0-1.979,1.574-3.596,3.497-3.596h48.769c1.926,0,3.499,1.617,3.499,3.596L82.795,86.685L82.795,86.685z"/>
	<path fill="#EDEDED" stroke="#204A59" stroke-width="1.5" stroke-miterlimit="10" d="M83.08,86.698
		c0,1.979-1.572,3.596-3.499,3.596H30.811c-1.923,0-3.498-1.617-3.498-3.596V70.503c0-1.977,1.575-3.596,3.498-3.596h48.768
		c1.926,0,3.5,1.619,3.5,3.596L83.08,86.698L83.08,86.698z"/>
</g>
<path fill="#314F5C" d="M36.545,75.064h5.9l1.967,3.162c0,0,22.965-12.836,35.895-3.162c-8.557-3.286-15.094-2.876-24.584,0.318
	c0,2.435,0,10.749,0,10.749h-4.918v-8.535h-0.982l-4.426,2.528l2.95,6.007h-5.41l-0.983-3.479l-3.934,3.479h-6.883L36.545,75.064z
	 M39.495,77.911l-1.965,4.742l3.442-2.212L39.495,77.911z M57.69,75.383h5.899l2.456,2.528l2.459-2.528h5.902l-5.41,4.742v0.95
	l5.41,5.057h-5.902l-2.952-3.163l-2.948,3.163h-5.899l5.899-5.375v-0.632L57.69,75.383z"/>
</svg>
