<?xml version="1.0" encoding="utf-8"?>
<!-- Generator: Adobe Illustrator 16.0.0, SVG Export Plug-In . SVG Version: 6.00 Build 0)  -->
<!DOCTYPE svg PUBLIC "-//W3C//DTD SVG 1.1//EN" "http://www.w3.org/Graphics/SVG/1.1/DTD/svg11.dtd">
<svg version="1.1" id="图层_1" xmlns="http://www.w3.org/2000/svg" xmlns:xlink="http://www.w3.org/1999/xlink" x="0px" y="0px"
	 width="100px" height="100px" viewBox="0 0 100 100" enable-background="new 0 0 100 100" xml:space="preserve">
<path fill="none" d="M8392.75,201.75"/>
<path fill="none" d="M-7990.25,201.75"/>
<path fill="#FFFFFF" d="M174.407,193.407"/>
<polygon fill="#204A59" points="72.218,0.236 60.67,11.221 60.634,95.614 72.272,82.259 "/>
<polygon fill="#608293" points="34.322,0.139 72.757,0.178 60.65,11.772 60.585,11.762 60.064,11.919 59.681,12.036 59.2,12.171 
	58.646,12.329 58.012,12.486 57.302,12.643 56.514,12.819 55.67,12.995 54.728,13.152 53.73,13.327 52.654,13.484 51.503,13.621 
	50.295,13.757 49.027,13.855 47.682,13.954 46.283,14.012 44.822,14.051 43.306,14.051 41.712,14.032 40.081,13.954 38.391,13.855 
	36.643,13.72 34.858,13.502 33.017,13.268 31.113,12.956 29.177,12.603 27.198,12.192 25.163,11.723 23.091,11.173 "/>
<linearGradient id="SVGID_1_" gradientUnits="userSpaceOnUse" x1="555.4023" y1="-1872.1543" x2="593.1221" y2="-1872.1543" gradientTransform="matrix(1 0 0 -1 -532.3008 -1855.7998)">
	<stop  offset="0" style="stop-color:#314F5C"/>
	<stop  offset="0.5172" style="stop-color:#57798B"/>
	<stop  offset="1" style="stop-color:#314F5C"/>
</linearGradient>
<path fill="url(#SVGID_1_)" d="M60.638,11.757l0.184,7.783l-0.397-0.313l-0.596,0.168l-0.455,0.126l-0.516,0.146l-0.633,0.148
	l-0.707,0.166l-0.787,0.188l-0.881,0.167l-0.937,0.188l-1.016,0.168l-1.089,0.188L51.66,21.03l-1.225,0.148l-1.262,0.146
	l-1.338,0.127l-1.379,0.083l-1.436,0.086l-1.492,0.04l-13.236-1.09l-7.189-0.982l-0.002-8.537
	C23.11,11.053,42.68,16.356,60.638,11.757z"/>
<linearGradient id="SVGID_2_" gradientUnits="userSpaceOnUse" x1="555.3916" y1="-1912.9111" x2="593.0156" y2="-1912.9111" gradientTransform="matrix(1 0 0 -1 -532.3008 -1855.7998)">
	<stop  offset="0" style="stop-color:#314F5C"/>
	<stop  offset="0.5172" style="stop-color:#57798B"/>
	<stop  offset="1" style="stop-color:#314F5C"/>
</linearGradient>
<polyline fill="url(#SVGID_2_)" points="60.619,95.918 60.715,14.362 23.146,14.362 23.091,97.021 26.29,99.356 31.32,99.861 
	52.35,99.861 57.492,99.299 "/>
<polygon fill="#204A59" stroke="#EDEDED" stroke-width="1.5" stroke-miterlimit="10" points="27.275,29.712 27.275,38.533 
	56.67,38.533 56.67,29.712 "/>
<polygon fill="#EDEDED" points="23.128,63.137 26.276,64.03 31.176,64.711 52.406,64.698 57.476,64.013 60.634,63.112 60.634,60.96 
	57.435,62.014 52.365,62.777 31.176,62.773 26.276,62.021 23.13,60.962 "/>
<polygon fill="#EDEDED" points="23.128,75.263 26.276,76.157 31.176,76.839 52.406,76.825 57.476,76.138 60.634,75.24 
	60.634,73.085 57.435,74.142 52.365,74.905 31.176,74.898 26.276,74.148 23.13,73.089 "/>
<polygon fill="#EDEDED" points="23.223,87.39 26.372,88.285 31.271,88.965 52.501,88.952 57.571,88.266 60.728,87.368 
	60.728,85.212 57.53,86.267 52.461,87.032 31.271,87.026 26.372,86.274 23.226,85.215 "/>
<path fill="#EDEDED" d="M23.124,22.13c0,0,20.31,3.982,37.591-0.021l-0.003,2.276c0,0-12.789,3.805-37.537,0.078L23.124,22.13z"/>
<polygon fill="#EDEDED" points="60.715,22.109 72.757,11.719 72.757,13.63 60.712,24.384 "/>
<path fill="none" d="M51.506,87.094c0.584-2.146,1.168-4.291,1.752-6.435c0.101-0.022,0.201-0.045,0.301-0.066
	c0.376,1.155,0.759,2.308,1.114,3.468c0.029,0.096-0.082,0.265-0.172,0.359c-0.907,0.957-1.823,1.906-2.736,2.857
	C51.679,87.218,51.594,87.155,51.506,87.094z"/>
<g>
	<path fill="#EDEDED" d="M85.992,86.786c0,1.979-1.572,3.598-3.498,3.598H33.723c-1.923,0-3.498-1.618-3.498-3.598V70.593
		c0-1.979,1.574-3.597,3.498-3.597h48.768c1.926,0,3.499,1.617,3.499,3.597L85.992,86.786L85.992,86.786z"/>
	<path fill="#EDEDED" stroke="#204A59" stroke-width="1.5" stroke-miterlimit="10" d="M86.277,86.799
		c0,1.979-1.572,3.596-3.499,3.596h-48.77c-1.923,0-3.499-1.616-3.499-3.596V70.604c0-1.978,1.575-3.597,3.499-3.597h48.767
		c1.926,0,3.5,1.619,3.5,3.597L86.277,86.799L86.277,86.799z"/>
</g>
<g>
	<path fill="#314F5C" d="M33.603,77.977c0.109-0.47,0.287-0.915,0.537-1.353c0.79-1.373,2.192-2.117,3.707-2.421
		c1.672-0.336,3.274-0.078,4.729,0.857c0.192,0.124,0.367,0.273,0.56,0.42c-0.54,0.738-1.063,1.458-1.615,2.215
		c-0.594-0.663-1.332-0.993-2.187-1.041c-1.07-0.061-2.029,0.331-2.516,1.421c-0.388,0.869,0.078,1.954,1.013,2.411
		c1.375,0.675,2.588,0.313,3.699-0.695c0.521,0.711,1.046,1.429,1.597,2.179c-0.733,0.685-1.625,1.079-2.598,1.277
		c-1.674,0.343-3.286,0.127-4.753-0.766c-1.087-0.663-1.801-1.622-2.159-2.841C33.457,79.085,33.468,78.54,33.603,77.977z"/>
	<path fill="#314F5C" d="M60.5,80.699c0,0.811,0,1.625,0,2.458c-1.037,0-2.039,0-3.083,0c0-2.935,0-5.871,0-8.815
		c0.016-0.008,0.036-0.043,0.059-0.043c1.704,0.02,3.409,0,5.111,0.075c0.925,0.041,1.788,0.416,2.312,1.212
		c0.266,0.408,0.379,0.972,0.412,1.473c0.083,1.183-0.513,1.979-1.593,2.431c-0.093,0.037-0.177,0.092-0.339,0.177
		c1.071,1.17,2.116,2.312,3.219,3.515c-0.518,0-0.976,0-1.434,0c-0.653,0-1.313-0.034-1.965,0.014
		c-0.443,0.035-0.711-0.15-0.945-0.464c-0.431-0.578-0.86-1.159-1.286-1.745c-0.1-0.134-0.178-0.288-0.265-0.433
		C60.636,80.603,60.566,80.65,60.5,80.699z M60.541,76.1c0,0.799,0,1.483,0,2.277c0.507-0.092,0.987-0.122,1.423-0.276
		c0.351-0.127,0.604-0.41,0.604-0.862c-0.003-0.451-0.246-0.737-0.604-0.86C61.528,76.225,61.048,76.192,60.541,76.1z"/>
	<path fill="#314F5C" d="M72.314,74.285c1.277,0,2.445-0.025,3.607,0.022c0.206,0.01,0.435,0.29,0.586,0.494
		c0.268,0.355,0.492,0.75,0.726,1.131c0.132,0.213,0.253,0.263,0.427,0.033c0.361-0.487,0.725-0.972,1.109-1.439
		c0.095-0.116,0.274-0.23,0.417-0.233c1.181-0.018,2.361-0.008,3.642-0.008c-1.203,1.391-2.354,2.727-3.529,4.092
		c1.207,1.566,2.416,3.136,3.703,4.807c-0.423,0-0.734,0-1.045,0c-0.731,0-1.46-0.032-2.188,0.013
		c-0.447,0.027-0.692-0.172-0.908-0.504c-0.415-0.643-0.849-1.275-1.261-1.922c-0.191-0.297-0.301-0.141-0.45,0.033
		c-0.64,0.745-1.281,1.487-1.938,2.217c-0.072,0.087-0.215,0.154-0.325,0.156c-1.153,0.011-2.304,0.007-3.555,0.007
		c0.262-0.317,0.464-0.58,0.686-0.825c0.955-1.063,1.914-2.123,2.87-3.184c0.183-0.206,0.382-0.396,0.536-0.624
		c0.06-0.089,0.07-0.296,0.01-0.372c-0.745-0.935-1.515-1.856-2.269-2.782C72.896,75.063,72.643,74.714,72.314,74.285z"/>
	<path fill="#314F5C" d="M56.372,74.308c0,0.736,0,1.443,0,2.236c-0.572,0-1.149-0.011-1.725,0.003
		c-0.764,0.018-0.738-0.183-0.737,0.746c0.008,1.808,0.003,3.616,0,5.421c0,0.145-0.018,0.285-0.029,0.466
		c-0.976,0-1.92,0-2.865-0.003c-0.31,0-0.235-0.242-0.237-0.413c-0.006-1.486-0.002-2.973-0.002-4.459
		c-0.001-0.38,0-0.759-0.004-1.138c-0.006-0.623-0.009-0.623-0.609-0.623c-0.582,0-1.159,0-1.766,0c0-0.77,0-1.489,0-2.236
		C51.052,74.308,53.684,74.308,56.372,74.308z"/>
	<path fill="#314F5C" d="M47.351,83.157c-1.04,0-2.041,0-3.066,0c0-2.959,0-5.891,0-8.85c1.021,0,2.021,0,3.066,0
		C47.351,77.244,47.351,80.187,47.351,83.157z"/>
	<path fill="#314F5C" d="M70.561,83.182c-0.95,0-1.854-0.004-2.757,0.002c-0.251,0.003-0.325-0.112-0.325-0.346
		c0.003-2.745,0-5.488,0.017-8.23c0.003-0.11,0.184-0.309,0.282-0.312c0.916-0.024,1.837-0.017,2.787-0.017
		C70.561,77.253,70.561,80.192,70.561,83.182z"/>
	<circle fill="#314F5C" cx="45.819" cy="71.78" r="1.71"/>
	<circle fill="#314F5C" cx="69.123" cy="85.61" r="1.71"/>
</g>
</svg>
