<?xml version="1.0" encoding="utf-8"?>
<!-- Generator: Adobe Illustrator 16.0.0, SVG Export Plug-In . SVG Version: 6.00 Build 0)  -->
<!DOCTYPE svg PUBLIC "-//W3C//DTD SVG 1.1//EN" "http://www.w3.org/Graphics/SVG/1.1/DTD/svg11.dtd">
<svg version="1.1" id="图层_1" xmlns="http://www.w3.org/2000/svg" xmlns:xlink="http://www.w3.org/1999/xlink" x="0px" y="0px"
	 width="100px" height="100px" viewBox="0 0 100 100" enable-background="new 0 0 100 100" xml:space="preserve">
<path fill="none" d="M8392.75,201.75"/>
<path fill="none" d="M-7990.25,201.75"/>
<path fill="#FFFFFF" d="M174.407,193.407"/>
<polygon fill="#204A59" points="71.104,0.236 59.556,11.221 59.52,95.613 71.158,82.258 "/>
<polygon fill="#608293" points="33.208,0.139 71.643,0.178 59.536,11.771 59.471,11.762 58.95,11.918 58.566,12.035 58.086,12.17 
	57.531,12.329 56.897,12.485 56.188,12.642 55.399,12.818 54.556,12.994 53.613,13.151 52.616,13.327 51.54,13.484 50.389,13.621 
	49.181,13.757 47.913,13.855 46.567,13.954 45.168,14.011 43.708,14.051 42.191,14.051 40.598,14.031 38.967,13.954 37.277,13.855 
	35.529,13.72 33.744,13.502 31.902,13.267 29.999,12.955 28.063,12.603 26.083,12.191 24.049,11.722 21.976,11.173 "/>
<linearGradient id="SVGID_1_" gradientUnits="userSpaceOnUse" x1="554.2881" y1="-1872.1538" x2="592.0078" y2="-1872.1538" gradientTransform="matrix(1 0 0 -1 -532.3008 -1855.7998)">
	<stop  offset="0" style="stop-color:#314F5C"/>
	<stop  offset="0.5172" style="stop-color:#57798B"/>
	<stop  offset="1" style="stop-color:#314F5C"/>
</linearGradient>
<path fill="url(#SVGID_1_)" d="M59.523,11.757l0.184,7.783l-0.397-0.313l-0.596,0.168l-0.455,0.126l-0.516,0.146l-0.633,0.148
	l-0.707,0.166l-0.787,0.188l-0.881,0.167l-0.937,0.188l-1.016,0.168l-1.089,0.188l-1.148,0.146l-1.224,0.148l-1.262,0.146
	l-1.337,0.127l-1.379,0.083l-1.436,0.086l-1.492,0.04l-13.236-1.09l-7.189-0.982l-0.002-8.537
	C21.996,11.052,41.565,16.355,59.523,11.757z"/>
<linearGradient id="SVGID_2_" gradientUnits="userSpaceOnUse" x1="554.2773" y1="-1912.9111" x2="591.9014" y2="-1912.9111" gradientTransform="matrix(1 0 0 -1 -532.3008 -1855.7998)">
	<stop  offset="0" style="stop-color:#314F5C"/>
	<stop  offset="0.5172" style="stop-color:#57798B"/>
	<stop  offset="1" style="stop-color:#314F5C"/>
</linearGradient>
<polyline fill="url(#SVGID_2_)" points="59.505,95.918 59.601,14.361 22.032,14.361 21.976,97.02 25.176,99.355 30.206,99.861 
	51.235,99.861 56.378,99.299 "/>
<polygon fill="#204A59" stroke="#EDEDED" stroke-width="1.5" stroke-miterlimit="10" points="26.161,29.711 26.161,38.532 
	55.556,38.532 55.556,29.711 "/>
<polygon fill="#EDEDED" points="22.014,63.137 25.163,64.029 30.061,64.711 51.292,64.697 56.361,64.012 59.52,63.111 59.52,60.959 
	56.32,62.014 51.251,62.777 30.061,62.773 25.163,62.02 22.016,60.961 "/>
<polygon fill="#EDEDED" points="22.014,75.262 25.163,76.156 30.061,76.838 51.292,76.824 56.361,76.137 59.52,75.24 59.52,73.084 
	56.32,74.141 51.251,74.904 30.061,74.898 25.163,74.148 22.016,73.088 "/>
<polygon fill="#EDEDED" points="22.108,87.389 25.258,88.285 30.156,88.965 51.387,88.951 56.457,88.266 59.613,87.367 
	59.613,85.211 56.416,86.266 51.347,87.031 30.156,87.025 25.258,86.273 22.111,85.215 "/>
<path fill="#EDEDED" d="M22.009,22.129c0,0,20.31,3.982,37.591-0.021l-0.003,2.276c0,0-12.789,3.805-37.537,0.078L22.009,22.129z"/>
<polygon fill="#EDEDED" points="59.601,22.109 71.643,11.718 71.643,13.63 59.598,24.384 "/>
<path fill="none" d="M50.392,87.094c0.584-2.146,1.168-4.291,1.752-6.436c0.101-0.021,0.201-0.045,0.301-0.066
	c0.376,1.156,0.759,2.309,1.114,3.469c0.029,0.096-0.082,0.264-0.172,0.359c-0.907,0.957-1.823,1.906-2.736,2.857
	C50.564,87.217,50.479,87.154,50.392,87.094z"/>
<circle fill="#EDEDED" stroke="#204A59" stroke-width="1.5" stroke-miterlimit="10" cx="53.389" cy="74.623" r="22.39"/>
<g>
	<path fill="#345360" d="M65.195,69.004c-2.258,1.943-3.229,4.298-2.654,7.216c0.328,1.662,1.119,3.074,2.539,3.939
		c1.184,0.717,1.268,1.671,0.998,2.729c-0.688,2.659-2.186,4.783-4.576,6.178c-1.373,0.798-2.861,1.06-4.361,0.419
		c-2.346-0.997-4.627-0.897-6.954,0.085c-1.901,0.804-3.581,0.213-4.863-1.308c-3.375-4.016-4.924-8.725-4.735-13.926
		c0.107-2.896,1.654-5.193,4.087-6.761c2.354-1.507,4.832-2.044,7.43-0.475c1.752,1.063,3.467,0.561,5.174-0.187
		C60.553,65.466,62.895,66.071,65.195,69.004z"/>
	<path fill="#345360" d="M59.387,59.317c0.572,3.562-1.396,6.499-4.982,7.515C53.135,64.021,55.588,60.271,59.387,59.317z"/>
</g>
</svg>
