<?xml version="1.0" encoding="utf-8"?>
<!-- Generator: Adobe Illustrator 16.0.0, SVG Export Plug-In . SVG Version: 6.00 Build 0)  -->
<!DOCTYPE svg PUBLIC "-//W3C//DTD SVG 1.1//EN" "http://www.w3.org/Graphics/SVG/1.1/DTD/svg11.dtd">
<svg version="1.1" id="图层_1" xmlns="http://www.w3.org/2000/svg" xmlns:xlink="http://www.w3.org/1999/xlink" x="0px" y="0px"
	 width="100px" height="100px" viewBox="0 0 100 100" enable-background="new 0 0 100 100" xml:space="preserve">
<path fill="none" d="M8392.75,201.75"/>
<path fill="none" d="M-7990.25,201.75"/>
<path fill="#FFFFFF" d="M174.407,193.407"/>
<polygon fill="#204A59" points="73.396,0.236 61.848,11.221 61.812,95.614 73.45,82.259 "/>
<polygon fill="#608293" points="35.5,0.139 73.935,0.178 61.828,11.772 61.763,11.762 61.242,11.919 60.858,12.036 60.378,12.171 
	59.823,12.329 59.189,12.486 58.479,12.643 57.691,12.819 56.848,12.995 55.905,13.152 54.908,13.327 53.832,13.484 52.681,13.621 
	51.473,13.757 50.205,13.855 48.859,13.954 47.46,14.012 46,14.051 44.483,14.051 42.89,14.032 41.259,13.954 39.569,13.855 
	37.821,13.72 36.036,13.502 34.194,13.268 32.291,12.956 30.355,12.603 28.375,12.192 26.341,11.723 24.268,11.173 "/>
<linearGradient id="SVGID_1_" gradientUnits="userSpaceOnUse" x1="556.5801" y1="-1872.1543" x2="594.2998" y2="-1872.1543" gradientTransform="matrix(1 0 0 -1 -532.3008 -1855.7998)">
	<stop  offset="0" style="stop-color:#314F5C"/>
	<stop  offset="0.5172" style="stop-color:#57798B"/>
	<stop  offset="1" style="stop-color:#314F5C"/>
</linearGradient>
<path fill="url(#SVGID_1_)" d="M61.815,11.757l0.184,7.783l-0.397-0.313l-0.596,0.168l-0.455,0.126l-0.516,0.146l-0.633,0.148
	l-0.707,0.166l-0.787,0.188l-0.881,0.167l-0.937,0.188l-1.016,0.168l-1.089,0.188l-1.148,0.146l-1.225,0.148l-1.262,0.146
	l-1.337,0.127l-1.379,0.083l-1.436,0.086l-1.492,0.04l-13.236-1.09l-7.189-0.982l-0.002-8.537
	C24.288,11.053,43.857,16.356,61.815,11.757z"/>
<linearGradient id="SVGID_2_" gradientUnits="userSpaceOnUse" x1="556.5684" y1="-1912.9111" x2="594.1934" y2="-1912.9111" gradientTransform="matrix(1 0 0 -1 -532.3008 -1855.7998)">
	<stop  offset="0" style="stop-color:#314F5C"/>
	<stop  offset="0.5172" style="stop-color:#57798B"/>
	<stop  offset="1" style="stop-color:#314F5C"/>
</linearGradient>
<polyline fill="url(#SVGID_2_)" points="61.797,95.918 61.893,14.362 24.324,14.362 24.268,97.021 27.468,99.356 32.498,99.861 
	53.527,99.861 58.67,99.299 "/>
<polygon fill="#204A59" stroke="#EDEDED" stroke-width="1.5" stroke-miterlimit="10" points="28.453,29.712 28.453,38.533 
	57.848,38.533 57.848,29.712 "/>
<polygon fill="#EDEDED" points="24.306,63.137 27.455,64.03 32.353,64.711 53.584,64.698 58.653,64.013 61.812,63.112 61.812,60.96 
	58.612,62.014 53.543,62.777 32.353,62.773 27.455,62.021 24.308,60.962 "/>
<polygon fill="#EDEDED" points="24.306,75.263 27.455,76.157 32.353,76.839 53.584,76.825 58.653,76.138 61.812,75.24 
	61.812,73.085 58.612,74.142 53.543,74.905 32.353,74.898 27.455,74.148 24.308,73.089 "/>
<polygon fill="#EDEDED" points="24.4,87.39 27.55,88.285 32.448,88.965 53.679,88.952 58.749,88.266 61.905,87.368 61.905,85.212 
	58.708,86.267 53.639,87.032 32.448,87.026 27.55,86.274 24.403,85.215 "/>
<path fill="#EDEDED" d="M24.301,22.13c0,0,20.31,3.982,37.591-0.021l-0.003,2.276c0,0-12.789,3.805-37.537,0.078L24.301,22.13z"/>
<polygon fill="#EDEDED" points="61.893,22.109 73.935,11.719 73.935,13.63 61.89,24.384 "/>
<path fill="none" d="M52.684,87.094c0.584-2.146,1.168-4.291,1.752-6.435c0.101-0.022,0.201-0.045,0.301-0.066
	c0.376,1.155,0.759,2.308,1.114,3.468c0.029,0.096-0.082,0.265-0.172,0.359c-0.907,0.957-1.823,1.906-2.736,2.857
	C52.856,87.218,52.771,87.155,52.684,87.094z"/>
<circle fill="#EDEDED" stroke="#204A59" stroke-width="1.5" stroke-miterlimit="10" cx="55.487" cy="76.385" r="22.39"/>
<g>
	<path fill="#345360" d="M73.032,76.584c-0.023,0.122-0.039,0.243-0.066,0.365c-0.113,0.61-0.4,1.133-0.839,1.572
		c-2.328,2.331-4.656,4.658-6.982,6.986c-0.021,0.016-0.034,0.032-0.048,0.04c-0.625-0.625-1.248-1.251-1.871-1.873
		c2.352-2.349,4.706-4.705,7.073-7.076c-0.187-0.17-0.363-0.328-0.545-0.493c-2.338,2.319-4.696,4.667-7.068,7.019
		c-0.624-0.613-1.248-1.219-1.878-1.837c0.03-0.035,0.057-0.063,0.085-0.091c2.33-2.33,4.658-4.66,6.989-6.986
		c0.604-0.605,1.339-0.884,2.184-0.861c1.464,0.035,2.7,1.138,2.924,2.586c0.012,0.086,0.029,0.172,0.044,0.259
		C73.032,76.322,73.032,76.453,73.032,76.584z"/>
	<path fill="#345360" d="M55.629,58.83c0.144,0.028,0.284,0.048,0.426,0.083c0.574,0.13,1.062,0.41,1.475,0.825
		c2.333,2.326,4.661,4.653,6.986,6.983c0.016,0.017,0.028,0.028,0.053,0.059c-0.624,0.61-1.251,1.22-1.883,1.839
		c-2.363-2.352-4.724-4.697-7.077-7.03c-0.171,0.165-0.334,0.327-0.513,0.506c2.338,2.353,4.682,4.709,7.034,7.078
		c-0.614,0.63-1.224,1.254-1.858,1.903c-0.035-0.046-0.061-0.093-0.092-0.128c-2.313-2.314-4.631-4.633-6.952-6.949
		c-1.203-1.207-1.163-3.175,0.093-4.334c0.495-0.463,1.078-0.737,1.752-0.81c0.026-0.004,0.045-0.015,0.073-0.023
		C55.306,58.83,55.47,58.83,55.629,58.83z"/>
	<path fill="#345360" d="M37.941,76.188c0.028-0.159,0.054-0.32,0.088-0.483c0.126-0.569,0.395-1.061,0.812-1.479
		c2.287-2.283,4.566-4.566,6.851-6.853c0.027-0.023,0.049-0.053,0.084-0.092c0.619,0.633,1.227,1.254,1.844,1.889
		c-2.354,2.368-4.695,4.726-7.032,7.081c0.172,0.174,0.336,0.336,0.497,0.498c2.352-2.354,4.707-4.71,7.06-7.059
		c0.638,0.639,1.266,1.264,1.892,1.893c-0.008,0.006-0.028,0.034-0.051,0.056c-2.348,2.352-4.695,4.701-7.048,7.042
		c-0.652,0.647-1.461,0.893-2.372,0.804c-0.52-0.05-0.991-0.239-1.421-0.534c-0.609-0.423-0.938-1.031-1.11-1.734
		c-0.041-0.166-0.062-0.336-0.093-0.501C37.941,76.542,37.941,76.364,37.941,76.188z"/>
	<path fill="#345360" d="M46.312,66.781c0.617-0.621,1.242-1.245,1.875-1.878c2.353,2.336,4.711,4.683,7.066,7.02
		c0.173-0.17,0.334-0.334,0.496-0.495c-2.354-2.351-4.714-4.707-7.065-7.061c0.642-0.646,1.268-1.27,1.899-1.898
		c0.02,0.021,0.051,0.047,0.078,0.072c2.313,2.316,4.627,4.629,6.946,6.949c0.672,0.674,0.97,1.492,0.891,2.439
		c-0.108,1.332-1.202,2.5-2.528,2.7c-1.027,0.157-1.914-0.129-2.65-0.867c-1.036-1.035-2.073-2.062-3.108-3.093
		c-1.118-1.113-2.235-2.223-3.351-3.329C46.674,67.154,46.494,66.962,46.312,66.781z"/>
	<path fill="#345360" d="M65.076,67.302c0.624,0.625,1.25,1.252,1.874,1.877c-2.351,2.353-4.711,4.712-7.081,7.082
		c0.193,0.176,0.372,0.338,0.553,0.508c2.366-2.366,4.728-4.726,7.093-7.093c0.62,0.634,1.234,1.261,1.847,1.889
		c-0.027,0.028-0.049,0.054-0.071,0.077c-0.996,1.003-1.993,2.002-2.993,3.009c-1.152,1.16-2.302,2.318-3.458,3.479
		c-0.237,0.236-0.459,0.485-0.717,0.692c-1.181,0.977-2.898,0.906-3.991-0.161c-0.69-0.675-1.003-1.498-0.931-2.462
		c0.056-0.702,0.337-1.313,0.834-1.816c0.564-0.57,1.129-1.14,1.699-1.711c1.05-1.053,2.096-2.104,3.145-3.159
		c0.706-0.711,1.412-1.427,2.118-2.141C65.02,67.35,65.05,67.321,65.076,67.302z"/>
	<path fill="#345360" d="M64.578,86.052c-0.652,0.651-1.271,1.271-1.896,1.895c-2.357-2.354-4.717-4.716-7.084-7.087
		c-0.177,0.19-0.342,0.371-0.504,0.556c2.351,2.349,4.693,4.691,7.048,7.044c-0.626,0.64-1.235,1.261-1.847,1.893
		c-0.139-0.136-0.274-0.265-0.409-0.402c-1.077-1.066-2.146-2.139-3.226-3.205c-1.137-1.133-2.279-2.263-3.417-3.4
		c-1.175-1.168-1.196-3.031-0.046-4.218c0.552-0.567,1.221-0.896,2.019-0.938c0.887-0.045,1.65,0.247,2.28,0.861
		c0.74,0.719,1.468,1.452,2.201,2.18c1.053,1.047,2.104,2.093,3.154,3.137c0.545,0.542,1.083,1.076,1.629,1.619
		C64.507,86.013,64.549,86.031,64.578,86.052z"/>
	<path fill="#345360" d="M45.793,85.548c-0.628-0.633-1.251-1.252-1.878-1.884c2.336-2.351,4.681-4.711,7.019-7.065
		c-0.174-0.171-0.338-0.333-0.513-0.508c-2.349,2.334-4.708,4.682-7.058,7.012c-0.615-0.612-1.222-1.218-1.837-1.835
		c0.115-0.117,0.244-0.247,0.369-0.376c0.797-0.798,1.594-1.6,2.385-2.398c0.843-0.843,1.686-1.695,2.524-2.539
		c0.577-0.579,1.146-1.164,1.728-1.74c0.61-0.599,1.346-0.892,2.205-0.868c1.481,0.038,2.738,1.19,2.914,2.665
		c0.116,0.967-0.163,1.798-0.849,2.489c-1.212,1.22-2.421,2.44-3.633,3.657c-1.102,1.106-2.201,2.213-3.299,3.317
		C45.842,85.504,45.816,85.524,45.793,85.548z"/>
	<path fill="#345360" d="M48.698,83.688c0.631-0.629,1.251-1.249,1.882-1.881c0.021,0.023,0.051,0.043,0.076,0.077
		c2.346,2.339,4.692,4.681,7.029,7.026c0.607,0.609,0.857,1.364,0.823,2.218c-0.052,1.231-0.918,2.327-2.15,2.675
		c-1.161,0.323-2.2,0.075-3.062-0.779c-0.97-0.952-1.925-1.912-2.886-2.865c-1.05-1.045-2.099-2.082-3.148-3.128
		c-0.291-0.289-0.582-0.575-0.874-0.865c-0.029-0.028-0.068-0.047-0.091-0.062c0.644-0.644,1.268-1.266,1.89-1.89
		c2.35,2.346,4.705,4.706,7.078,7.077c0.18-0.194,0.346-0.376,0.519-0.563C53.414,88.378,51.057,86.033,48.698,83.688z"/>
</g>
</svg>
