<?xml version="1.0" encoding="utf-8"?>
<!-- Generator: Adobe Illustrator 16.0.0, SVG Export Plug-In . SVG Version: 6.00 Build 0)  -->
<!DOCTYPE svg PUBLIC "-//W3C//DTD SVG 1.1//EN" "http://www.w3.org/Graphics/SVG/1.1/DTD/svg11.dtd">
<svg version="1.1" id="图层_1" xmlns="http://www.w3.org/2000/svg" xmlns:xlink="http://www.w3.org/1999/xlink" x="0px" y="0px"
	 width="100px" height="100px" viewBox="0 0 100 100" enable-background="new 0 0 100 100" xml:space="preserve">
<path fill="none" d="M8392.75,201.75"/>
<path fill="none" d="M-7990.25,201.75"/>
<path fill="#FFFFFF" d="M174.407,193.407"/>
<polygon fill="#204A59" points="73.146,0.236 61.598,11.221 61.562,95.615 73.2,82.26 "/>
<polygon fill="#608293" points="35.25,0.139 73.685,0.178 61.578,11.772 61.513,11.762 60.992,11.919 60.608,12.036 60.128,12.171 
	59.573,12.329 58.939,12.486 58.229,12.643 57.441,12.819 56.598,12.995 55.655,13.152 54.658,13.327 53.582,13.484 52.431,13.621 
	51.223,13.757 49.955,13.855 48.609,13.954 47.21,14.012 45.75,14.051 44.233,14.051 42.64,14.032 41.009,13.954 39.319,13.855 
	37.571,13.72 35.786,13.502 33.944,13.268 32.041,12.956 30.105,12.603 28.125,12.192 26.091,11.723 24.018,11.173 "/>
<linearGradient id="SVGID_1_" gradientUnits="userSpaceOnUse" x1="556.3301" y1="-1872.1543" x2="594.0498" y2="-1872.1543" gradientTransform="matrix(1 0 0 -1 -532.3008 -1855.7998)">
	<stop  offset="0" style="stop-color:#314F5C"/>
	<stop  offset="0.5172" style="stop-color:#57798B"/>
	<stop  offset="1" style="stop-color:#314F5C"/>
</linearGradient>
<path fill="url(#SVGID_1_)" d="M61.565,11.757l0.184,7.783l-0.397-0.313l-0.596,0.168l-0.455,0.126l-0.516,0.146l-0.633,0.148
	l-0.707,0.166l-0.787,0.188l-0.881,0.167l-0.937,0.188l-1.016,0.168l-1.089,0.188l-1.148,0.146l-1.225,0.148l-1.262,0.146
	l-1.337,0.127l-1.379,0.083l-1.436,0.086l-1.492,0.04l-13.236-1.09l-7.189-0.982l-0.002-8.537
	C24.038,11.053,43.607,16.356,61.565,11.757z"/>
<linearGradient id="SVGID_2_" gradientUnits="userSpaceOnUse" x1="556.3184" y1="-1912.9111" x2="593.9434" y2="-1912.9111" gradientTransform="matrix(1 0 0 -1 -532.3008 -1855.7998)">
	<stop  offset="0" style="stop-color:#314F5C"/>
	<stop  offset="0.5172" style="stop-color:#57798B"/>
	<stop  offset="1" style="stop-color:#314F5C"/>
</linearGradient>
<polyline fill="url(#SVGID_2_)" points="61.547,95.918 61.643,14.362 24.074,14.362 24.018,97.021 27.218,99.357 32.248,99.861 
	53.277,99.861 58.42,99.299 "/>
<polygon fill="#204A59" stroke="#EDEDED" stroke-width="1.5" stroke-miterlimit="10" points="28.203,29.712 28.203,38.533 
	57.598,38.533 57.598,29.712 "/>
<polygon fill="#EDEDED" points="24.056,63.137 27.205,64.031 32.103,64.711 53.334,64.699 58.403,64.014 61.562,63.113 
	61.562,60.961 58.362,62.014 53.293,62.777 32.103,62.773 27.205,62.021 24.058,60.963 "/>
<polygon fill="#EDEDED" points="24.056,75.264 27.205,76.158 32.103,76.84 53.334,76.826 58.403,76.139 61.562,75.24 61.562,73.086 
	58.362,74.143 53.293,74.906 32.103,74.898 27.205,74.148 24.058,73.09 "/>
<polygon fill="#EDEDED" points="24.15,87.391 27.3,88.285 32.198,88.965 53.429,88.953 58.499,88.266 61.655,87.369 61.655,85.213 
	58.458,86.268 53.389,87.033 32.198,87.027 27.3,86.275 24.153,85.215 "/>
<path fill="#EDEDED" d="M24.051,22.13c0,0,20.31,3.982,37.591-0.021l-0.003,2.276c0,0-12.789,3.805-37.537,0.078L24.051,22.13z"/>
<polygon fill="#EDEDED" points="61.643,22.109 73.685,11.719 73.685,13.63 61.64,24.384 "/>
<path fill="none" d="M52.434,87.094c0.584-2.146,1.168-4.291,1.752-6.434c0.101-0.023,0.201-0.045,0.301-0.066
	c0.376,1.154,0.759,2.307,1.114,3.467c0.029,0.096-0.082,0.266-0.172,0.359c-0.907,0.957-1.823,1.906-2.736,2.857
	C52.606,87.219,52.521,87.156,52.434,87.094z"/>
<circle fill="#EDEDED" stroke="#204A59" stroke-width="1.5" stroke-miterlimit="10" cx="55.227" cy="74.497" r="22.39"/>
<g>
	<path fill="#345360" d="M68.976,60.771c0,4.404,0,8.684,0,13.003c-4.969,0-9.917,0-14.903,0c0-3.643,0-7.272,0-10.953
		C59.026,62.136,63.978,61.456,68.976,60.771z"/>
	<path fill="#345360" d="M68.965,88.222c-5.002-0.688-9.924-1.362-14.885-2.046c0-3.596,0-7.189,0-10.826c4.946,0,9.897,0,14.885,0
		C68.965,79.623,68.965,83.895,68.965,88.222z"/>
	<path fill="#345360" d="M52.695,63.039c0,3.579,0,7.144,0,10.746c-0.185,0.013-0.344,0.03-0.503,0.03
		c-3.372,0.003-6.751-0.006-10.12,0.013c-0.443,0.001-0.597-0.109-0.594-0.575c0.019-2.714,0.014-5.425,0-8.136
		c0-0.417,0.09-0.59,0.558-0.65c3.487-0.458,6.965-0.953,10.443-1.435C52.546,63.021,52.605,63.036,52.695,63.039z"/>
	<path fill="#345360" d="M52.689,85.989c-2.012-0.279-3.988-0.547-5.966-0.821c-1.585-0.218-3.171-0.445-4.759-0.642
		c-0.353-0.042-0.483-0.157-0.482-0.516c0.01-2.747,0.007-5.49,0-8.234c0-0.318,0.062-0.482,0.437-0.479
		c3.488,0.013,6.978,0.005,10.467,0.01c0.097,0,0.193,0.021,0.303,0.037C52.689,78.901,52.689,82.434,52.689,85.989z"/>
</g>
</svg>
