<?xml version="1.0" encoding="utf-8"?>
<!-- Generator: Adobe Illustrator 21.0.0, SVG Export Plug-In . SVG Version: 6.00 Build 0)  -->
<svg version="1.1" id="图层_1" xmlns="http://www.w3.org/2000/svg" xmlns:xlink="http://www.w3.org/1999/xlink" x="0px" y="0px"
	 viewBox="0 0 100 100" style="enable-background:new 0 0 100 100;" xml:space="preserve">
<style type="text/css">
	.st0{fill:url(#SVGID_1_);}
	.st1{fill:#608293;}
	.st2{fill:#EDEDED;}
	.st3{fill:#FFFFFF;}
	.st4{font-family:'MicrosoftYaHei-Bold';}
	.st5{font-size:26px;}
</style>
<linearGradient id="SVGID_1_" gradientUnits="userSpaceOnUse" x1="-394.4693" y1="-1386.6208" x2="-313.1693" y2="-1386.6208" gradientTransform="matrix(1 0 0 -1 404.6797 -1328.9209)">
	<stop  offset="0" style="stop-color:#314F5C"/>
	<stop  offset="0.5172" style="stop-color:#547482"/>
	<stop  offset="1" style="stop-color:#314F5C"/>
</linearGradient>
<path class="st0" d="M91.5,15.4c0,11.3-17.5,14.8-39.9,14.8s-41.3-3.5-41.3-14.8l-0.1,66.7c1,9.8,19.2,17.9,40.7,17.9
	c22.8,0,39.3-7.2,40.5-17.9V16.9"/>
<path class="st1" d="M50.9,32.9c22.4,0,40.6-7.1,40.6-15.8S73.3,1.3,50.9,1.3S10.3,8.4,10.3,17.2C10.3,25.9,28.5,32.9,50.9,32.9"/>
<path class="st2" d="M57.3,10.9"/>
<text transform="matrix(1 0 0 1 31.6843 74.8842)" class="st3 st4 st5">DB</text>
</svg>
