<svg id="Layer_1" data-name="Layer 1" xmlns="http://www.w3.org/2000/svg" xmlns:xlink="http://www.w3.org/1999/xlink" viewBox="0 0 83.52 100"><defs><style>.cls-1{fill:#608293;}.cls-2{fill:url(#未命名的渐变_2);}.cls-3{fill:url(#未命名的渐变_2-2);}</style><linearGradient id="未命名的渐变_2" x1="8.24" y1="79.16" x2="91.24" y2="79.16" gradientUnits="userSpaceOnUse"><stop offset="0" stop-color="#314f5c"/><stop offset="0.52" stop-color="#547482"/><stop offset="1" stop-color="#314f5c"/></linearGradient><linearGradient id="未命名的渐变_2-2" x1="8.24" y1="45.61" x2="91.24" y2="45.61" xlink:href="#未命名的渐变_2"/></defs><title>53a93f4e34918 [转换]</title><ellipse class="cls-1" cx="41.76" cy="16.52" rx="41.76" ry="16.52"/><path class="cls-2" d="M49.74,70.91c-22.63,0-41.5-7.54-41.5-12.58V83.49c0,9.12,18.58,16.51,41.5,16.51s41.5-7.39,41.5-16.51V58.32C91.24,63.37,72.37,70.91,49.74,70.91Z" transform="translate(-8.24)"/><path class="cls-3" d="M49.74,37.36c-22.63,0-41.5-7.54-41.5-12.58V49.94c0,9.12,18.58,16.51,41.5,16.51s41.5-7.39,41.5-16.51V24.77C91.24,29.82,72.37,37.36,49.74,37.36Z" transform="translate(-8.24)"/></svg>